<?xml version="1.0" encoding="UTF-8" standalone="no"?>
<svg
   xml:space="preserve"
   inkscape:version="1.2.2 (b0a8486541, 2022-12-01)"
   sodipodi:docname="two-site.svg"
   id="svg32714"
   version="1.2"
   viewBox="0 0 385.45425 118.66762"
   height="118.66762pt"
   width="385.45425pt"
   xmlns:inkscape="http://www.inkscape.org/namespaces/inkscape"
   xmlns:sodipodi="http://sodipodi.sourceforge.net/DTD/sodipodi-0.dtd"
   xmlns="http://www.w3.org/2000/svg"
   xmlns:svg="http://www.w3.org/2000/svg"
   xmlns:ns16="http://www.iki.fi/pav/software/textext/"><sodipodi:namedview
     id="namedview32716"
     pagecolor="#505050"
     bordercolor="#eeeeee"
     borderopacity="1"
     inkscape:pageshadow="0"
     inkscape:pageopacity="0"
     inkscape:pagecheckerboard="0"
     inkscape:document-units="pt"
     showgrid="false"
     inkscape:zoom="1.4167392"
     inkscape:cx="250.57541"
     inkscape:cy="184.22586"
     inkscape:window-width="1920"
     inkscape:window-height="1012"
     inkscape:window-x="1920"
     inkscape:window-y="152"
     inkscape:window-maximized="1"
     inkscape:current-layer="svg32714"
     inkscape:snap-bbox="true"
     inkscape:object-paths="true"
     inkscape:snap-intersection-paths="true"
     inkscape:snap-global="false"
     inkscape:showpageshadow="0"
     inkscape:deskcolor="#505050" /><defs
     id="defs32609"><inkscape:path-effect
       effect="spiro"
       id="path-effect15818"
       is_visible="true"
       lpeversion="1" /><marker
       style="overflow:visible"
       id="marker15558"
       refX="0"
       refY="0"
       orient="auto"
       inkscape:stockid="Dot"
       markerWidth="3.6670001"
       markerHeight="3.6670001"
       viewBox="0 0 5.6666667 5.6666667"
       inkscape:isstock="true"
       inkscape:collect="always"
       preserveAspectRatio="xMidYMid"><path
         transform="scale(0.5)"
         style="fill:context-stroke;fill-rule:evenodd;stroke:context-stroke;stroke-width:1pt"
         d="M 5,0 C 5,2.76 2.76,5 0,5 -2.76,5 -5,2.76 -5,0 c 0,-2.76 2.3,-5 5,-5 2.76,0 5,2.24 5,5 z"
         id="path15556"
         sodipodi:nodetypes="sssss" /></marker><marker
       style="overflow:visible"
       id="Dot"
       refX="0"
       refY="0"
       orient="auto"
       inkscape:stockid="Dot"
       markerWidth="3.6670001"
       markerHeight="3.6670001"
       viewBox="0 0 5.6666667 5.6666667"
       inkscape:isstock="true"
       inkscape:collect="always"
       preserveAspectRatio="xMidYMid"><path
         transform="scale(0.5)"
         style="fill:context-stroke;fill-rule:evenodd;stroke:context-stroke;stroke-width:1pt"
         d="M 5,0 C 5,2.76 2.76,5 0,5 -2.76,5 -5,2.76 -5,0 c 0,-2.76 2.3,-5 5,-5 2.76,0 5,2.24 5,5 z"
         id="Dot1"
         sodipodi:nodetypes="sssss" /></marker><inkscape:path-effect
       effect="spiro"
       id="path-effect13972"
       is_visible="true"
       lpeversion="1" /><inkscape:path-effect
       effect="spiro"
       id="path-effect13467"
       is_visible="true"
       lpeversion="1" /><inkscape:path-effect
       effect="spiro"
       id="path-effect13026"
       is_visible="true"
       lpeversion="1" /><marker
       style="overflow:visible"
       id="RoundedArrow"
       refX="0"
       refY="0"
       orient="auto-start-reverse"
       inkscape:stockid="RoundedArrow"
       markerWidth="6.1347523"
       markerHeight="5.9304953"
       viewBox="0 0 6.1347524 5.9304951"
       inkscape:isstock="true"
       inkscape:collect="always"
       preserveAspectRatio="xMidYMid"><path
         transform="scale(0.7)"
         d="m -0.21114562,-4.1055728 6.42229122,3.21114561 a 1,1 90 0 1 0,1.78885438 L -0.21114562,4.1055728 A 1.236068,1.236068 31.717474 0 1 -2,3 v -6 a 1.236068,1.236068 148.28253 0 1 1.78885438,-1.1055728 z"
         style="fill:context-stroke;fill-rule:evenodd;stroke:none"
         id="path1367" /></marker><inkscape:path-effect
       effect="spiro"
       id="path-effect97285"
       is_visible="true"
       lpeversion="1" /><marker
       style="overflow:visible"
       id="EmptyTriangleIn"
       refX="-1"
       refY="0"
       orient="auto-start-reverse"
       inkscape:stockid="EmptyTriangleIn"
       markerWidth="5.8241119"
       markerHeight="6.7330775"
       viewBox="0 0 5.8241121 6.7330776"
       inkscape:isstock="true"
       inkscape:collect="always"
       preserveAspectRatio="xMidYMid"><path
         transform="scale(0.5)"
         style="fill:context-fill;fill-rule:evenodd;stroke:context-stroke;stroke-width:2"
         d="M 5.77,0 -2.88,5 V -5 Z"
         id="path153" /></marker><inkscape:path-effect
       effect="spiro"
       id="path-effect97007"
       is_visible="true"
       lpeversion="1" /><marker
       style="overflow:visible"
       id="marker9621"
       refX="0"
       refY="0"
       orient="auto"
       inkscape:stockid="Arrow2Mend"
       inkscape:isstock="true"><path
         transform="scale(-0.6)"
         d="M 8.7185878,4.0337352 -2.2072895,0.01601326 8.7185884,-4.0017078 c -1.7454984,2.3720609 -1.7354408,5.6174519 -6e-7,8.035443 z"
         style="fill:context-stroke;fill-rule:evenodd;stroke:context-stroke;stroke-width:0.625;stroke-linejoin:round"
         id="path9619" /></marker><marker
       style="overflow:visible"
       id="Arrow2Mend"
       refX="0"
       refY="0"
       orient="auto"
       inkscape:stockid="Arrow2Mend"
       inkscape:isstock="true"><path
         transform="scale(-0.6)"
         d="M 8.7185878,4.0337352 -2.2072895,0.01601326 8.7185884,-4.0017078 c -1.7454984,2.3720609 -1.7354408,5.6174519 -6e-7,8.035443 z"
         style="fill:context-stroke;fill-rule:evenodd;stroke:context-stroke;stroke-width:0.625;stroke-linejoin:round"
         id="path9370" /></marker><marker
       style="overflow:visible"
       id="Arrow2Lend"
       refX="0"
       refY="0"
       orient="auto"
       inkscape:stockid="Arrow2Lend"
       inkscape:isstock="true"><path
         transform="matrix(-1.1,0,0,-1.1,-1.1,0)"
         d="M 8.7185878,4.0337352 -2.2072895,0.01601326 8.7185884,-4.0017078 c -1.7454984,2.3720609 -1.7354408,5.6174519 -6e-7,8.035443 z"
         style="fill:context-stroke;fill-rule:evenodd;stroke:context-stroke;stroke-width:0.625;stroke-linejoin:round"
         id="path9364" /></marker><inkscape:path-effect
       effect="spiro"
       id="path-effect8375"
       is_visible="true"
       lpeversion="1" /><inkscape:path-effect
       effect="spiro"
       id="path-effect8371"
       is_visible="true"
       lpeversion="1" /><inkscape:path-effect
       effect="spiro"
       id="path-effect8334"
       is_visible="true"
       lpeversion="1" /><inkscape:path-effect
       effect="spiro"
       id="path-effect8213"
       is_visible="true"
       lpeversion="1" /><clipPath
       id="clip1"><path
         d="m 28,134 h 11 v 17.24219 H 28 Z m 0,0"
         id="path32600" /></clipPath><clipPath
       id="clip2"><path
         d="m 75,134 h 12 v 17.24219 H 75 Z m 0,0"
         id="path32603" /></clipPath><clipPath
       id="clip3"><path
         d="m 345,133 h 10.31641 v 13 H 345 Z m 0,0"
         id="path32606" /></clipPath><g
       id="id-d512316c-f310-4ef7-b32f-ea93f87dd485-7"><g
         id="id-aec88e65-99b3-4c56-a594-255c12e961eb-5"><path
           d="M 5.40625,-10.46875 H 1.21875 V 3.484375 h 4.1875 z M 4.875,-9.953125 V 2.96875 H 1.78125 V -9.953125 Z M 3.234375,-4.5 c -0.390625,0 -0.9375,0.125 -0.9375,0.390625 0,0.125 0.09375,0.234375 0.25,0.234375 0.03125,0 0.078125,-0.015625 0.125,-0.03125 0.171875,-0.078125 0.3125,-0.109375 0.515625,-0.109375 0.5,0 0.609375,0.296875 0.609375,0.6875 0,0.53125 -0.1875,0.71875 -0.90625,0.765625 v 0.84375 c 0,0.140625 0.125,0.234375 0.25,0.234375 0.125,0 0.25,-0.09375 0.25,-0.234375 V -2.171875 C 4.0625,-2.265625 4.34375,-2.65625 4.34375,-3.34375 4.34375,-3.953125 4.09375,-4.5 3.234375,-4.5 Z m -0.09375,3.296875 c -0.203125,0 -0.34375,0.15625 -0.34375,0.359375 0,0.203125 0.140625,0.359375 0.34375,0.359375 0.203125,0 0.34375,-0.15625 0.34375,-0.359375 0,-0.203125 -0.140625,-0.359375 -0.34375,-0.359375 z m 0,0"
           id="id-7c2a457f-f768-4159-9e9f-9df2cc3e5e13-3" /></g><g
         id="id-cbdc8fff-0ca5-40b0-a6c3-fd6785a6998c-5"><path
           d="M 4.03125,-5.25 H 0.484375 v 0.78125 h 2.5 L 0.25,-0.6875 V 0 H 3.953125 L 4.0625,-0.765625 H 1.28125 l 2.75,-3.796875 z m 0,0"
           id="id-d973a2bc-a0f1-46d3-be99-e1468b8100fd-6" /></g><g
         id="id-5686a47d-2053-4c4d-820f-b70b1f5df129-2"><path
           d="m 4.921875,-2.78125 c 0,-1.609375 -0.75,-2.59375 -2.171875,-2.59375 -1.359375,0 -2.1875,1.171875 -2.1875,2.796875 0,1.671875 0.859375,2.703125 2.328125,2.703125 0.734375,0 1.3125,-0.25 1.828125,-0.65625 L 4.328125,-1.09375 C 3.875,-0.765625 3.484375,-0.625 2.953125,-0.625 c -0.75,0 -1.3125,-0.46875 -1.40625,-1.6875 h 3.34375 c 0.015625,-0.125 0.03125,-0.296875 0.03125,-0.46875 z M 4,-2.984375 H 1.546875 c 0.0625,-1.171875 0.53125,-1.65625 1.21875,-1.65625 0.828125,0 1.234375,0.5625 1.234375,1.59375 z m 0,0"
           id="id-a332717d-d305-44bd-a0ed-aad2acac9b2e-9" /></g><g
         id="id-0e774e49-ecc7-4b16-9075-b05632ae91b5-1"><path
           d="m 3.203125,-5.375 c -0.640625,0 -1.125,0.40625 -1.40625,1.1875 L 1.703125,-5.25 H 0.921875 V 0 h 0.90625 v -3 c 0.21875,-1 0.609375,-1.46875 1.265625,-1.46875 0.1875,0 0.296875,0.015625 0.453125,0.046875 L 3.71875,-5.3125 C 3.5625,-5.359375 3.375,-5.375 3.203125,-5.375 Z m 0,0"
           id="id-af3d88dc-cd40-4e0c-89bc-b4785b17be2d-2" /></g><g
         id="id-b16cf8d5-1627-44bd-a3e3-091b7fd09800-7"><path
           d="m 2.921875,-5.375 c -1.5,0 -2.359375,1.125 -2.359375,2.75 0,1.671875 0.859375,2.75 2.34375,2.75 C 4.390625,0.125 5.25,-1 5.25,-2.625 c 0,-1.671875 -0.828125,-2.75 -2.328125,-2.75 z m 0,0.734375 c 0.859375,0 1.34375,0.640625 1.34375,2.015625 0,1.375 -0.484375,2 -1.359375,2 -0.875,0 -1.34375,-0.625 -1.34375,-2 0,-1.375 0.484375,-2.015625 1.359375,-2.015625 z m 0,0"
           id="id-20005495-b261-4cc2-b6b6-ed297e2db39b-0" /></g><g
         id="id-6b9ff16d-207e-4e6d-bab3-4e5b23972824-9"><path
           d="m 3.25,-0.84375 c -0.265625,0.140625 -0.46875,0.203125 -0.703125,0.203125 -0.453125,0 -0.625,-0.25 -0.625,-0.78125 v -3.125 h 1.15625 L 3.171875,-5.25 h -1.25 V -6.546875 L 1,-6.4375 V -5.25 H 0.09375 v 0.703125 H 1 V -1.375 c 0,0.96875 0.53125,1.5 1.421875,1.5 C 2.875,0.125 3.25,0 3.59375,-0.234375 Z m 0,0"
           id="id-32b60361-bbea-40ea-b977-53eb510acd35-3" /></g><g
         id="id-71869a43-d697-4ceb-a7f9-8ebf4b864781-6"><path
           d="m 3.390625,-5.375 c -0.65625,0 -1.171875,0.328125 -1.5625,0.84375 v -2.921875 l -0.90625,0.09375 V 0 h 0.90625 V -3.734375 C 2.1875,-4.28125 2.59375,-4.65625 3.15625,-4.65625 3.65625,-4.65625 4,-4.421875 4,-3.640625 V 0 H 4.921875 V -3.765625 C 4.921875,-4.75 4.34375,-5.375 3.390625,-5.375 Z m 0,0"
           id="id-1e3d112e-4560-4763-824b-0e30cffc45d8-0" /></g><g
         id="id-1e91a301-79e9-4d0c-a978-b6b3c6a52f9e-6"><path
           d="m 2.375,-5.375 c -1.09375,0 -1.890625,0.609375 -1.890625,1.453125 0,0.734375 0.4375,1.21875 1.578125,1.515625 1.015625,0.265625 1.28125,0.46875 1.28125,0.984375 0,0.5 -0.4375,0.796875 -1.125,0.796875 -0.578125,0 -1.0625,-0.1875 -1.484375,-0.5 L 0.25,-0.5625 c 0.453125,0.390625 1.09375,0.6875 1.984375,0.6875 1.0625,0 2.078125,-0.5 2.078125,-1.59375 0,-0.921875 -0.640625,-1.359375 -1.75,-1.640625 -0.84375,-0.21875 -1.125,-0.421875 -1.125,-0.84375 0,-0.421875 0.359375,-0.6875 0.96875,-0.6875 0.484375,0 0.890625,0.140625 1.359375,0.4375 L 4.15625,-4.78125 C 3.65625,-5.15625 3.109375,-5.375 2.375,-5.375 Z m 0,0"
           id="id-53a9d073-0486-42ca-ac9a-a430e0ddfb98-2" /></g><g
         id="id-0db217cc-3c59-4772-870f-536584d3a0e2-6"><path
           d="m 1.359375,-7.78125 c -0.375,0 -0.625,0.28125 -0.625,0.640625 0,0.34375 0.25,0.609375 0.625,0.609375 0.390625,0 0.65625,-0.265625 0.65625,-0.609375 C 2.015625,-7.5 1.75,-7.78125 1.359375,-7.78125 Z M 1.828125,-5.25 H 0.921875 V 0 h 0.90625 z m 0,0"
           id="id-87b2e3dc-de9a-40b7-8807-e8766aeb7488-1" /></g></g><inkscape:path-effect
       effect="spiro"
       id="path-effect97007-1"
       is_visible="true"
       lpeversion="1" /><inkscape:path-effect
       effect="spiro"
       id="path-effect97285-2"
       is_visible="true"
       lpeversion="1" /><clipPath
       id="clip-0"><path
         clip-rule="nonzero"
         d="m 355,64 h 203.05469 v 4 H 355 Z m 0,0"
         id="path4083" /></clipPath><clipPath
       id="clip-1"><path
         clip-rule="nonzero"
         d="m 405,88 h 114 v 61.89453 H 405 Z m 0,0"
         id="path4086" /></clipPath><clipPath
       id="clip-2"><path
         clip-rule="nonzero"
         d="m 547,8 h 11.05469 V 23 H 547 Z m 0,0"
         id="path4089" /></clipPath><clipPath
       id="clip-3"><path
         clip-rule="nonzero"
         d="m 25,133 h 11 v 16.89453 H 25 Z m 0,0"
         id="path4092" /></clipPath><clipPath
       id="clip-4"><path
         clip-rule="nonzero"
         d="m 73,133 h 11 v 16.89453 H 73 Z m 0,0"
         id="path4095" /></clipPath><marker
       style="overflow:visible"
       id="Arrow2Mend-7"
       refX="0"
       refY="0"
       orient="auto"
       inkscape:stockid="Arrow2Mend"
       inkscape:isstock="true"><path
         transform="scale(-0.6)"
         d="M 8.7185878,4.0337352 -2.2072895,0.01601326 8.7185884,-4.0017078 c -1.7454984,2.3720609 -1.7354408,5.6174519 -6e-7,8.035443 z"
         style="fill:context-stroke;fill-rule:evenodd;stroke:context-stroke;stroke-width:0.625;stroke-linejoin:round"
         id="path9370-5" /></marker><inkscape:path-effect
       effect="spiro"
       id="path-effect8371-3"
       is_visible="true"
       lpeversion="1" /></defs><path
     fill-rule="nonzero"
     fill="#304070"
     fill-opacity="1"
     d="m 383.0039,47.894664 c 0,26.454322 -21.44375,47.894663 -47.89467,47.894663 -26.45432,0 -47.89467,-21.440341 -47.89467,-47.894663 C 287.21456,21.443747 308.65491,0 335.10923,0 361.56015,0 383.0039,21.443747 383.0039,47.894664 Z m 0,0"
     id="path4102-6"
     style="fill:#1f6096;fill-opacity:1;stroke-width:0.870812" /><path
     fill-rule="nonzero"
     fill="#307070"
     fill-opacity="1"
     d="m 107.6174,47.712647 c 0,25.220037 -20.44911,45.66591 -45.6659,45.66591 -25.22004,0 -45.665911,-20.445873 -45.665911,-45.66591 0,-25.216791 20.445871,-45.6659099 45.665911,-45.6659099 25.21679,0 45.6659,20.4491189 45.6659,45.6659099 z m 0,0"
     id="path4100-3"
     style="fill:#cc5037;fill-opacity:1;stroke-width:0.830289" /><path
     style="fill:none;fill-opacity:1;stroke:#ffffff;stroke-width:4.252;stroke-miterlimit:4.5;stroke-dasharray:none;stroke-dashoffset:0;stroke-opacity:1;marker-end:url(#EmptyTriangleIn)"
     d="M 310.98064,86.020384 V 57.091492"
     id="path97005"
     inkscape:path-effect="#path-effect97007"
     inkscape:original-d="m 310.98064,86.020384 c 7.5e-4,-9.643715 7.5e-4,-19.286675 0,-28.928892" /><path
     style="fill:none;fill-opacity:1;stroke:#ffffff;stroke-width:4.252;stroke-miterlimit:4.5;stroke-dasharray:none;stroke-dashoffset:0;stroke-opacity:1;marker-end:url(#EmptyTriangleIn)"
     d="M 358.98064,36.324248 V 65.253142"
     id="path97281"
     inkscape:path-effect="#path-effect97285"
     inkscape:original-d="m 358.98064,36.324248 c 7.5e-4,9.643717 7.5e-4,19.286677 0,28.928894" /><path
     style="fill:none;fill-opacity:1;stroke:#ffffff;stroke-width:4.252;stroke-miterlimit:4.5;stroke-dasharray:none;stroke-dashoffset:0;stroke-opacity:1;marker-end:url(#RoundedArrow)"
     d="M 41.49408,64.450227 V 35.521331"
     id="path97005-9"
     inkscape:path-effect="#path-effect97007-1"
     inkscape:original-d="m 41.49408,64.450227 c 7.5e-4,-9.643719 7.5e-4,-19.286679 0,-28.928896" /><path
     style="fill:none;fill-opacity:1;stroke:#ffffff;stroke-width:4.252;stroke-miterlimit:4.5;stroke-dasharray:none;stroke-dashoffset:0;stroke-opacity:1;marker-end:url(#RoundedArrow)"
     d="M 77.49408,32.754087 V 61.682981"
     id="path97281-3"
     inkscape:path-effect="#path-effect97285-2"
     inkscape:original-d="m 77.49408,32.754087 c 7.5e-4,9.643717 7.5e-4,19.286678 0,28.928894" /><path
     style="fill:none;stroke:#404040;stroke-width:5;stroke-dasharray:none;stroke-opacity:1;marker-start:url(#Dot);marker-end:url(#marker15558)"
     d="m 122.72624,49.683737 146.184,-0.962083"
     id="path15814"
     inkscape:path-effect="#path-effect15818"
     inkscape:original-d="m 122.72624,49.683737 c 48.72874,-0.319944 97.45675,-0.640639 146.184,-0.962083" /><g
     ns16:version="1.8.1"
     ns16:texconverter="xelatex"
     ns16:pdfconverter="inkscape"
     ns16:text="$\\tilde J \\vec S_d \\cdot \\vec S_0$"
     ns16:preamble="/home/kirito/.config/textext/beamer_preamble.tex"
     ns16:scale="4.0"
     ns16:alignment="middle center"
     ns16:stroke-to-path="0"
     ns16:inkscapeversion="1.2.1"
     transform="matrix(3 0 0 3 155.194 0.917156)"
     ns16:jacobian_sqrt="3.0"
     id="g5285"><defs
   id="id-9a5f80c4-db7b-45c5-a889-6c3d8baf15f5">
    <g
   id="id-93101e67-1018-4442-99b9-693c32416fbc">
      <g
   id="id-ce7c5702-6754-4adc-bf1d-a4bcf8935a3c">
        <path
   d="m 5.4375,-6.4375 v 5.890625 H 1.34375 V -6.4375 Z m 0.546875,-0.546875 h -5.1875 V 0 h 5.1875 z m -2.75,4.953125 c -0.21875,0 -0.40625,0.1875 -0.40625,0.421875 0,0.21875 0.1875,0.40625 0.40625,0.40625 0.25,0 0.421875,-0.1875 0.421875,-0.40625 0,-0.234375 -0.171875,-0.421875 -0.421875,-0.421875 z M 3.4375,-5.453125 c -0.5,0 -0.90625,0.1875 -1.25,0.59375 l 0.390625,0.28125 C 2.828125,-4.875 3.09375,-5 3.40625,-5 3.765625,-5 4,-4.8125 4,-4.484375 4,-3.84375 2.953125,-3.953125 2.953125,-2.9375 v 0.296875 H 3.5 V -2.90625 c 0,-0.796875 1.078125,-0.65625 1.078125,-1.625 0,-0.46875 -0.375,-0.921875 -1.140625,-0.921875 z m 0,0"
   id="id-b107ad4f-8f86-44a4-a28f-ca8c1fb5336a" />
      </g>
      <g
   id="id-287f68e3-95e0-4e63-9ea1-9614f2fce8aa">
        <path
   d="m -1.390625,-6.546875 c 0.453125,0 0.828125,-0.28125 1.09375,-0.84375 l -0.5625,-0.28125 c -0.171875,0.296875 -0.328125,0.4375 -0.53125,0.4375 -0.359375,0 -0.59375,-0.484375 -1.15625,-0.484375 -0.5,0 -0.859375,0.390625 -1.078125,0.875 l 0.546875,0.28125 c 0.171875,-0.296875 0.3125,-0.453125 0.53125,-0.453125 0.359375,0 0.640625,0.46875 1.15625,0.46875 z m 0,0"
   id="id-60cada22-8d62-4688-92e5-751a59b734c3" />
      </g>
      <g
   id="id-3c66e6a1-dca5-418c-94a9-510b8d60417c">
        <path
   d="M 2.65625,-6.875 H 1.71875 L 0.890625,-1.03125 C 0.765625,-0.109375 0.5,0.3125 -0.453125,0.671875 L -0.265625,1.375 C 0.875,1.03125 1.609375,0.515625 1.8125,-0.921875 Z m 0,0"
   id="id-d1f96da1-d8b3-4404-af51-dd3f781ba5e3" />
      </g>
      <g
   id="id-b7fbd83b-8e76-4c32-ab4a-70fab3e77a6a">
        <path
   d="m -1.421875,-8.203125 -0.375,0.34375 0.5,0.546875 h -2.59375 v 0.609375 h 2.59375 l -0.5,0.546875 0.375,0.34375 1.125,-1.1875 z m 0,0"
   id="id-e9242b29-1aac-4fdc-b47c-3c56e186510f" />
      </g>
      <g
   id="id-4f7987fb-28f4-4fe7-bfc4-3b9e7362143e">
        <path
   d="m 3.234375,-6.984375 c -1.546875,0 -2.359375,1.03125 -2.359375,1.9375 0,0.984375 0.625,1.40625 1.78125,1.8125 0.953125,0.328125 1.265625,0.609375 1.265625,1.203125 0,0.84375 -0.671875,1.375 -1.6875,1.375 C 1.5,-0.65625 1,-0.90625 0.59375,-1.359375 l -0.609375,0.5625 c 0.5,0.5625 1.21875,0.921875 2.234375,0.921875 1.875,0 2.6875,-1.15625 2.6875,-2.203125 0,-1.1875 -0.84375,-1.59375 -1.796875,-1.890625 -1,-0.34375 -1.28125,-0.609375 -1.28125,-1.125 0,-0.71875 0.625,-1.109375 1.40625,-1.109375 0.546875,0 1,0.15625 1.4375,0.59375 L 5.25,-6.15625 C 4.75,-6.6875 4.125,-6.984375 3.234375,-6.984375 Z m 0,0"
   id="id-4b063891-75fc-4536-bda9-a53ce0aef0eb" />
      </g>
      <g
   id="id-566583c9-e324-42a3-96b5-8b69f1669ded">
        <path
   d="m 1.1875,-3.484375 c -0.390625,0 -0.6875,0.3125 -0.6875,0.6875 0,0.390625 0.296875,0.703125 0.6875,0.703125 0.390625,0 0.703125,-0.3125 0.703125,-0.703125 0,-0.375 -0.3125,-0.6875 -0.703125,-0.6875 z m 0,0"
   id="id-11d01810-3f1a-4c7a-9ef7-460deb1f1b01" />
      </g>
      <g
   id="id-e837eff2-e89a-4424-b5a5-d4cff00122a6">
        <path
   d="m 3.90625,-4.625 v 4.234375 H 0.96875 V -4.625 Z M 4.296875,-5.015625 H 0.578125 V 0 h 3.71875 z m -1.96875,3.5625 c -0.15625,0 -0.296875,0.125 -0.296875,0.296875 0,0.15625 0.140625,0.296875 0.296875,0.296875 C 2.5,-0.859375 2.625,-1 2.625,-1.15625 2.625,-1.328125 2.5,-1.453125 2.328125,-1.453125 Z m 0.140625,-2.46875 c -0.359375,0 -0.640625,0.140625 -0.890625,0.421875 L 1.84375,-3.296875 C 2.03125,-3.5 2.234375,-3.59375 2.453125,-3.59375 c 0.265625,0 0.4375,0.125 0.4375,0.359375 0,0.46875 -0.765625,0.390625 -0.765625,1.125 v 0.203125 h 0.390625 v -0.1875 c 0,-0.5625 0.78125,-0.46875 0.78125,-1.15625 0,-0.34375 -0.28125,-0.671875 -0.828125,-0.671875 z m 0,0"
   id="id-accf782b-60b5-4064-bf29-2d37287869c1" />
      </g>
      <g
   id="id-34a6f1b4-3c61-4e28-af27-2d9326fc1ee1">
        <path
   d="m 2.25,-3.34375 c 0.34375,0 0.578125,0.171875 0.78125,0.453125 L 2.796875,-1.3125 c -0.328125,0.53125 -0.640625,0.875 -1.109375,0.875 -0.390625,0 -0.625,-0.28125 -0.625,-0.921875 0,-0.75 0.265625,-1.984375 1.1875,-1.984375 z m 1.125,-2.015625 -0.28125,1.96875 C 2.890625,-3.65625 2.5625,-3.859375 2.125,-3.859375 c -1.296875,0 -1.765625,1.46875 -1.765625,2.453125 0,0.90625 0.421875,1.5 1.203125,1.5 0.484375,0 0.875,-0.28125 1.140625,-0.71875 V 0 h 0.5625 l 0.75,-5.296875 z m 0,0"
   id="id-146977a7-0830-4b5f-bfd5-5bcbfa6185ea" />
      </g>
      <g
   id="id-ca19f1a8-af66-41b1-b449-651f93cbeecc">
        <path
   d="m 2.015625,-4.5 c 0.59375,0 0.90625,0.546875 0.90625,2.03125 0,1.484375 -0.3125,2.03125 -0.90625,2.03125 -0.609375,0 -0.921875,-0.546875 -0.921875,-2.03125 0,-1.484375 0.3125,-2.03125 0.921875,-2.03125 z m 0,-0.53125 c -1.078125,0 -1.609375,0.890625 -1.609375,2.5625 0,1.671875 0.53125,2.5625 1.609375,2.5625 1.0625,0 1.59375,-0.890625 1.59375,-2.5625 0,-1.671875 -0.53125,-2.5625 -1.59375,-2.5625 z m 0,0"
   id="id-2dab2645-9689-49e9-9fd4-96e3124e44f6" />
      </g>
    </g>
  </defs>
  <g
   fill="#000000"
   fill-opacity="1"
   id="id-5b58bb8c-c42f-4c46-af86-0dc0060f5c33"
   transform="translate(-148.259,-124.828)">
    <g
   transform="translate(153.056,133.151)"
   id="g55818"><path
   d="m -1.390625,-6.546875 c 0.453125,0 0.828125,-0.28125 1.09375,-0.84375 l -0.5625,-0.28125 c -0.171875,0.296875 -0.328125,0.4375 -0.53125,0.4375 -0.359375,0 -0.59375,-0.484375 -1.15625,-0.484375 -0.5,0 -0.859375,0.390625 -1.078125,0.875 l 0.546875,0.28125 c 0.171875,-0.296875 0.3125,-0.453125 0.53125,-0.453125 0.359375,0 0.640625,0.46875 1.15625,0.46875 z m 0,0"
   id="id-3da8ac34-aa40-43af-b8a4-35eb28f0da9a" />
      </g></g>
  <g
   fill="#000000"
   fill-opacity="1"
   id="id-1d1c087a-11e9-4ba4-b070-003d97951557"
   transform="translate(-148.259,-124.828)">
    <g
   transform="translate(148.712,134.765)"
   id="g55822"><path
   d="M 2.65625,-6.875 H 1.71875 L 0.890625,-1.03125 C 0.765625,-0.109375 0.5,0.3125 -0.453125,0.671875 L -0.265625,1.375 C 0.875,1.03125 1.609375,0.515625 1.8125,-0.921875 Z m 0,0"
   id="id-9d62d4db-4ed8-4465-9020-818b3be97f45" />
      </g></g>
  <g
   fill="#000000"
   fill-opacity="1"
   id="id-98b7dada-53ef-4409-b63b-fd457ddb7dcc"
   transform="translate(-148.259,-124.828)">
    <g
   transform="translate(157.37,133.031)"
   id="g55826"><path
   d="m -1.421875,-8.203125 -0.375,0.34375 0.5,0.546875 h -2.59375 v 0.609375 h 2.59375 l -0.5,0.546875 0.375,0.34375 1.125,-1.1875 z m 0,0"
   id="id-16848e28-676b-44b2-bce5-3b8ccbb52f9e" />
      </g></g>
  <g
   fill="#000000"
   fill-opacity="1"
   id="id-b79627d8-e105-4e57-99ac-86948f624f4a"
   transform="translate(-148.259,-124.828)">
    <g
   transform="translate(151.9,134.765)"
   id="g55830"><path
   d="m 3.234375,-6.984375 c -1.546875,0 -2.359375,1.03125 -2.359375,1.9375 0,0.984375 0.625,1.40625 1.78125,1.8125 0.953125,0.328125 1.265625,0.609375 1.265625,1.203125 0,0.84375 -0.671875,1.375 -1.6875,1.375 C 1.5,-0.65625 1,-0.90625 0.59375,-1.359375 l -0.609375,0.5625 c 0.5,0.5625 1.21875,0.921875 2.234375,0.921875 1.875,0 2.6875,-1.15625 2.6875,-2.203125 0,-1.1875 -0.84375,-1.59375 -1.796875,-1.890625 -1,-0.34375 -1.28125,-0.609375 -1.28125,-1.125 0,-0.71875 0.625,-1.109375 1.40625,-1.109375 0.546875,0 1,0.15625 1.4375,0.59375 L 5.25,-6.15625 C 4.75,-6.6875 4.125,-6.984375 3.234375,-6.984375 Z m 0,0"
   id="id-2d07036b-fa53-4091-92c7-091691691c23" />
      </g></g>
  <g
   fill="#000000"
   fill-opacity="1"
   id="id-754b33ab-1bab-4d57-94a3-424cdd7d42ef"
   transform="translate(-148.259,-124.828)">
    <g
   transform="translate(157.27,138.252)"
   id="g55834"><path
   d="m 2.25,-3.34375 c 0.34375,0 0.578125,0.171875 0.78125,0.453125 L 2.796875,-1.3125 c -0.328125,0.53125 -0.640625,0.875 -1.109375,0.875 -0.390625,0 -0.625,-0.28125 -0.625,-0.921875 0,-0.75 0.265625,-1.984375 1.1875,-1.984375 z m 1.125,-2.015625 -0.28125,1.96875 C 2.890625,-3.65625 2.5625,-3.859375 2.125,-3.859375 c -1.296875,0 -1.765625,1.46875 -1.765625,2.453125 0,0.90625 0.421875,1.5 1.203125,1.5 0.484375,0 0.875,-0.28125 1.140625,-0.71875 V 0 h 0.5625 l 0.75,-5.296875 z m 0,0"
   id="id-3a259376-c067-4c83-9d2a-87913eec5619" />
      </g></g>
  <g
   fill="#000000"
   fill-opacity="1"
   id="id-581cf82f-149a-4888-8857-fbfd7c375cb7"
   transform="translate(-148.259,-124.828)">
    <g
   transform="translate(164.552,134.765)"
   id="g55838"><path
   d="m 1.1875,-3.484375 c -0.390625,0 -0.6875,0.3125 -0.6875,0.6875 0,0.390625 0.296875,0.703125 0.6875,0.703125 0.390625,0 0.703125,-0.3125 0.703125,-0.703125 0,-0.375 -0.3125,-0.6875 -0.703125,-0.6875 z m 0,0"
   id="id-3b491341-9129-4258-b701-215f4e7a65f2" />
      </g></g>
  <g
   fill="#000000"
   fill-opacity="1"
   id="id-ef50dbd5-691b-472b-b11c-86a9afe6f5ff"
   transform="translate(-148.259,-124.828)">
    <g
   transform="translate(174.616,133.031)"
   id="g55842"><path
   d="m -1.421875,-8.203125 -0.375,0.34375 0.5,0.546875 h -2.59375 v 0.609375 h 2.59375 l -0.5,0.546875 0.375,0.34375 1.125,-1.1875 z m 0,0"
   id="id-77a09bbf-f17e-42e1-9a85-7694ee3a3a78" />
      </g></g>
  <g
   fill="#000000"
   fill-opacity="1"
   id="id-90ae26fc-41d9-45bc-93af-40c1c869cd19"
   transform="translate(-148.259,-124.828)">
    <g
   transform="translate(169.147,134.765)"
   id="g55846"><path
   d="m 3.234375,-6.984375 c -1.546875,0 -2.359375,1.03125 -2.359375,1.9375 0,0.984375 0.625,1.40625 1.78125,1.8125 0.953125,0.328125 1.265625,0.609375 1.265625,1.203125 0,0.84375 -0.671875,1.375 -1.6875,1.375 C 1.5,-0.65625 1,-0.90625 0.59375,-1.359375 l -0.609375,0.5625 c 0.5,0.5625 1.21875,0.921875 2.234375,0.921875 1.875,0 2.6875,-1.15625 2.6875,-2.203125 0,-1.1875 -0.84375,-1.59375 -1.796875,-1.890625 -1,-0.34375 -1.28125,-0.609375 -1.28125,-1.125 0,-0.71875 0.625,-1.109375 1.40625,-1.109375 0.546875,0 1,0.15625 1.4375,0.59375 L 5.25,-6.15625 C 4.75,-6.6875 4.125,-6.984375 3.234375,-6.984375 Z m 0,0"
   id="id-b11d3861-7ff5-4e12-8a02-be4b3d5ca7da" />
      </g></g>
  <g
   fill="#000000"
   fill-opacity="1"
   id="id-3997a31e-cdca-4ef9-8fd2-dd9b96832a39"
   transform="translate(-148.259,-124.828)">
    <g
   transform="translate(174.517,138.252)"
   id="g55850"><path
   d="m 2.015625,-4.5 c 0.59375,0 0.90625,0.546875 0.90625,2.03125 0,1.484375 -0.3125,2.03125 -0.90625,2.03125 -0.609375,0 -0.921875,-0.546875 -0.921875,-2.03125 0,-1.484375 0.3125,-2.03125 0.921875,-2.03125 z m 0,-0.53125 c -1.078125,0 -1.609375,0.890625 -1.609375,2.5625 0,1.671875 0.53125,2.5625 1.609375,2.5625 1.0625,0 1.59375,-0.890625 1.59375,-2.5625 0,-1.671875 -0.53125,-2.5625 -1.59375,-2.5625 z m 0,0"
   id="id-a787c3e8-56ed-4d7e-ac38-b22ecca5cdc5" />
      </g></g>
</g><g
     ns16:version="1.8.1"
     ns16:texconverter="xelatex"
     ns16:pdfconverter="inkscape"
     ns16:text="$\\tilde U_b$"
     ns16:preamble="/home/kirito/.config/textext/beamer_preamble.tex"
     ns16:scale="4.0"
     ns16:alignment="middle center"
     ns16:stroke-to-path="0"
     ns16:inkscapeversion="1.2.1"
     transform="matrix(4,0,0,4,316.8545,3.6416555)"
     ns16:jacobian_sqrt="4.0"
     style="fill:#ffffff;fill-opacity:1;stroke-width:0"
     id="g34217"><defs
   id="id-c30a5563-51c6-47d6-8164-72a12e054a1a"
   style="fill:#ffffff;fill-opacity:1;stroke-width:0">
    <g
   id="id-eee0f2d5-65da-458a-ae16-8f306691cafe"
   style="fill:#ffffff;fill-opacity:1;stroke-width:0">
      <g
   id="id-e4df3f3e-3901-450b-b43c-1b2182358b1a"
   style="fill:#ffffff;fill-opacity:1;stroke-width:0">
        <path
   d="m 5.4375,-6.4375 v 5.890625 H 1.34375 V -6.4375 Z m 0.546875,-0.546875 h -5.1875 V 0 h 5.1875 z m -2.75,4.953125 c -0.21875,0 -0.40625,0.1875 -0.40625,0.421875 0,0.21875 0.1875,0.40625 0.40625,0.40625 0.25,0 0.421875,-0.1875 0.421875,-0.40625 0,-0.234375 -0.171875,-0.421875 -0.421875,-0.421875 z M 3.4375,-5.453125 c -0.5,0 -0.90625,0.1875 -1.25,0.59375 l 0.390625,0.28125 C 2.828125,-4.875 3.09375,-5 3.40625,-5 3.765625,-5 4,-4.8125 4,-4.484375 4,-3.84375 2.953125,-3.953125 2.953125,-2.9375 v 0.296875 H 3.5 V -2.90625 c 0,-0.796875 1.078125,-0.65625 1.078125,-1.625 0,-0.46875 -0.375,-0.921875 -1.140625,-0.921875 z m 0,0"
   id="id-dee03223-c7f0-4b02-b2a8-118574442ad8"
   style="fill:#ffffff;fill-opacity:1;stroke-width:0" />
      </g>
      <g
   id="id-9c447158-f42d-4fb0-8c1f-9e628488e710"
   style="fill:#ffffff;fill-opacity:1;stroke-width:0">
        <path
   d="m -1.390625,-6.546875 c 0.453125,0 0.828125,-0.28125 1.09375,-0.84375 l -0.5625,-0.28125 c -0.171875,0.296875 -0.328125,0.4375 -0.53125,0.4375 -0.359375,0 -0.59375,-0.484375 -1.15625,-0.484375 -0.5,0 -0.859375,0.390625 -1.078125,0.875 l 0.546875,0.28125 c 0.171875,-0.296875 0.3125,-0.453125 0.53125,-0.453125 0.359375,0 0.640625,0.46875 1.15625,0.46875 z m 0,0"
   id="id-64064f83-8829-48f2-b04b-6f7908f8e248"
   style="fill:#ffffff;fill-opacity:1;stroke-width:0" />
      </g>
      <g
   id="id-0f23f25f-8743-46c3-bad4-f14a1cc03e6d"
   style="fill:#ffffff;fill-opacity:1;stroke-width:0">
        <path
   d="M 6.25,-6.875 H 5.3125 l -0.640625,4.578125 c -0.15625,1.0625 -0.71875,1.625 -1.71875,1.625 C 2,-0.671875 1.625,-1.171875 1.78125,-2.25 l 0.640625,-4.625 h -0.9375 l -0.65625,4.640625 C 0.640625,-0.875 1.34375,0.125 2.90625,0.125 c 1.515625,0 2.5,-0.9375 2.6875,-2.296875 z m 0,0"
   id="id-e6eb0530-0f5b-4617-a369-5b0141cc03ba"
   style="fill:#ffffff;fill-opacity:1;stroke-width:0" />
      </g>
      <g
   id="id-fca9a1ad-1fd5-4c94-a5df-b6cbdc2c0520"
   style="fill:#ffffff;fill-opacity:1;stroke-width:0">
        <path
   d="m 3.90625,-4.625 v 4.234375 H 0.96875 V -4.625 Z M 4.296875,-5.015625 H 0.578125 V 0 h 3.71875 z m -1.96875,3.5625 c -0.15625,0 -0.296875,0.125 -0.296875,0.296875 0,0.15625 0.140625,0.296875 0.296875,0.296875 C 2.5,-0.859375 2.625,-1 2.625,-1.15625 2.625,-1.328125 2.5,-1.453125 2.328125,-1.453125 Z m 0.140625,-2.46875 c -0.359375,0 -0.640625,0.140625 -0.890625,0.421875 L 1.84375,-3.296875 C 2.03125,-3.5 2.234375,-3.59375 2.453125,-3.59375 c 0.265625,0 0.4375,0.125 0.4375,0.359375 0,0.46875 -0.765625,0.390625 -0.765625,1.125 v 0.203125 h 0.390625 v -0.1875 c 0,-0.5625 0.78125,-0.46875 0.78125,-1.15625 0,-0.34375 -0.28125,-0.671875 -0.828125,-0.671875 z m 0,0"
   id="id-5e1ca5a7-d8c9-4193-babd-2c8c338f687c"
   style="fill:#ffffff;fill-opacity:1;stroke-width:0" />
      </g>
      <g
   id="id-b77e5ebd-aefa-412c-a372-cd41904967e0"
   style="fill:#ffffff;fill-opacity:1;stroke-width:0">
        <path
   d="m 2.453125,-3.34375 c 0.375,0 0.65625,0.234375 0.65625,0.90625 0,0.859375 -0.359375,2 -1.296875,2 -0.265625,0 -0.421875,-0.03125 -0.671875,-0.109375 l 0.3125,-2.25 c 0.28125,-0.28125 0.578125,-0.546875 1,-0.546875 z M 2.625,-3.859375 c -0.40625,0 -0.75,0.15625 -1.078125,0.453125 L 1.8125,-5.375 1.15625,-5.296875 0.4375,-0.171875 C 0.96875,0.015625 1.328125,0.09375 1.765625,0.09375 3.25,0.09375 3.78125,-1.3125 3.78125,-2.375 c 0,-0.953125 -0.453125,-1.484375 -1.15625,-1.484375 z m 0,0"
   id="id-6cf93d7c-60fb-4ee6-9fa5-0dae67d839e7"
   style="fill:#ffffff;fill-opacity:1;stroke-width:0" />
      </g>
    </g>
  </defs>
  <g
   fill-opacity="1"
   id="id-3111026b-5778-4d43-b644-518b5ce33b6e"
   transform="translate(-149.51,-125.432)"
   style="fill:#ffffff;fill-opacity:1;stroke-width:0">
    <g
   transform="translate(154.54,133.151)"
   style="fill:#ffffff;fill-opacity:1;stroke-width:0"
   id="g1952"><path
   d="m -1.390625,-6.546875 c 0.453125,0 0.828125,-0.28125 1.09375,-0.84375 l -0.5625,-0.28125 c -0.171875,0.296875 -0.328125,0.4375 -0.53125,0.4375 -0.359375,0 -0.59375,-0.484375 -1.15625,-0.484375 -0.5,0 -0.859375,0.390625 -1.078125,0.875 l 0.546875,0.28125 c 0.171875,-0.296875 0.3125,-0.453125 0.53125,-0.453125 0.359375,0 0.640625,0.46875 1.15625,0.46875 z m 0,0"
   id="id-32b18efe-0018-402b-8162-7bb9cc97a473"
   style="fill:#ffffff;fill-opacity:1;stroke-width:0" />
      </g></g>
  <g
   fill-opacity="1"
   id="id-6427f523-43ab-44f1-9fed-877adbd2de41"
   transform="translate(-149.51,-125.432)"
   style="fill:#ffffff;fill-opacity:1;stroke-width:0">
    <g
   transform="translate(148.712,134.765)"
   style="fill:#ffffff;fill-opacity:1;stroke-width:0"
   id="g1956"><path
   d="M 6.25,-6.875 H 5.3125 l -0.640625,4.578125 c -0.15625,1.0625 -0.71875,1.625 -1.71875,1.625 C 2,-0.671875 1.625,-1.171875 1.78125,-2.25 l 0.640625,-4.625 h -0.9375 l -0.65625,4.640625 C 0.640625,-0.875 1.34375,0.125 2.90625,0.125 c 1.515625,0 2.5,-0.9375 2.6875,-2.296875 z m 0,0"
   id="id-88e93c94-ac29-41d0-91ee-d39e3fc2fb19"
   style="fill:#ffffff;fill-opacity:1;stroke-width:0" />
      </g></g>
  <g
   fill-opacity="1"
   id="id-e95d031e-0e9c-4210-b037-b6e28361eb26"
   transform="translate(-149.51,-125.432)"
   style="fill:#ffffff;fill-opacity:1;stroke-width:0">
    <g
   transform="translate(155.248,138.252)"
   style="fill:#ffffff;fill-opacity:1;stroke-width:0"
   id="g1960"><path
   d="m 2.453125,-3.34375 c 0.375,0 0.65625,0.234375 0.65625,0.90625 0,0.859375 -0.359375,2 -1.296875,2 -0.265625,0 -0.421875,-0.03125 -0.671875,-0.109375 l 0.3125,-2.25 c 0.28125,-0.28125 0.578125,-0.546875 1,-0.546875 z M 2.625,-3.859375 c -0.40625,0 -0.75,0.15625 -1.078125,0.453125 L 1.8125,-5.375 1.15625,-5.296875 0.4375,-0.171875 C 0.96875,0.015625 1.328125,0.09375 1.765625,0.09375 3.25,0.09375 3.78125,-1.3125 3.78125,-2.375 c 0,-0.953125 -0.453125,-1.484375 -1.15625,-1.484375 z m 0,0"
   id="id-acc19501-de6c-4939-9fea-610ac87dac4b"
   style="fill:#ffffff;fill-opacity:1;stroke-width:0" />
      </g></g>
</g><g
     ns16:version="1.8.1"
     ns16:texconverter="xelatex"
     ns16:pdfconverter="inkscape"
     ns16:text="impurity site"
     ns16:preamble="/home/kirito/.config/textext/beamer_preamble.tex"
     ns16:scale="3.0"
     ns16:alignment="middle center"
     ns16:stroke-to-path="0"
     ns16:inkscapeversion="1.2.1"
     transform="matrix(2.25,0,0,2.25,8.4375e-4,96.37912)"
     ns16:jacobian_sqrt="2.25"
     id="g6237"><defs
   id="id-b47e9fa8-a62a-4bfd-abeb-6d96bb491ec7">
    <g
   id="id-ee3d47a6-aadd-4a1c-b9c7-9d3ddb0400fc">
      <g
   id="id-1f47be15-2126-4a0d-bc05-5d06cfc1dcfe">
        <path
   d="M 5.40625,-10.46875 V 3.484375 H 1.21875 V -10.46875 Z M 4.875,-9.953125 H 1.78125 V 2.96875 H 4.875 Z M 3.234375,-4.5 c 0.394531,0 0.675781,0.109375 0.84375,0.328125 0.175781,0.210937 0.265625,0.484375 0.265625,0.828125 0,0.34375 -0.078125,0.617188 -0.234375,0.8125 -0.148437,0.1875 -0.386719,0.308594 -0.71875,0.359375 v 0.453125 c 0,0.074219 -0.027344,0.132812 -0.078125,0.171875 -0.054688,0.042969 -0.109375,0.0625 -0.171875,0.0625 -0.0625,0 -0.121094,-0.019531 -0.171875,-0.0625 C 2.914062,-1.585938 2.890625,-1.644531 2.890625,-1.71875 V -2.5625 c 0.351563,-0.019531 0.59375,-0.082031 0.71875,-0.1875 0.125,-0.113281 0.1875,-0.304688 0.1875,-0.578125 0,-0.21875 -0.046875,-0.382813 -0.140625,-0.5 -0.085938,-0.125 -0.242188,-0.1875 -0.46875,-0.1875 -0.1875,0 -0.359375,0.039063 -0.515625,0.109375 -0.054687,0.023438 -0.09375,0.03125 -0.125,0.03125 -0.074219,0 -0.136719,-0.019531 -0.1875,-0.0625 -0.042969,-0.039062 -0.0625,-0.097656 -0.0625,-0.171875 0,-0.125 0.097656,-0.21875 0.296875,-0.28125 C 2.789062,-4.460938 3.003906,-4.5 3.234375,-4.5 Z m -0.09375,3.296875 c 0.101563,0 0.1875,0.039063 0.25,0.109375 0.0625,0.0625 0.09375,0.148438 0.09375,0.25 0,0.105469 -0.03125,0.195312 -0.09375,0.265625 -0.0625,0.0625 -0.148437,0.09375 -0.25,0.09375 -0.105469,0 -0.1875,-0.03125 -0.25,-0.09375 -0.0625,-0.070313 -0.09375,-0.160156 -0.09375,-0.265625 0,-0.101562 0.03125,-0.1875 0.09375,-0.25 0.0625,-0.070312 0.144531,-0.109375 0.25,-0.109375 z m 0,0"
   id="id-67d077ae-63c3-4181-bf31-d9c6150d4d5f" />
      </g>
      <g
   id="id-a491349a-9a2d-4d7e-83cb-587b465427f6">
        <path
   d="M 1.859375,-5.25 V 0 h -0.90625 v -5.25 z m -0.46875,-2.53125 c 0.195313,0 0.351563,0.0625 0.46875,0.1875 0.125,0.117188 0.1875,0.265625 0.1875,0.453125 0,0.179687 -0.0625,0.324219 -0.1875,0.4375 -0.117187,0.117187 -0.273437,0.171875 -0.46875,0.171875 -0.179687,0 -0.328125,-0.054688 -0.453125,-0.171875 -0.117188,-0.113281 -0.171875,-0.257813 -0.171875,-0.4375 0,-0.1875 0.054687,-0.335937 0.171875,-0.453125 0.125,-0.125 0.273438,-0.1875 0.453125,-0.1875 z m 0,0"
   id="id-91342935-e5a7-4ab1-a652-1e61eaaa5599" />
      </g>
      <g
   id="id-66186a51-df12-4ce1-bc3b-333a211a41a0">
        <path
   d="m 6.21875,-5.375 c 0.4375,0 0.78125,0.148438 1.03125,0.4375 0.257812,0.292969 0.390625,0.683594 0.390625,1.171875 V 0 h -0.90625 v -3.640625 c 0,-0.675781 -0.25,-1.015625 -0.75,-1.015625 -0.25,0 -0.46875,0.078125 -0.65625,0.234375 -0.179687,0.148437 -0.371094,0.375 -0.578125,0.6875 V 0 H 3.84375 v -3.640625 c 0,-0.675781 -0.25,-1.015625 -0.75,-1.015625 -0.261719,0 -0.484375,0.078125 -0.671875,0.234375 -0.179687,0.148437 -0.367187,0.375 -0.5625,0.6875 V 0 h -0.90625 v -5.25 h 0.78125 L 1.8125,-4.484375 C 2.207031,-5.078125 2.710938,-5.375 3.328125,-5.375 c 0.320313,0 0.597656,0.085938 0.828125,0.25 0.226562,0.167969 0.394531,0.402344 0.5,0.703125 0.207031,-0.3125 0.4375,-0.546875 0.6875,-0.703125 0.25,-0.164062 0.539062,-0.25 0.875,-0.25 z m 0,0"
   id="id-26beff4b-edcf-4596-a9e4-f117a2775e23" />
      </g>
      <g
   id="id-cc25ed68-d9f7-4ec5-aa72-79840a0ac69e">
        <path
   d="m 3.359375,-5.375 c 0.664063,0 1.15625,0.242188 1.46875,0.71875 0.3125,0.480469 0.46875,1.15625 0.46875,2.03125 0,0.824219 -0.179687,1.492188 -0.53125,2 -0.355469,0.5 -0.867187,0.75 -1.53125,0.75 -0.585937,0 -1.042969,-0.203125 -1.375,-0.609375 v 2.5 L 0.953125,2.125 V -5.25 h 0.78125 l 0.0625,0.703125 C 1.992188,-4.804688 2.226562,-5.007812 2.5,-5.15625 2.769531,-5.300781 3.054688,-5.375 3.359375,-5.375 Z m -0.34375,4.75 c 0.863281,0 1.296875,-0.664062 1.296875,-2 0,-1.34375 -0.398438,-2.015625 -1.1875,-2.015625 -0.261719,0 -0.496094,0.078125 -0.703125,0.234375 -0.210937,0.148438 -0.398437,0.339844 -0.5625,0.578125 v 2.5625 c 0.132813,0.210937 0.300781,0.371094 0.5,0.484375 0.195313,0.105469 0.414063,0.15625 0.65625,0.15625 z m 0,0"
   id="id-5f1df4bc-5240-431c-bab8-eaaec1ee1f83" />
      </g>
      <g
   id="id-e5b5b72f-3e8a-4de1-a26f-973b36c80748">
        <path
   d="M 4.859375,0 H 4.0625 L 4,-0.8125 C 3.800781,-0.488281 3.570312,-0.25 3.3125,-0.09375 3.050781,0.0507812 2.734375,0.125 2.359375,0.125 1.898438,0.125 1.539062,-0.015625 1.28125,-0.296875 1.019531,-0.578125 0.890625,-0.972656 0.890625,-1.484375 V -5.25 H 1.8125 v 3.671875 c 0,0.355469 0.0625,0.609375 0.1875,0.765625 0.125,0.148438 0.332031,0.21875 0.625,0.21875 0.507812,0 0.945312,-0.300781 1.3125,-0.90625 v -3.75 h 0.921875 z m 0,0"
   id="id-a277af86-e133-4535-b17b-a8fa28aad8a3" />
      </g>
      <g
   id="id-60a1f5fd-642e-4878-9829-f976bd8d0437">
        <path
   d="m 3.234375,-5.375 c 0.1875,0 0.359375,0.023438 0.515625,0.0625 L 3.578125,-4.421875 C 3.421875,-4.453125 3.269531,-4.46875 3.125,-4.46875 c -0.335938,0 -0.601562,0.121094 -0.796875,0.359375 C 2.128906,-3.878906 1.972656,-3.507812 1.859375,-3 v 3 h -0.90625 v -5.25 h 0.78125 l 0.09375,1.0625 C 1.960938,-4.582031 2.148438,-4.878906 2.390625,-5.078125 2.628906,-5.273438 2.910156,-5.375 3.234375,-5.375 Z m 0,0"
   id="id-a52eacd7-e789-4177-ae9f-609e7fe1a8db" />
      </g>
      <g
   id="id-42287622-2f87-4b60-b2bc-ed684837d224">
        <path
   d="M 3.59375,-0.234375 C 3.25,0.00390625 2.859375,0.125 2.421875,0.125 1.972656,0.125 1.625,0 1.375,-0.25 1.125,-0.507812 1,-0.882812 1,-1.375 V -4.546875 H 0.09375 V -5.25 H 1 V -6.4375 L 1.921875,-6.546875 V -5.25 h 1.25 l -0.09375,0.703125 h -1.15625 v 3.125 c 0,0.28125 0.046875,0.484375 0.140625,0.609375 0.101562,0.117188 0.265625,0.171875 0.484375,0.171875 0.207031,0 0.441406,-0.066406 0.703125,-0.203125 z m 0,0"
   id="id-17ec1956-fac1-4315-b8eb-d93bbf18f23e" />
      </g>
      <g
   id="id-f6a255ec-4276-4c15-a3cd-a11e7cab0fef">
        <path
   d="M 3.046875,0.03125 C 2.835938,0.644531 2.550781,1.128906 2.1875,1.484375 1.820312,1.835938 1.296875,2.050781 0.609375,2.125 L 0.515625,1.40625 c 0.34375,-0.0625 0.613281,-0.152344 0.8125,-0.265625 0.207031,-0.105469 0.375,-0.246094 0.5,-0.421875 C 1.953125,0.539062 2.066406,0.300781 2.171875,0 h -0.3125 L 0.09375,-5.25 h 0.984375 l 1.40625,4.578125 1.375,-4.578125 H 4.8125 Z m 0,0"
   id="id-a1fadd86-fe15-4325-ad0b-247ef47525a3" />
      </g>
      <g
   id="id-9937282a-b800-4106-a6f9-e1b3416e974f">
        <path
   d="m 2.375,-5.375 c 0.351562,0 0.671875,0.054688 0.953125,0.15625 0.289063,0.09375 0.566406,0.242188 0.828125,0.4375 L 3.765625,-4.203125 C 3.523438,-4.347656 3.296875,-4.457031 3.078125,-4.53125 2.867188,-4.601562 2.644531,-4.640625 2.40625,-4.640625 c -0.304688,0 -0.542969,0.0625 -0.71875,0.1875 -0.167969,0.117187 -0.25,0.28125 -0.25,0.5 0,0.210937 0.078125,0.375 0.234375,0.5 0.164063,0.117187 0.460937,0.230469 0.890625,0.34375 0.582031,0.148437 1.019531,0.34375 1.3125,0.59375 0.289062,0.25 0.4375,0.601563 0.4375,1.046875 0,0.511719 -0.203125,0.90625 -0.609375,1.1875 C 3.296875,-0.0078125 2.804688,0.125 2.234375,0.125 1.429688,0.125 0.769531,-0.101562 0.25,-0.5625 L 0.734375,-1.125 c 0.445313,0.335938 0.941406,0.5 1.484375,0.5 0.34375,0 0.613281,-0.066406 0.8125,-0.203125 0.207031,-0.144531 0.3125,-0.34375 0.3125,-0.59375 0,-0.175781 -0.039062,-0.316406 -0.109375,-0.421875 C 3.160156,-1.957031 3.03125,-2.054688 2.84375,-2.140625 2.664062,-2.222656 2.40625,-2.3125 2.0625,-2.40625 1.5,-2.550781 1.09375,-2.742188 0.84375,-2.984375 c -0.242188,-0.25 -0.359375,-0.5625 -0.359375,-0.9375 0,-0.28125 0.078125,-0.53125 0.234375,-0.75 C 0.882812,-4.890625 1.109375,-5.0625 1.390625,-5.1875 1.679688,-5.3125 2.007812,-5.375 2.375,-5.375 Z m 0,0"
   id="id-8c8569ab-f8c8-4468-884a-2fcc399a10da" />
      </g>
      <g
   id="id-2f6eb5b9-f9c4-45df-ac4f-7c9fc7ef3124">
        <path
   d="m 4.921875,-2.78125 c 0,0.15625 -0.011719,0.3125 -0.03125,0.46875 h -3.34375 c 0.039063,0.574219 0.1875,1 0.4375,1.28125 0.25,0.273438 0.570313,0.40625 0.96875,0.40625 0.257813,0 0.492187,-0.035156 0.703125,-0.109375 C 3.875,-0.804688 4.097656,-0.925781 4.328125,-1.09375 l 0.390625,0.5625 C 4.164062,-0.09375 3.554688,0.125 2.890625,0.125 2.160156,0.125 1.585938,-0.113281 1.171875,-0.59375 0.765625,-1.070312 0.5625,-1.734375 0.5625,-2.578125 c 0,-0.539063 0.085938,-1.019531 0.265625,-1.4375 0.175781,-0.425781 0.425781,-0.757813 0.75,-1 C 1.910156,-5.253906 2.300781,-5.375 2.75,-5.375 c 0.695312,0 1.234375,0.230469 1.609375,0.6875 0.375,0.460938 0.5625,1.09375 0.5625,1.90625 z M 4,-3.046875 c 0,-0.519531 -0.105469,-0.914063 -0.3125,-1.1875 -0.199219,-0.269531 -0.507812,-0.40625 -0.921875,-0.40625 -0.75,0 -1.15625,0.554687 -1.21875,1.65625 H 4 Z m 0,0"
   id="id-eeba9ba9-41f0-4030-beaa-d910f8cfbd38" />
      </g>
    </g>
  </defs>
  <g
   fill="#000000"
   fill-opacity="1"
   id="id-65a0b88a-3847-4b01-a511-5126f699d74c"
   transform="translate(-149.478,-126.984)">
    <g
   transform="translate(148.712,134.765)"
   id="g22973"><path
   d="M 1.859375,-5.25 V 0 h -0.90625 v -5.25 z m -0.46875,-2.53125 c 0.195313,0 0.351563,0.0625 0.46875,0.1875 0.125,0.117188 0.1875,0.265625 0.1875,0.453125 0,0.179687 -0.0625,0.324219 -0.1875,0.4375 -0.117187,0.117187 -0.273437,0.171875 -0.46875,0.171875 -0.179687,0 -0.328125,-0.054688 -0.453125,-0.171875 -0.117188,-0.113281 -0.171875,-0.257813 -0.171875,-0.4375 0,-0.1875 0.054687,-0.335937 0.171875,-0.453125 0.125,-0.125 0.273438,-0.1875 0.453125,-0.1875 z m 0,0"
   id="id-6510845e-add2-4246-b954-798e48e89bc2" />
      </g><g
   transform="translate(151.521,134.765)"
   id="g22976"><path
   d="m 6.21875,-5.375 c 0.4375,0 0.78125,0.148438 1.03125,0.4375 0.257812,0.292969 0.390625,0.683594 0.390625,1.171875 V 0 h -0.90625 v -3.640625 c 0,-0.675781 -0.25,-1.015625 -0.75,-1.015625 -0.25,0 -0.46875,0.078125 -0.65625,0.234375 -0.179687,0.148437 -0.371094,0.375 -0.578125,0.6875 V 0 H 3.84375 v -3.640625 c 0,-0.675781 -0.25,-1.015625 -0.75,-1.015625 -0.261719,0 -0.484375,0.078125 -0.671875,0.234375 -0.179687,0.148437 -0.367187,0.375 -0.5625,0.6875 V 0 h -0.90625 v -5.25 h 0.78125 L 1.8125,-4.484375 C 2.207031,-5.078125 2.710938,-5.375 3.328125,-5.375 c 0.320313,0 0.597656,0.085938 0.828125,0.25 0.226562,0.167969 0.394531,0.402344 0.5,0.703125 0.207031,-0.3125 0.4375,-0.546875 0.6875,-0.703125 0.25,-0.164062 0.539062,-0.25 0.875,-0.25 z m 0,0"
   id="id-00285085-0846-467c-9d79-fe499a63b615" />
      </g><g
   transform="translate(160.059,134.765)"
   id="g22979"><path
   d="m 3.359375,-5.375 c 0.664063,0 1.15625,0.242188 1.46875,0.71875 0.3125,0.480469 0.46875,1.15625 0.46875,2.03125 0,0.824219 -0.179687,1.492188 -0.53125,2 -0.355469,0.5 -0.867187,0.75 -1.53125,0.75 -0.585937,0 -1.042969,-0.203125 -1.375,-0.609375 v 2.5 L 0.953125,2.125 V -5.25 h 0.78125 l 0.0625,0.703125 C 1.992188,-4.804688 2.226562,-5.007812 2.5,-5.15625 2.769531,-5.300781 3.054688,-5.375 3.359375,-5.375 Z m -0.34375,4.75 c 0.863281,0 1.296875,-0.664062 1.296875,-2 0,-1.34375 -0.398438,-2.015625 -1.1875,-2.015625 -0.261719,0 -0.496094,0.078125 -0.703125,0.234375 -0.210937,0.148438 -0.398437,0.339844 -0.5625,0.578125 v 2.5625 c 0.132813,0.210937 0.300781,0.371094 0.5,0.484375 0.195313,0.105469 0.414063,0.15625 0.65625,0.15625 z m 0,0"
   id="id-3ee693e9-c68e-4368-80e2-e93be0a92bb7" />
      </g><g
   transform="translate(165.977,134.765)"
   id="g22982"><path
   d="M 4.859375,0 H 4.0625 L 4,-0.8125 C 3.800781,-0.488281 3.570312,-0.25 3.3125,-0.09375 3.050781,0.0507812 2.734375,0.125 2.359375,0.125 1.898438,0.125 1.539062,-0.015625 1.28125,-0.296875 1.019531,-0.578125 0.890625,-0.972656 0.890625,-1.484375 V -5.25 H 1.8125 v 3.671875 c 0,0.355469 0.0625,0.609375 0.1875,0.765625 0.125,0.148438 0.332031,0.21875 0.625,0.21875 0.507812,0 0.945312,-0.300781 1.3125,-0.90625 v -3.75 h 0.921875 z m 0,0"
   id="id-682038a1-71cf-4a98-b156-5ffbda683827" />
      </g><g
   transform="translate(171.775,134.765)"
   id="g22985"><path
   d="m 3.234375,-5.375 c 0.1875,0 0.359375,0.023438 0.515625,0.0625 L 3.578125,-4.421875 C 3.421875,-4.453125 3.269531,-4.46875 3.125,-4.46875 c -0.335938,0 -0.601562,0.121094 -0.796875,0.359375 C 2.128906,-3.878906 1.972656,-3.507812 1.859375,-3 v 3 h -0.90625 v -5.25 h 0.78125 l 0.09375,1.0625 C 1.960938,-4.582031 2.148438,-4.878906 2.390625,-5.078125 2.628906,-5.273438 2.910156,-5.375 3.234375,-5.375 Z m 0,0"
   id="id-d437c8de-43f4-4cae-bab9-6c2dc441ad11" />
      </g><g
   transform="translate(175.621,134.765)"
   id="g22988"><path
   d="M 1.859375,-5.25 V 0 h -0.90625 v -5.25 z m -0.46875,-2.53125 c 0.195313,0 0.351563,0.0625 0.46875,0.1875 0.125,0.117188 0.1875,0.265625 0.1875,0.453125 0,0.179687 -0.0625,0.324219 -0.1875,0.4375 -0.117187,0.117187 -0.273437,0.171875 -0.46875,0.171875 -0.179687,0 -0.328125,-0.054688 -0.453125,-0.171875 -0.117188,-0.113281 -0.171875,-0.257813 -0.171875,-0.4375 0,-0.1875 0.054687,-0.335937 0.171875,-0.453125 0.125,-0.125 0.273438,-0.1875 0.453125,-0.1875 z m 0,0"
   id="id-f7137286-c2cc-4e7b-8a91-3ccb790c13d6" />
      </g><g
   transform="translate(178.43,134.765)"
   id="g22991"><path
   d="M 3.59375,-0.234375 C 3.25,0.00390625 2.859375,0.125 2.421875,0.125 1.972656,0.125 1.625,0 1.375,-0.25 1.125,-0.507812 1,-0.882812 1,-1.375 V -4.546875 H 0.09375 V -5.25 H 1 V -6.4375 L 1.921875,-6.546875 V -5.25 h 1.25 l -0.09375,0.703125 h -1.15625 v 3.125 c 0,0.28125 0.046875,0.484375 0.140625,0.609375 0.101562,0.117188 0.265625,0.171875 0.484375,0.171875 0.207031,0 0.441406,-0.066406 0.703125,-0.203125 z m 0,0"
   id="id-74e58ffc-e015-49ea-8f79-21edd66f1484" />
      </g></g>
  <g
   fill="#000000"
   fill-opacity="1"
   id="id-777c9392-1b36-4b8c-ba74-b47871034260"
   transform="translate(-149.478,-126.984)">
    <g
   transform="translate(181.987,134.765)"
   id="g22995"><path
   d="M 3.046875,0.03125 C 2.835938,0.644531 2.550781,1.128906 2.1875,1.484375 1.820312,1.835938 1.296875,2.050781 0.609375,2.125 L 0.515625,1.40625 c 0.34375,-0.0625 0.613281,-0.152344 0.8125,-0.265625 0.207031,-0.105469 0.375,-0.246094 0.5,-0.421875 C 1.953125,0.539062 2.066406,0.300781 2.171875,0 h -0.3125 L 0.09375,-5.25 h 0.984375 l 1.40625,4.578125 1.375,-4.578125 H 4.8125 Z m 0,0"
   id="id-4ebf2500-eb1d-45c1-bc97-a48053982fd5" />
      </g></g>
  <g
   fill="#000000"
   fill-opacity="1"
   id="id-79035449-af0b-4fab-9224-c7521f38bee0"
   transform="translate(-149.478,-126.984)">
    <g
   transform="translate(189.519,134.765)"
   id="g22999"><path
   d="m 2.375,-5.375 c 0.351562,0 0.671875,0.054688 0.953125,0.15625 0.289063,0.09375 0.566406,0.242188 0.828125,0.4375 L 3.765625,-4.203125 C 3.523438,-4.347656 3.296875,-4.457031 3.078125,-4.53125 2.867188,-4.601562 2.644531,-4.640625 2.40625,-4.640625 c -0.304688,0 -0.542969,0.0625 -0.71875,0.1875 -0.167969,0.117187 -0.25,0.28125 -0.25,0.5 0,0.210937 0.078125,0.375 0.234375,0.5 0.164063,0.117187 0.460937,0.230469 0.890625,0.34375 0.582031,0.148437 1.019531,0.34375 1.3125,0.59375 0.289062,0.25 0.4375,0.601563 0.4375,1.046875 0,0.511719 -0.203125,0.90625 -0.609375,1.1875 C 3.296875,-0.0078125 2.804688,0.125 2.234375,0.125 1.429688,0.125 0.769531,-0.101562 0.25,-0.5625 L 0.734375,-1.125 c 0.445313,0.335938 0.941406,0.5 1.484375,0.5 0.34375,0 0.613281,-0.066406 0.8125,-0.203125 0.207031,-0.144531 0.3125,-0.34375 0.3125,-0.59375 0,-0.175781 -0.039062,-0.316406 -0.109375,-0.421875 C 3.160156,-1.957031 3.03125,-2.054688 2.84375,-2.140625 2.664062,-2.222656 2.40625,-2.3125 2.0625,-2.40625 1.5,-2.550781 1.09375,-2.742188 0.84375,-2.984375 c -0.242188,-0.25 -0.359375,-0.5625 -0.359375,-0.9375 0,-0.28125 0.078125,-0.53125 0.234375,-0.75 C 0.882812,-4.890625 1.109375,-5.0625 1.390625,-5.1875 1.679688,-5.3125 2.007812,-5.375 2.375,-5.375 Z m 0,0"
   id="id-e33bc297-ffcb-42d1-b40c-749df5e8f6b2" />
      </g><g
   transform="translate(194.171,134.765)"
   id="g23002"><path
   d="M 1.859375,-5.25 V 0 h -0.90625 v -5.25 z m -0.46875,-2.53125 c 0.195313,0 0.351563,0.0625 0.46875,0.1875 0.125,0.117188 0.1875,0.265625 0.1875,0.453125 0,0.179687 -0.0625,0.324219 -0.1875,0.4375 -0.117187,0.117187 -0.273437,0.171875 -0.46875,0.171875 -0.179687,0 -0.328125,-0.054688 -0.453125,-0.171875 -0.117188,-0.113281 -0.171875,-0.257813 -0.171875,-0.4375 0,-0.1875 0.054687,-0.335937 0.171875,-0.453125 0.125,-0.125 0.273438,-0.1875 0.453125,-0.1875 z m 0,0"
   id="id-79ce63b0-a968-47d6-a006-03ca77a4574e" />
      </g><g
   transform="translate(196.981,134.765)"
   id="g23005"><path
   d="M 3.59375,-0.234375 C 3.25,0.00390625 2.859375,0.125 2.421875,0.125 1.972656,0.125 1.625,0 1.375,-0.25 1.125,-0.507812 1,-0.882812 1,-1.375 V -4.546875 H 0.09375 V -5.25 H 1 V -6.4375 L 1.921875,-6.546875 V -5.25 h 1.25 l -0.09375,0.703125 h -1.15625 v 3.125 c 0,0.28125 0.046875,0.484375 0.140625,0.609375 0.101562,0.117188 0.265625,0.171875 0.484375,0.171875 0.207031,0 0.441406,-0.066406 0.703125,-0.203125 z m 0,0"
   id="id-ed17e59a-61df-48e4-b386-78ab17d4f79b" />
      </g></g>
  <g
   fill="#000000"
   fill-opacity="1"
   id="id-a8e9fb67-57e5-441b-9a86-32776c1dd9de"
   transform="translate(-149.478,-126.984)">
    <g
   transform="translate(200.438,134.765)"
   id="g23009"><path
   d="m 4.921875,-2.78125 c 0,0.15625 -0.011719,0.3125 -0.03125,0.46875 h -3.34375 c 0.039063,0.574219 0.1875,1 0.4375,1.28125 0.25,0.273438 0.570313,0.40625 0.96875,0.40625 0.257813,0 0.492187,-0.035156 0.703125,-0.109375 C 3.875,-0.804688 4.097656,-0.925781 4.328125,-1.09375 l 0.390625,0.5625 C 4.164062,-0.09375 3.554688,0.125 2.890625,0.125 2.160156,0.125 1.585938,-0.113281 1.171875,-0.59375 0.765625,-1.070312 0.5625,-1.734375 0.5625,-2.578125 c 0,-0.539063 0.085938,-1.019531 0.265625,-1.4375 0.175781,-0.425781 0.425781,-0.757813 0.75,-1 C 1.910156,-5.253906 2.300781,-5.375 2.75,-5.375 c 0.695312,0 1.234375,0.230469 1.609375,0.6875 0.375,0.460938 0.5625,1.09375 0.5625,1.90625 z M 4,-3.046875 c 0,-0.519531 -0.105469,-0.914063 -0.3125,-1.1875 -0.199219,-0.269531 -0.507812,-0.40625 -0.921875,-0.40625 -0.75,0 -1.15625,0.554687 -1.21875,1.65625 H 4 Z m 0,0"
   id="id-1e13443e-d2f9-41c6-9113-63d2ea38827e" />
      </g></g>
</g><g
     ns16:version="1.8.1"
     ns16:texconverter="xelatex"
     ns16:pdfconverter="inkscape"
     ns16:text="zeroth site"
     ns16:preamble="/home/kirito/.config/textext/beamer_preamble.tex"
     ns16:scale="3.0"
     ns16:alignment="middle center"
     ns16:stroke-to-path="0"
     ns16:inkscapeversion="1.2.1"
     transform="matrix(2.25,0,0,2.25,280.28053,98.6285)"
     ns16:jacobian_sqrt="2.25"
     id="g23213"><defs
   id="id-de0f997d-b41e-4add-b571-b95c925b8eec">
    <g
   id="id-ed85c258-b796-4620-881a-ca0eb9bdb191">
      <g
   id="id-8e56f339-a106-4bc3-9408-294dc11397a8">
        <path
   d="M 5.40625,-10.46875 V 3.484375 H 1.21875 V -10.46875 Z M 4.875,-9.953125 H 1.78125 V 2.96875 H 4.875 Z M 3.234375,-4.5 c 0.394531,0 0.675781,0.109375 0.84375,0.328125 0.175781,0.210937 0.265625,0.484375 0.265625,0.828125 0,0.34375 -0.078125,0.617188 -0.234375,0.8125 -0.148437,0.1875 -0.386719,0.308594 -0.71875,0.359375 v 0.453125 c 0,0.074219 -0.027344,0.132812 -0.078125,0.171875 -0.054688,0.042969 -0.109375,0.0625 -0.171875,0.0625 -0.0625,0 -0.121094,-0.019531 -0.171875,-0.0625 C 2.914062,-1.585938 2.890625,-1.644531 2.890625,-1.71875 V -2.5625 c 0.351563,-0.019531 0.59375,-0.082031 0.71875,-0.1875 0.125,-0.113281 0.1875,-0.304688 0.1875,-0.578125 0,-0.21875 -0.046875,-0.382813 -0.140625,-0.5 -0.085938,-0.125 -0.242188,-0.1875 -0.46875,-0.1875 -0.1875,0 -0.359375,0.039063 -0.515625,0.109375 -0.054687,0.023438 -0.09375,0.03125 -0.125,0.03125 -0.074219,0 -0.136719,-0.019531 -0.1875,-0.0625 -0.042969,-0.039062 -0.0625,-0.097656 -0.0625,-0.171875 0,-0.125 0.097656,-0.21875 0.296875,-0.28125 C 2.789062,-4.460938 3.003906,-4.5 3.234375,-4.5 Z m -0.09375,3.296875 c 0.101563,0 0.1875,0.039063 0.25,0.109375 0.0625,0.0625 0.09375,0.148438 0.09375,0.25 0,0.105469 -0.03125,0.195312 -0.09375,0.265625 -0.0625,0.0625 -0.148437,0.09375 -0.25,0.09375 -0.105469,0 -0.1875,-0.03125 -0.25,-0.09375 -0.0625,-0.070313 -0.09375,-0.160156 -0.09375,-0.265625 0,-0.101562 0.03125,-0.1875 0.09375,-0.25 0.0625,-0.070312 0.144531,-0.109375 0.25,-0.109375 z m 0,0"
   id="id-16be70f6-9d6f-4720-9ee9-ddb208c48c8b" />
      </g>
      <g
   id="id-f1bd3561-2a31-4ee3-b093-aa4b44ac581d">
        <path
   d="m 4.03125,-5.25 v 0.6875 l -2.75,3.796875 H 4.0625 L 3.953125,0 H 0.25 v -0.6875 l 2.734375,-3.78125 h -2.5 V -5.25 Z m 0,0"
   id="id-31b9a371-ee7e-428c-bbb0-06ba4197824b" />
      </g>
      <g
   id="id-d5260b41-51f1-415b-bd5f-9bf23729637f">
        <path
   d="m 4.921875,-2.78125 c 0,0.15625 -0.011719,0.3125 -0.03125,0.46875 h -3.34375 c 0.039063,0.574219 0.1875,1 0.4375,1.28125 0.25,0.273438 0.570313,0.40625 0.96875,0.40625 0.257813,0 0.492187,-0.035156 0.703125,-0.109375 C 3.875,-0.804688 4.097656,-0.925781 4.328125,-1.09375 l 0.390625,0.5625 C 4.164062,-0.09375 3.554688,0.125 2.890625,0.125 2.160156,0.125 1.585938,-0.113281 1.171875,-0.59375 0.765625,-1.070312 0.5625,-1.734375 0.5625,-2.578125 c 0,-0.539063 0.085938,-1.019531 0.265625,-1.4375 0.175781,-0.425781 0.425781,-0.757813 0.75,-1 C 1.910156,-5.253906 2.300781,-5.375 2.75,-5.375 c 0.695312,0 1.234375,0.230469 1.609375,0.6875 0.375,0.460938 0.5625,1.09375 0.5625,1.90625 z M 4,-3.046875 c 0,-0.519531 -0.105469,-0.914063 -0.3125,-1.1875 -0.199219,-0.269531 -0.507812,-0.40625 -0.921875,-0.40625 -0.75,0 -1.15625,0.554687 -1.21875,1.65625 H 4 Z m 0,0"
   id="id-8c7f9277-5f35-48a0-a980-66dc119b8083" />
      </g>
      <g
   id="id-b044e192-0d5c-4037-8872-527dd499eacb">
        <path
   d="m 3.234375,-5.375 c 0.1875,0 0.359375,0.023438 0.515625,0.0625 L 3.578125,-4.421875 C 3.421875,-4.453125 3.269531,-4.46875 3.125,-4.46875 c -0.335938,0 -0.601562,0.121094 -0.796875,0.359375 C 2.128906,-3.878906 1.972656,-3.507812 1.859375,-3 v 3 h -0.90625 v -5.25 h 0.78125 l 0.09375,1.0625 C 1.960938,-4.582031 2.148438,-4.878906 2.390625,-5.078125 2.628906,-5.273438 2.910156,-5.375 3.234375,-5.375 Z m 0,0"
   id="id-85832b58-acae-45b5-be33-115848a8e7ed" />
      </g>
      <g
   id="id-2142063c-c2b4-4495-a7e1-9fb69370731c">
        <path
   d="m 2.921875,-5.375 c 0.738281,0 1.3125,0.25 1.71875,0.75 0.40625,0.492188 0.609375,1.15625 0.609375,2 0,0.542969 -0.09375,1.023438 -0.28125,1.4375 -0.1875,0.417969 -0.460938,0.742188 -0.8125,0.96875 C 3.8125,0.0078125 3.394531,0.125 2.90625,0.125 2.164062,0.125 1.585938,-0.117188 1.171875,-0.609375 0.765625,-1.109375 0.5625,-1.78125 0.5625,-2.625 c 0,-0.539062 0.09375,-1.019531 0.28125,-1.4375 0.1875,-0.414062 0.457031,-0.738281 0.8125,-0.96875 C 2.007812,-5.257812 2.429688,-5.375 2.921875,-5.375 Z m 0,0.734375 c -0.90625,0 -1.359375,0.671875 -1.359375,2.015625 0,1.335938 0.445312,2 1.34375,2 0.90625,0 1.359375,-0.664062 1.359375,-2 0,-1.34375 -0.449219,-2.015625 -1.34375,-2.015625 z m 0,0"
   id="id-548ff7b7-6d4a-4b67-96d7-3e722d64d614" />
      </g>
      <g
   id="id-1a3c9d78-63ab-43a9-87a8-05c536e6bbc4">
        <path
   d="M 3.59375,-0.234375 C 3.25,0.00390625 2.859375,0.125 2.421875,0.125 1.972656,0.125 1.625,0 1.375,-0.25 1.125,-0.507812 1,-0.882812 1,-1.375 V -4.546875 H 0.09375 V -5.25 H 1 V -6.4375 L 1.921875,-6.546875 V -5.25 h 1.25 l -0.09375,0.703125 h -1.15625 v 3.125 c 0,0.28125 0.046875,0.484375 0.140625,0.609375 0.101562,0.117188 0.265625,0.171875 0.484375,0.171875 0.207031,0 0.441406,-0.066406 0.703125,-0.203125 z m 0,0"
   id="id-cd4d8e35-3044-4ac8-bde2-c585615ad5cb" />
      </g>
      <g
   id="id-1ba23efb-ca03-4719-b5b1-1bc5ec1d46b3">
        <path
   d="m 3.421875,-5.375 c 0.476563,0 0.847656,0.148438 1.109375,0.4375 0.269531,0.28125 0.40625,0.671875 0.40625,1.171875 V 0 H 4.03125 v -3.640625 c 0,-0.375 -0.074219,-0.632813 -0.21875,-0.78125 -0.148438,-0.15625 -0.355469,-0.234375 -0.625,-0.234375 -0.273438,0 -0.515625,0.085938 -0.734375,0.25 -0.210937,0.15625 -0.40625,0.382812 -0.59375,0.671875 V 0 h -0.90625 v -7.359375 l 0.90625,-0.09375 v 2.921875 c 0.414063,-0.5625 0.9375,-0.84375 1.5625,-0.84375 z m 0,0"
   id="id-f0de5d62-7b5e-4bb8-8196-3d373d6a94cb" />
      </g>
      <g
   id="id-d964d139-84d7-4a34-adc6-1092e1241b9c">
        <path
   d="m 2.375,-5.375 c 0.351562,0 0.671875,0.054688 0.953125,0.15625 0.289063,0.09375 0.566406,0.242188 0.828125,0.4375 L 3.765625,-4.203125 C 3.523438,-4.347656 3.296875,-4.457031 3.078125,-4.53125 2.867188,-4.601562 2.644531,-4.640625 2.40625,-4.640625 c -0.304688,0 -0.542969,0.0625 -0.71875,0.1875 -0.167969,0.117187 -0.25,0.28125 -0.25,0.5 0,0.210937 0.078125,0.375 0.234375,0.5 0.164063,0.117187 0.460937,0.230469 0.890625,0.34375 0.582031,0.148437 1.019531,0.34375 1.3125,0.59375 0.289062,0.25 0.4375,0.601563 0.4375,1.046875 0,0.511719 -0.203125,0.90625 -0.609375,1.1875 C 3.296875,-0.0078125 2.804688,0.125 2.234375,0.125 1.429688,0.125 0.769531,-0.101562 0.25,-0.5625 L 0.734375,-1.125 c 0.445313,0.335938 0.941406,0.5 1.484375,0.5 0.34375,0 0.613281,-0.066406 0.8125,-0.203125 0.207031,-0.144531 0.3125,-0.34375 0.3125,-0.59375 0,-0.175781 -0.039062,-0.316406 -0.109375,-0.421875 C 3.160156,-1.957031 3.03125,-2.054688 2.84375,-2.140625 2.664062,-2.222656 2.40625,-2.3125 2.0625,-2.40625 1.5,-2.550781 1.09375,-2.742188 0.84375,-2.984375 c -0.242188,-0.25 -0.359375,-0.5625 -0.359375,-0.9375 0,-0.28125 0.078125,-0.53125 0.234375,-0.75 C 0.882812,-4.890625 1.109375,-5.0625 1.390625,-5.1875 1.679688,-5.3125 2.007812,-5.375 2.375,-5.375 Z m 0,0"
   id="id-41e3b62c-669b-440e-8ca2-a010a8bd5ed1" />
      </g>
      <g
   id="id-267f81d8-9a55-4a78-9f43-7f03e6c834e9">
        <path
   d="M 1.859375,-5.25 V 0 h -0.90625 v -5.25 z m -0.46875,-2.53125 c 0.195313,0 0.351563,0.0625 0.46875,0.1875 0.125,0.117188 0.1875,0.265625 0.1875,0.453125 0,0.179687 -0.0625,0.324219 -0.1875,0.4375 -0.117187,0.117187 -0.273437,0.171875 -0.46875,0.171875 -0.179687,0 -0.328125,-0.054688 -0.453125,-0.171875 -0.117188,-0.113281 -0.171875,-0.257813 -0.171875,-0.4375 0,-0.1875 0.054687,-0.335937 0.171875,-0.453125 0.125,-0.125 0.273438,-0.1875 0.453125,-0.1875 z m 0,0"
   id="id-3bc70bea-e37b-488d-ae79-c1779243424e" />
      </g>
    </g>
  </defs>
  <g
   fill="#000000"
   fill-opacity="1"
   id="id-dffc02cc-a47e-40db-adc5-1b32e5dad6d6"
   transform="translate(-148.962,-126.984)">
    <g
   transform="translate(148.712,134.765)"
   id="g23816"><path
   d="m 4.03125,-5.25 v 0.6875 l -2.75,3.796875 H 4.0625 L 3.953125,0 H 0.25 v -0.6875 l 2.734375,-3.78125 h -2.5 V -5.25 Z m 0,0"
   id="id-1b9e7e9e-8460-41ae-8c73-fb521951b257" />
      </g></g>
  <g
   fill="#000000"
   fill-opacity="1"
   id="id-dcf76f74-dc7c-48e2-aa4d-4bb2f4c0353f"
   transform="translate(-148.962,-126.984)">
    <g
   transform="translate(153.006,134.765)"
   id="g23820"><path
   d="m 4.921875,-2.78125 c 0,0.15625 -0.011719,0.3125 -0.03125,0.46875 h -3.34375 c 0.039063,0.574219 0.1875,1 0.4375,1.28125 0.25,0.273438 0.570313,0.40625 0.96875,0.40625 0.257813,0 0.492187,-0.035156 0.703125,-0.109375 C 3.875,-0.804688 4.097656,-0.925781 4.328125,-1.09375 l 0.390625,0.5625 C 4.164062,-0.09375 3.554688,0.125 2.890625,0.125 2.160156,0.125 1.585938,-0.113281 1.171875,-0.59375 0.765625,-1.070312 0.5625,-1.734375 0.5625,-2.578125 c 0,-0.539063 0.085938,-1.019531 0.265625,-1.4375 0.175781,-0.425781 0.425781,-0.757813 0.75,-1 C 1.910156,-5.253906 2.300781,-5.375 2.75,-5.375 c 0.695312,0 1.234375,0.230469 1.609375,0.6875 0.375,0.460938 0.5625,1.09375 0.5625,1.90625 z M 4,-3.046875 c 0,-0.519531 -0.105469,-0.914063 -0.3125,-1.1875 -0.199219,-0.269531 -0.507812,-0.40625 -0.921875,-0.40625 -0.75,0 -1.15625,0.554687 -1.21875,1.65625 H 4 Z m 0,0"
   id="id-f0d1e562-1b63-4dd1-b5f4-591772a9ab53" />
      </g><g
   transform="translate(158.435,134.765)"
   id="g23823"><path
   d="m 3.234375,-5.375 c 0.1875,0 0.359375,0.023438 0.515625,0.0625 L 3.578125,-4.421875 C 3.421875,-4.453125 3.269531,-4.46875 3.125,-4.46875 c -0.335938,0 -0.601562,0.121094 -0.796875,0.359375 C 2.128906,-3.878906 1.972656,-3.507812 1.859375,-3 v 3 h -0.90625 v -5.25 h 0.78125 l 0.09375,1.0625 C 1.960938,-4.582031 2.148438,-4.878906 2.390625,-5.078125 2.628906,-5.273438 2.910156,-5.375 3.234375,-5.375 Z m 0,0"
   id="id-a5d1017d-b8fa-471b-9842-60fd8164018b" />
      </g></g>
  <g
   fill="#000000"
   fill-opacity="1"
   id="id-16740b65-8833-4fdd-9015-39e2bea62355"
   transform="translate(-148.962,-126.984)">
    <g
   transform="translate(161.982,134.765)"
   id="g23827"><path
   d="m 2.921875,-5.375 c 0.738281,0 1.3125,0.25 1.71875,0.75 0.40625,0.492188 0.609375,1.15625 0.609375,2 0,0.542969 -0.09375,1.023438 -0.28125,1.4375 -0.1875,0.417969 -0.460938,0.742188 -0.8125,0.96875 C 3.8125,0.0078125 3.394531,0.125 2.90625,0.125 2.164062,0.125 1.585938,-0.117188 1.171875,-0.609375 0.765625,-1.109375 0.5625,-1.78125 0.5625,-2.625 c 0,-0.539062 0.09375,-1.019531 0.28125,-1.4375 0.1875,-0.414062 0.457031,-0.738281 0.8125,-0.96875 C 2.007812,-5.257812 2.429688,-5.375 2.921875,-5.375 Z m 0,0.734375 c -0.90625,0 -1.359375,0.671875 -1.359375,2.015625 0,1.335938 0.445312,2 1.34375,2 0.90625,0 1.359375,-0.664062 1.359375,-2 0,-1.34375 -0.449219,-2.015625 -1.34375,-2.015625 z m 0,0"
   id="id-ef3becf1-2701-4905-b1bf-62ffa8147321" />
      </g><g
   transform="translate(167.8,134.765)"
   id="g23830"><path
   d="M 3.59375,-0.234375 C 3.25,0.00390625 2.859375,0.125 2.421875,0.125 1.972656,0.125 1.625,0 1.375,-0.25 1.125,-0.507812 1,-0.882812 1,-1.375 V -4.546875 H 0.09375 V -5.25 H 1 V -6.4375 L 1.921875,-6.546875 V -5.25 h 1.25 l -0.09375,0.703125 h -1.15625 v 3.125 c 0,0.28125 0.046875,0.484375 0.140625,0.609375 0.101562,0.117188 0.265625,0.171875 0.484375,0.171875 0.207031,0 0.441406,-0.066406 0.703125,-0.203125 z m 0,0"
   id="id-0ab4c8fe-e903-4b1c-bbf7-aef97d5f65e3" />
      </g><g
   transform="translate(171.397,134.765)"
   id="g23833"><path
   d="m 3.421875,-5.375 c 0.476563,0 0.847656,0.148438 1.109375,0.4375 0.269531,0.28125 0.40625,0.671875 0.40625,1.171875 V 0 H 4.03125 v -3.640625 c 0,-0.375 -0.074219,-0.632813 -0.21875,-0.78125 -0.148438,-0.15625 -0.355469,-0.234375 -0.625,-0.234375 -0.273438,0 -0.515625,0.085938 -0.734375,0.25 -0.210937,0.15625 -0.40625,0.382812 -0.59375,0.671875 V 0 h -0.90625 v -7.359375 l 0.90625,-0.09375 v 2.921875 c 0.414063,-0.5625 0.9375,-0.84375 1.5625,-0.84375 z m 0,0"
   id="id-947c2c3e-d217-47c0-94e7-fbe74aac22b4" />
      </g></g>
  <g
   fill="#000000"
   fill-opacity="1"
   id="id-707a1b74-64d3-4d3c-9953-c6cca69c09fe"
   transform="translate(-148.962,-126.984)">
    <g
   transform="translate(179.865,134.765)"
   id="g23837"><path
   d="m 2.375,-5.375 c 0.351562,0 0.671875,0.054688 0.953125,0.15625 0.289063,0.09375 0.566406,0.242188 0.828125,0.4375 L 3.765625,-4.203125 C 3.523438,-4.347656 3.296875,-4.457031 3.078125,-4.53125 2.867188,-4.601562 2.644531,-4.640625 2.40625,-4.640625 c -0.304688,0 -0.542969,0.0625 -0.71875,0.1875 -0.167969,0.117187 -0.25,0.28125 -0.25,0.5 0,0.210937 0.078125,0.375 0.234375,0.5 0.164063,0.117187 0.460937,0.230469 0.890625,0.34375 0.582031,0.148437 1.019531,0.34375 1.3125,0.59375 0.289062,0.25 0.4375,0.601563 0.4375,1.046875 0,0.511719 -0.203125,0.90625 -0.609375,1.1875 C 3.296875,-0.0078125 2.804688,0.125 2.234375,0.125 1.429688,0.125 0.769531,-0.101562 0.25,-0.5625 L 0.734375,-1.125 c 0.445313,0.335938 0.941406,0.5 1.484375,0.5 0.34375,0 0.613281,-0.066406 0.8125,-0.203125 0.207031,-0.144531 0.3125,-0.34375 0.3125,-0.59375 0,-0.175781 -0.039062,-0.316406 -0.109375,-0.421875 C 3.160156,-1.957031 3.03125,-2.054688 2.84375,-2.140625 2.664062,-2.222656 2.40625,-2.3125 2.0625,-2.40625 1.5,-2.550781 1.09375,-2.742188 0.84375,-2.984375 c -0.242188,-0.25 -0.359375,-0.5625 -0.359375,-0.9375 0,-0.28125 0.078125,-0.53125 0.234375,-0.75 C 0.882812,-4.890625 1.109375,-5.0625 1.390625,-5.1875 1.679688,-5.3125 2.007812,-5.375 2.375,-5.375 Z m 0,0"
   id="id-27880329-8b4a-41fc-afc1-8f8341d2aeb2" />
      </g><g
   transform="translate(184.518,134.765)"
   id="g23840"><path
   d="M 1.859375,-5.25 V 0 h -0.90625 v -5.25 z m -0.46875,-2.53125 c 0.195313,0 0.351563,0.0625 0.46875,0.1875 0.125,0.117188 0.1875,0.265625 0.1875,0.453125 0,0.179687 -0.0625,0.324219 -0.1875,0.4375 -0.117187,0.117187 -0.273437,0.171875 -0.46875,0.171875 -0.179687,0 -0.328125,-0.054688 -0.453125,-0.171875 -0.117188,-0.113281 -0.171875,-0.257813 -0.171875,-0.4375 0,-0.1875 0.054687,-0.335937 0.171875,-0.453125 0.125,-0.125 0.273438,-0.1875 0.453125,-0.1875 z m 0,0"
   id="id-f43329d4-d3d7-428a-b032-5c32b33c1de7" />
      </g><g
   transform="translate(187.327,134.765)"
   id="g23843"><path
   d="M 3.59375,-0.234375 C 3.25,0.00390625 2.859375,0.125 2.421875,0.125 1.972656,0.125 1.625,0 1.375,-0.25 1.125,-0.507812 1,-0.882812 1,-1.375 V -4.546875 H 0.09375 V -5.25 H 1 V -6.4375 L 1.921875,-6.546875 V -5.25 h 1.25 l -0.09375,0.703125 h -1.15625 v 3.125 c 0,0.28125 0.046875,0.484375 0.140625,0.609375 0.101562,0.117188 0.265625,0.171875 0.484375,0.171875 0.207031,0 0.441406,-0.066406 0.703125,-0.203125 z m 0,0"
   id="id-33e57e94-9d9c-4214-afeb-45feb4922b16" />
      </g></g>
  <g
   fill="#000000"
   fill-opacity="1"
   id="id-13513106-1617-4e3f-826a-6d74666f8aab"
   transform="translate(-148.962,-126.984)">
    <g
   transform="translate(190.784,134.765)"
   id="g23847"><path
   d="m 4.921875,-2.78125 c 0,0.15625 -0.011719,0.3125 -0.03125,0.46875 h -3.34375 c 0.039063,0.574219 0.1875,1 0.4375,1.28125 0.25,0.273438 0.570313,0.40625 0.96875,0.40625 0.257813,0 0.492187,-0.035156 0.703125,-0.109375 C 3.875,-0.804688 4.097656,-0.925781 4.328125,-1.09375 l 0.390625,0.5625 C 4.164062,-0.09375 3.554688,0.125 2.890625,0.125 2.160156,0.125 1.585938,-0.113281 1.171875,-0.59375 0.765625,-1.070312 0.5625,-1.734375 0.5625,-2.578125 c 0,-0.539063 0.085938,-1.019531 0.265625,-1.4375 0.175781,-0.425781 0.425781,-0.757813 0.75,-1 C 1.910156,-5.253906 2.300781,-5.375 2.75,-5.375 c 0.695312,0 1.234375,0.230469 1.609375,0.6875 0.375,0.460938 0.5625,1.09375 0.5625,1.90625 z M 4,-3.046875 c 0,-0.519531 -0.105469,-0.914063 -0.3125,-1.1875 -0.199219,-0.269531 -0.507812,-0.40625 -0.921875,-0.40625 -0.75,0 -1.15625,0.554687 -1.21875,1.65625 H 4 Z m 0,0"
   id="id-fa94dcdb-ca1d-40f6-8122-e185f60d4163" />
      </g></g>
</g></svg>
