<?xml version="1.0" encoding="UTF-8" standalone="no"?>
<!-- Created with Inkscape (http://www.inkscape.org/) -->

<svg
   width="214.6926mm"
   height="137.17909mm"
   viewBox="0 0 214.6926 137.17909"
   version="1.1"
   id="svg5"
   sodipodi:docname="urg-scheme.svg"
   inkscape:version="1.2.1 (9c6d41e410, 2022-07-14, custom)"
   xmlns:inkscape="http://www.inkscape.org/namespaces/inkscape"
   xmlns:sodipodi="http://sodipodi.sourceforge.net/DTD/sodipodi-0.dtd"
   xmlns:xlink="http://www.w3.org/1999/xlink"
   xmlns="http://www.w3.org/2000/svg"
   xmlns:svg="http://www.w3.org/2000/svg"
   xmlns:ns4="http://www.iki.fi/pav/software/textext/">
  <sodipodi:namedview
     id="namedview7"
     pagecolor="#ffffff"
     bordercolor="#cccccc"
     borderopacity="1"
     inkscape:showpageshadow="0"
     inkscape:pageopacity="1"
     inkscape:pagecheckerboard="0"
     inkscape:deskcolor="#d1d1d1"
     inkscape:document-units="mm"
     showgrid="false"
     inkscape:zoom="0.71535494"
     inkscape:cx="371.14443"
     inkscape:cy="443.13666"
     inkscape:window-width="1920"
     inkscape:window-height="1019"
     inkscape:window-x="1920"
     inkscape:window-y="151"
     inkscape:window-maximized="1"
     inkscape:current-layer="layer1" />
  <defs
     id="defs2">
    <linearGradient
       inkscape:collect="always"
       id="linearGradient6521">
      <stop
         style="stop-color:#cc5037;stop-opacity:1;"
         offset="0"
         id="stop6517" />
      <stop
         style="stop-color:#ff8f70;stop-opacity:0;"
         offset="1"
         id="stop6519" />
    </linearGradient>
    <marker
       style="overflow:visible"
       id="RoundedArrow"
       refX="0"
       refY="0"
       orient="auto-start-reverse"
       inkscape:stockid="RoundedArrow"
       markerWidth="3.135"
       markerHeight="3.0306199"
       viewBox="0 0 6.1347524 5.9304951"
       inkscape:isstock="true"
       inkscape:collect="always"
       preserveAspectRatio="xMidYMid">
      <path
         transform="scale(0.7)"
         d="m -0.21114562,-4.1055728 6.42229122,3.21114561 a 1,1 90 0 1 0,1.78885438 L -0.21114562,4.1055728 A 1.236068,1.236068 31.717474 0 1 -2,3 v -6 a 1.236068,1.236068 148.28253 0 1 1.78885438,-1.1055728 z"
         style="fill:context-stroke;fill-rule:evenodd;stroke:none"
         id="path1367" />
    </marker>
    <inkscape:path-effect
       effect="spiro"
       id="path-effect5307"
       is_visible="true"
       lpeversion="1" />
    <inkscape:path-effect
       effect="spiro"
       id="path-effect4493"
       is_visible="true"
       lpeversion="1" />
    <inkscape:path-effect
       effect="spiro"
       id="path-effect4153"
       is_visible="true"
       lpeversion="1" />
    <inkscape:path-effect
       effect="spiro"
       id="path-effect3857"
       is_visible="true"
       lpeversion="1" />
    <inkscape:path-effect
       effect="spiro"
       id="path-effect3262"
       is_visible="true"
       lpeversion="1" />
    <inkscape:path-effect
       effect="spiro"
       id="path-effect3256"
       is_visible="true"
       lpeversion="1" />
    <inkscape:path-effect
       effect="spiro"
       id="path-effect3252"
       is_visible="true"
       lpeversion="1" />
    <inkscape:path-effect
       effect="spiro"
       id="path-effect3248"
       is_visible="true"
       lpeversion="1" />
    <inkscape:path-effect
       effect="spiro"
       id="path-effect3244"
       is_visible="true"
       lpeversion="1" />
    <inkscape:path-effect
       effect="spiro"
       id="path-effect2514"
       is_visible="true"
       lpeversion="1" />
    <linearGradient
       inkscape:collect="always"
       xlink:href="#linearGradient6521"
       id="linearGradient6523"
       x1="-8.7232685"
       y1="116.38694"
       x2="195.83789"
       y2="116.38694"
       gradientUnits="userSpaceOnUse"
       gradientTransform="translate(-187.11462,-21.166667)" />
  </defs>
  <g
     inkscape:label="Layer 1"
     inkscape:groupmode="layer"
     id="layer1"
     transform="translate(18.3547,-30.895)">
    <path
       style="fill:none;stroke:#3e5080;stroke-width:3;stroke-dasharray:none;stroke-opacity:1"
       d="m 177.57045,143.84105 c 11.02625,-12.87196 17.26743,-29.75144 17.26743,-46.700347 0,-16.948906 -6.24118,-33.828387 -17.26743,-46.700342"
       id="path3254"
       inkscape:path-effect="#path-effect3256"
       inkscape:original-d="m 177.57045,143.84105 c 5.75607,-15.56652 11.51189,-31.1333 17.26743,-46.700347 5.75555,-15.567046 -11.51136,-31.133298 -17.26743,-46.700342" />
    <path
       style="fill:none;stroke:#3e5080;stroke-width:3;stroke-dasharray:none;stroke-opacity:1"
       d="m 145.82043,143.84105 c 11.02625,-12.87196 17.26743,-29.75144 17.26743,-46.700347 0,-16.948906 -6.24118,-33.828387 -17.26743,-46.700342"
       id="path3258"
       inkscape:path-effect="#path-effect3262"
       inkscape:original-d="m 145.82043,143.84105 c 5.75607,-15.56652 11.51189,-31.1333 17.26743,-46.700347 5.75555,-15.567046 -11.51136,-31.133298 -17.26743,-46.700342" />
    <g
       transform="matrix(1.41112,0,0,1.41112,166.15967,30.895)"
       ns4:version="1.8.1"
       ns4:texconverter="xelatex"
       ns4:pdfconverter="inkscape"
       ns4:text="$D_{(N)}$"
       ns4:preamble="/home/kirito/.config/textext/beamer_preamble.tex"
       ns4:scale="4.0"
       ns4:alignment="middle center"
       ns4:stroke-to-path="0"
       ns4:jacobian_sqrt="1.41112"
       id="g3315">
      <defs
         id="id-3593659a-9177-4a66-a694-d983abfe1b41">
        <g
           id="id-1f47838d-627f-4c28-9b5b-67fb7429d04f">
          <g
             id="id-7445fcc2-3a0f-4b2c-9e5d-6c8cadaa77e3">
            <path
               d="m 5.4375,-6.4375 v 5.890625 H 1.34375 V -6.4375 Z m 0.546875,-0.546875 h -5.1875 V 0 h 5.1875 z m -2.75,4.953125 c -0.21875,0 -0.40625,0.1875 -0.40625,0.421875 0,0.21875 0.1875,0.40625 0.40625,0.40625 0.25,0 0.421875,-0.1875 0.421875,-0.40625 0,-0.234375 -0.171875,-0.421875 -0.421875,-0.421875 z M 3.4375,-5.453125 c -0.5,0 -0.90625,0.1875 -1.25,0.59375 l 0.390625,0.28125 C 2.828125,-4.875 3.09375,-5 3.40625,-5 3.765625,-5 4,-4.8125 4,-4.484375 4,-3.84375 2.953125,-3.953125 2.953125,-2.9375 v 0.296875 H 3.5 V -2.90625 c 0,-0.796875 1.078125,-0.65625 1.078125,-1.625 0,-0.46875 -0.375,-0.921875 -1.140625,-0.921875 z m 0,0"
               id="id-bbf22b3f-5457-40e0-bc7c-6b665ec32323" />
          </g>
          <g
             id="id-9e1e4cbf-0272-4e5b-87b9-616c6bef3443">
            <path
               d="m 3.125,-6.109375 c 0.96875,0 1.90625,0.21875 1.90625,1.828125 0,1.640625 -0.625,3.53125 -2.625,3.53125 H 1.671875 L 2.40625,-6.109375 Z M 2.984375,-6.875 H 1.578125 L 0.625,0 h 1.640625 c 2.71875,0 3.71875,-2.0625 3.71875,-4.265625 0,-2.140625 -1.4375,-2.609375 -3,-2.609375 z m 0,0"
               id="id-6a957ae3-79ee-4170-9c97-83907a127ad9" />
          </g>
          <g
             id="id-89badc6b-a1dd-4dcd-8cb8-7c27c9915127">
            <path
               d="m 3.90625,-4.625 v 4.234375 H 0.96875 V -4.625 Z M 4.296875,-5.015625 H 0.578125 V 0 h 3.71875 z m -1.96875,3.5625 c -0.15625,0 -0.296875,0.125 -0.296875,0.296875 0,0.15625 0.140625,0.296875 0.296875,0.296875 C 2.5,-0.859375 2.625,-1 2.625,-1.15625 2.625,-1.328125 2.5,-1.453125 2.328125,-1.453125 Z m 0.140625,-2.46875 c -0.359375,0 -0.640625,0.140625 -0.890625,0.421875 L 1.84375,-3.296875 C 2.03125,-3.5 2.234375,-3.59375 2.453125,-3.59375 c 0.265625,0 0.4375,0.125 0.4375,0.359375 0,0.46875 -0.765625,0.390625 -0.765625,1.125 v 0.203125 h 0.390625 v -0.1875 c 0,-0.5625 0.78125,-0.46875 0.78125,-1.15625 0,-0.34375 -0.28125,-0.671875 -0.828125,-0.671875 z m 0,0"
               id="id-3c34c3a5-1d7c-48c8-8dc3-973fa3e324bd" />
          </g>
          <g
             id="id-798eff52-d8bf-4896-9333-044847fa5be6">
            <path
               d="m 1.625,-5.5625 c -0.703125,1 -1.34375,1.859375 -1.34375,3.546875 0,1.703125 0.640625,2.5625 1.34375,3.5625 L 2.03125,1.25 c -0.640625,-0.953125 -1.0625,-1.71875 -1.0625,-3.265625 0,-1.53125 0.421875,-2.296875 1.0625,-3.25 z m 0,0"
               id="id-68748dd3-3769-437f-a20b-66d37f9c8830" />
          </g>
          <g
             id="id-0e30e92d-812d-45e0-8107-766037f00e99">
            <path
               d="M 4.578125,-4.9375 H 3.9375 l -0.375,2.671875 c -0.078125,0.609375 -0.109375,1.03125 -0.109375,1.6875 L 2.03125,-4.9375 H 1.140625 L 0.4375,0 H 1.078125 L 1.40625,-2.25 c 0.125,-0.90625 0.171875,-1.5 0.171875,-2.109375 L 3,0 h 0.875 z m 0,0"
               id="id-7bdbff4e-da44-4117-8860-9c7e0f3c010a" />
          </g>
          <g
             id="id-fc5374f9-2b68-4e12-a91c-1730f67dee8c">
            <path
               d="M 0.703125,-5.5625 0.28125,-5.265625 c 0.65625,0.953125 1.0625,1.71875 1.0625,3.25 0,1.546875 -0.40625,2.3125 -1.0625,3.265625 l 0.421875,0.296875 c 0.703125,-1 1.328125,-1.859375 1.328125,-3.5625 0,-1.6875 -0.625,-2.546875 -1.328125,-3.546875 z m 0,0"
               id="id-c463752a-b2b0-4f86-8a79-520a53f3e3e2" />
          </g>
        </g>
      </defs>
      <g
         fill="#000000"
         fill-opacity="1"
         id="id-2e3c761e-dc09-4bf7-831e-2bd311a90649"
         transform="translate(-149.337,-127.89)">
        <g
           transform="translate(148.712,134.765)"
           id="g3514">
          <path
             d="m 3.125,-6.109375 c 0.96875,0 1.90625,0.21875 1.90625,1.828125 0,1.640625 -0.625,3.53125 -2.625,3.53125 H 1.671875 L 2.40625,-6.109375 Z M 2.984375,-6.875 H 1.578125 L 0.625,0 h 1.640625 c 2.71875,0 3.71875,-2.0625 3.71875,-4.265625 0,-2.140625 -1.4375,-2.609375 -3,-2.609375 z m 0,0"
             id="id-f62814e4-8fa0-42ef-90a2-128e65d3aa16" />
        </g>
      </g>
      <g
         fill="#000000"
         fill-opacity="1"
         id="id-c66b68c5-ad87-4f65-ae79-67366c17263b"
         transform="translate(-149.337,-127.89)">
        <g
           transform="translate(155.078,138.252)"
           id="g3518">
          <path
             d="m 1.625,-5.5625 c -0.703125,1 -1.34375,1.859375 -1.34375,3.546875 0,1.703125 0.640625,2.5625 1.34375,3.5625 L 2.03125,1.25 c -0.640625,-0.953125 -1.0625,-1.71875 -1.0625,-3.265625 0,-1.53125 0.421875,-2.296875 1.0625,-3.25 z m 0,0"
             id="id-5797c481-f851-4259-b31c-3e216cd4da26" />
        </g>
        <g
           transform="translate(157.402,138.252)"
           id="g3521">
          <path
             d="M 4.578125,-4.9375 H 3.9375 l -0.375,2.671875 c -0.078125,0.609375 -0.109375,1.03125 -0.109375,1.6875 L 2.03125,-4.9375 H 1.140625 L 0.4375,0 H 1.078125 L 1.40625,-2.25 c 0.125,-0.90625 0.171875,-1.5 0.171875,-2.109375 L 3,0 h 0.875 z m 0,0"
             id="id-68e723c7-924f-48e5-a2c5-ee9d83d358e7" />
        </g>
      </g>
      <g
         fill="#000000"
         fill-opacity="1"
         id="id-b21936d5-4693-415e-aea8-a66c4d734945"
         transform="translate(-149.337,-127.89)">
        <g
           transform="translate(162.402,138.252)"
           id="g3525">
          <path
             d="M 0.703125,-5.5625 0.28125,-5.265625 c 0.65625,0.953125 1.0625,1.71875 1.0625,3.25 0,1.546875 -0.40625,2.3125 -1.0625,3.265625 l 0.421875,0.296875 c 0.703125,-1 1.328125,-1.859375 1.328125,-3.5625 0,-1.6875 -0.625,-2.546875 -1.328125,-3.546875 z m 0,0"
             id="id-fb1fdfad-dded-4530-afdc-66d2022b121a" />
        </g>
      </g>
    </g>
    <g
       transform="matrix(1.41112,0,0,1.41112,129.04567,30.895)"
       ns4:version="1.8.1"
       ns4:texconverter="xelatex"
       ns4:pdfconverter="inkscape"
       ns4:text="$D_{(N-1)}$"
       ns4:preamble="/home/kirito/.config/textext/beamer_preamble.tex"
       ns4:scale="4.0"
       ns4:alignment="middle center"
       ns4:stroke-to-path="0"
       ns4:jacobian_sqrt="1.41112"
       id="g3607">
      <defs
         id="id-2eaaaafd-e35b-440d-aac5-0eee8f4283ec">
        <g
           id="id-d3d6dae9-7cab-4539-9925-9963cba57ba4">
          <g
             id="id-1619a32d-6128-424d-ac49-88f1d2b7d94a">
            <path
               d="m 5.4375,-6.4375 v 5.890625 H 1.34375 V -6.4375 Z m 0.546875,-0.546875 h -5.1875 V 0 h 5.1875 z m -2.75,4.953125 c -0.21875,0 -0.40625,0.1875 -0.40625,0.421875 0,0.21875 0.1875,0.40625 0.40625,0.40625 0.25,0 0.421875,-0.1875 0.421875,-0.40625 0,-0.234375 -0.171875,-0.421875 -0.421875,-0.421875 z M 3.4375,-5.453125 c -0.5,0 -0.90625,0.1875 -1.25,0.59375 l 0.390625,0.28125 C 2.828125,-4.875 3.09375,-5 3.40625,-5 3.765625,-5 4,-4.8125 4,-4.484375 4,-3.84375 2.953125,-3.953125 2.953125,-2.9375 v 0.296875 H 3.5 V -2.90625 c 0,-0.796875 1.078125,-0.65625 1.078125,-1.625 0,-0.46875 -0.375,-0.921875 -1.140625,-0.921875 z m 0,0"
               id="id-15276ff5-daee-484d-9d0d-1d601807c858" />
          </g>
          <g
             id="id-af1929e8-5a9a-4b7b-959b-ac7e36866e2d">
            <path
               d="m 3.125,-6.109375 c 0.96875,0 1.90625,0.21875 1.90625,1.828125 0,1.640625 -0.625,3.53125 -2.625,3.53125 H 1.671875 L 2.40625,-6.109375 Z M 2.984375,-6.875 H 1.578125 L 0.625,0 h 1.640625 c 2.71875,0 3.71875,-2.0625 3.71875,-4.265625 0,-2.140625 -1.4375,-2.609375 -3,-2.609375 z m 0,0"
               id="id-30c7c92f-e2b0-4c11-a80a-6828981e351f" />
          </g>
          <g
             id="id-2c87198a-9d9c-490f-adcb-778a8090dd0e">
            <path
               d="m 3.90625,-4.625 v 4.234375 H 0.96875 V -4.625 Z M 4.296875,-5.015625 H 0.578125 V 0 h 3.71875 z m -1.96875,3.5625 c -0.15625,0 -0.296875,0.125 -0.296875,0.296875 0,0.15625 0.140625,0.296875 0.296875,0.296875 C 2.5,-0.859375 2.625,-1 2.625,-1.15625 2.625,-1.328125 2.5,-1.453125 2.328125,-1.453125 Z m 0.140625,-2.46875 c -0.359375,0 -0.640625,0.140625 -0.890625,0.421875 L 1.84375,-3.296875 C 2.03125,-3.5 2.234375,-3.59375 2.453125,-3.59375 c 0.265625,0 0.4375,0.125 0.4375,0.359375 0,0.46875 -0.765625,0.390625 -0.765625,1.125 v 0.203125 h 0.390625 v -0.1875 c 0,-0.5625 0.78125,-0.46875 0.78125,-1.15625 0,-0.34375 -0.28125,-0.671875 -0.828125,-0.671875 z m 0,0"
               id="id-fc8ee342-8c97-47ff-bcad-6a526df3185a" />
          </g>
          <g
             id="id-db5196c0-9a3b-4402-8813-ffd827571885">
            <path
               d="m 1.625,-5.5625 c -0.703125,1 -1.34375,1.859375 -1.34375,3.546875 0,1.703125 0.640625,2.5625 1.34375,3.5625 L 2.03125,1.25 c -0.640625,-0.953125 -1.0625,-1.71875 -1.0625,-3.265625 0,-1.53125 0.421875,-2.296875 1.0625,-3.25 z m 0,0"
               id="id-1b24037a-4ea5-45cd-be5a-d4668acbd20d" />
          </g>
          <g
             id="id-e6e16ce4-adc3-4b80-b275-5d3118053b25">
            <path
               d="M 4.578125,-4.9375 H 3.9375 l -0.375,2.671875 c -0.078125,0.609375 -0.109375,1.03125 -0.109375,1.6875 L 2.03125,-4.9375 H 1.140625 L 0.4375,0 H 1.078125 L 1.40625,-2.25 c 0.125,-0.90625 0.171875,-1.5 0.171875,-2.109375 L 3,0 h 0.875 z m 0,0"
               id="id-d3c583fa-bd64-446e-a736-9fefd1e74ee7" />
          </g>
          <g
             id="id-21642d1d-b8b5-41f8-ad30-7a183573ba34">
            <path
               d="M 0.4375,-1.734375 H 3.140625 V -2.28125 H 0.4375 Z m 0,0"
               id="id-6b2a6802-f844-49ad-a006-2c8de1e9d324" />
          </g>
          <g
             id="id-0b9a6b0d-0744-4387-8292-a049e24542ad">
            <path
               d="m 1.984375,0 h 0.65625 V -4.9375 H 2.0625 l -1.484375,0.921875 0.28125,0.453125 1.125,-0.671875 z m 0,0"
               id="id-6765338e-5d5a-4064-adfd-e25b66f333e5" />
          </g>
          <g
             id="id-9ef6b1a9-bb36-43a7-8c3c-07dfd24dfec0">
            <path
               d="M 0.703125,-5.5625 0.28125,-5.265625 c 0.65625,0.953125 1.0625,1.71875 1.0625,3.25 0,1.546875 -0.40625,2.3125 -1.0625,3.265625 l 0.421875,0.296875 c 0.703125,-1 1.328125,-1.859375 1.328125,-3.5625 0,-1.6875 -0.625,-2.546875 -1.328125,-3.546875 z m 0,0"
               id="id-c73b7ad7-9fff-45dd-97d9-81452435232a" />
          </g>
        </g>
      </defs>
      <g
         fill="#000000"
         fill-opacity="1"
         id="id-25656d68-9dca-4657-82c7-35228b1a9625"
         transform="translate(-149.337,-127.89)">
        <g
           transform="translate(148.712,134.765)"
           id="g3728">
          <path
             d="m 3.125,-6.109375 c 0.96875,0 1.90625,0.21875 1.90625,1.828125 0,1.640625 -0.625,3.53125 -2.625,3.53125 H 1.671875 L 2.40625,-6.109375 Z M 2.984375,-6.875 H 1.578125 L 0.625,0 h 1.640625 c 2.71875,0 3.71875,-2.0625 3.71875,-4.265625 0,-2.140625 -1.4375,-2.609375 -3,-2.609375 z m 0,0"
             id="id-a5cae00e-d042-42fe-bbce-6b9bff01a250" />
        </g>
      </g>
      <g
         fill="#000000"
         fill-opacity="1"
         id="id-c8f569c2-dff7-4b9f-9a84-471880707080"
         transform="translate(-149.337,-127.89)">
        <g
           transform="translate(155.078,138.252)"
           id="g3732">
          <path
             d="m 1.625,-5.5625 c -0.703125,1 -1.34375,1.859375 -1.34375,3.546875 0,1.703125 0.640625,2.5625 1.34375,3.5625 L 2.03125,1.25 c -0.640625,-0.953125 -1.0625,-1.71875 -1.0625,-3.265625 0,-1.53125 0.421875,-2.296875 1.0625,-3.25 z m 0,0"
             id="id-c662058f-8c04-4552-89f9-fc5d990fb92e" />
        </g>
        <g
           transform="translate(157.402,138.252)"
           id="g3735">
          <path
             d="M 4.578125,-4.9375 H 3.9375 l -0.375,2.671875 c -0.078125,0.609375 -0.109375,1.03125 -0.109375,1.6875 L 2.03125,-4.9375 H 1.140625 L 0.4375,0 H 1.078125 L 1.40625,-2.25 c 0.125,-0.90625 0.171875,-1.5 0.171875,-2.109375 L 3,0 h 0.875 z m 0,0"
             id="id-02610021-4f4c-4f93-951a-53b4f60436e1" />
        </g>
      </g>
      <g
         fill="#000000"
         fill-opacity="1"
         id="id-39926488-24a1-454e-bbec-7bf890d2bc05"
         transform="translate(-149.337,-127.89)">
        <g
           transform="translate(162.402,138.252)"
           id="g3739">
          <path
             d="M 0.4375,-1.734375 H 3.140625 V -2.28125 H 0.4375 Z m 0,0"
             id="id-477de7ec-8c7d-4377-bd99-c3b558b0dd0b" />
        </g>
        <g
           transform="translate(165.988,138.252)"
           id="g3742">
          <path
             d="m 1.984375,0 h 0.65625 V -4.9375 H 2.0625 l -1.484375,0.921875 0.28125,0.453125 1.125,-0.671875 z m 0,0"
             id="id-8425f10f-87b1-472e-b266-c72b3f0315b3" />
        </g>
        <g
           transform="translate(170.005,138.252)"
           id="g3745">
          <path
             d="M 0.703125,-5.5625 0.28125,-5.265625 c 0.65625,0.953125 1.0625,1.71875 1.0625,3.25 0,1.546875 -0.40625,2.3125 -1.0625,3.265625 l 0.421875,0.296875 c 0.703125,-1 1.328125,-1.859375 1.328125,-3.5625 0,-1.6875 -0.625,-2.546875 -1.328125,-3.546875 z m 0,0"
             id="id-62cd45c1-0684-4031-930a-19ac13bd2b7b" />
        </g>
      </g>
    </g>
    <path
       style="fill:none;stroke:#3e5080;stroke-width:3;stroke-dasharray:none;stroke-opacity:1"
       d="m 87.612069,143.84105 c 11.026245,-12.87196 17.267421,-29.75144 17.267421,-46.700347 0,-16.948904 -6.241177,-33.828384 -17.267421,-46.700342"
       id="path3785"
       inkscape:path-effect="#path-effect3857"
       inkscape:original-d="M 87.612069,143.84105 C 93.368136,128.27453 99.123953,112.70775 104.87949,97.140703 110.63504,81.573657 93.368136,66.007405 87.612069,50.440361" />
    <g
       transform="matrix(1.41112,0,0,1.41112,78.039,30.895)"
       ns4:version="1.8.1"
       ns4:texconverter="xelatex"
       ns4:pdfconverter="inkscape"
       ns4:text="$D_{(j)}$"
       ns4:preamble="/home/kirito/.config/textext/beamer_preamble.tex"
       ns4:scale="4.0"
       ns4:alignment="middle center"
       ns4:stroke-to-path="0"
       ns4:jacobian_sqrt="1.41112"
       id="g3853">
      <defs
         id="id-0237be2f-7425-4efd-8af8-078d97f76d45">
        <g
           id="id-ac5c6114-a32b-4712-b6f7-fc99bdee583f">
          <g
             id="id-fd523289-71df-4bf0-afb3-004ad99a3940">
            <path
               d="m 5.4375,-6.4375 v 5.890625 H 1.34375 V -6.4375 Z m 0.546875,-0.546875 h -5.1875 V 0 h 5.1875 z m -2.75,4.953125 c -0.21875,0 -0.40625,0.1875 -0.40625,0.421875 0,0.21875 0.1875,0.40625 0.40625,0.40625 0.25,0 0.421875,-0.1875 0.421875,-0.40625 0,-0.234375 -0.171875,-0.421875 -0.421875,-0.421875 z M 3.4375,-5.453125 c -0.5,0 -0.90625,0.1875 -1.25,0.59375 l 0.390625,0.28125 C 2.828125,-4.875 3.09375,-5 3.40625,-5 3.765625,-5 4,-4.8125 4,-4.484375 4,-3.84375 2.953125,-3.953125 2.953125,-2.9375 v 0.296875 H 3.5 V -2.90625 c 0,-0.796875 1.078125,-0.65625 1.078125,-1.625 0,-0.46875 -0.375,-0.921875 -1.140625,-0.921875 z m 0,0"
               id="id-cc1d44fb-0424-4a2f-b939-06db4f99c793" />
          </g>
          <g
             id="id-a016c9a2-23d5-4da7-bd60-db21c21dbd22">
            <path
               d="m 3.125,-6.109375 c 0.96875,0 1.90625,0.21875 1.90625,1.828125 0,1.640625 -0.625,3.53125 -2.625,3.53125 H 1.671875 L 2.40625,-6.109375 Z M 2.984375,-6.875 H 1.578125 L 0.625,0 h 1.640625 c 2.71875,0 3.71875,-2.0625 3.71875,-4.265625 0,-2.140625 -1.4375,-2.609375 -3,-2.609375 z m 0,0"
               id="id-24b77604-71e6-4879-a39f-5ba12cf452db" />
          </g>
          <g
             id="id-faa968b2-a031-4bf5-b838-fe5ab27ffc64">
            <path
               d="m 3.90625,-4.625 v 4.234375 H 0.96875 V -4.625 Z M 4.296875,-5.015625 H 0.578125 V 0 h 3.71875 z m -1.96875,3.5625 c -0.15625,0 -0.296875,0.125 -0.296875,0.296875 0,0.15625 0.140625,0.296875 0.296875,0.296875 C 2.5,-0.859375 2.625,-1 2.625,-1.15625 2.625,-1.328125 2.5,-1.453125 2.328125,-1.453125 Z m 0.140625,-2.46875 c -0.359375,0 -0.640625,0.140625 -0.890625,0.421875 L 1.84375,-3.296875 C 2.03125,-3.5 2.234375,-3.59375 2.453125,-3.59375 c 0.265625,0 0.4375,0.125 0.4375,0.359375 0,0.46875 -0.765625,0.390625 -0.765625,1.125 v 0.203125 h 0.390625 v -0.1875 c 0,-0.5625 0.78125,-0.46875 0.78125,-1.15625 0,-0.34375 -0.28125,-0.671875 -0.828125,-0.671875 z m 0,0"
               id="id-dddd3dc3-b529-4b18-af23-8e3d516a3456" />
          </g>
          <g
             id="id-d13a3445-1a64-44e5-81b3-abfe1d8c2378">
            <path
               d="m 1.625,-5.5625 c -0.703125,1 -1.34375,1.859375 -1.34375,3.546875 0,1.703125 0.640625,2.5625 1.34375,3.5625 L 2.03125,1.25 c -0.640625,-0.953125 -1.0625,-1.71875 -1.0625,-3.265625 0,-1.53125 0.421875,-2.296875 1.0625,-3.25 z m 0,0"
               id="id-12dd5ac6-5e18-4d4f-98a2-140d7ee9b9d4" />
          </g>
          <g
             id="id-0c82fe1e-a4cc-44c8-8e6c-e1bd200c5848">
            <path
               d="M -0.328125,1.53125 C 0.515625,1.171875 0.9375,0.859375 1.09375,-0.203125 l 0.5,-3.578125 H 0.9375 l -0.5,3.578125 c -0.109375,0.8125 -0.4375,1 -0.953125,1.25 z m 1.75,-6.234375 c 0.28125,0 0.5,-0.203125 0.5,-0.484375 0,-0.234375 -0.171875,-0.40625 -0.421875,-0.40625 -0.28125,0 -0.5,0.203125 -0.5,0.484375 0,0.234375 0.171875,0.40625 0.421875,0.40625 z m 0,0"
               id="id-8e181859-8fb2-421a-8254-7b2cf5040e4d" />
          </g>
          <g
             id="id-93c596e0-07b2-436f-9b93-d5beab47a96d">
            <path
               d="M 0.703125,-5.5625 0.28125,-5.265625 c 0.65625,0.953125 1.0625,1.71875 1.0625,3.25 0,1.546875 -0.40625,2.3125 -1.0625,3.265625 l 0.421875,0.296875 c 0.703125,-1 1.328125,-1.859375 1.328125,-3.5625 0,-1.6875 -0.625,-2.546875 -1.328125,-3.546875 z m 0,0"
               id="id-1ac7a347-f11c-4a7c-83d6-6c2fcdea3787" />
          </g>
        </g>
      </defs>
      <g
         fill="#000000"
         fill-opacity="1"
         id="id-6fc56364-e60c-4466-bcab-393c9ef92371"
         transform="translate(-149.337,-127.89)">
        <g
           transform="translate(148.712,134.765)"
           id="g4054">
          <path
             d="m 3.125,-6.109375 c 0.96875,0 1.90625,0.21875 1.90625,1.828125 0,1.640625 -0.625,3.53125 -2.625,3.53125 H 1.671875 L 2.40625,-6.109375 Z M 2.984375,-6.875 H 1.578125 L 0.625,0 h 1.640625 c 2.71875,0 3.71875,-2.0625 3.71875,-4.265625 0,-2.140625 -1.4375,-2.609375 -3,-2.609375 z m 0,0"
             id="id-f659ce14-f901-4a23-9532-e1192116aa43" />
        </g>
      </g>
      <g
         fill="#000000"
         fill-opacity="1"
         id="id-8c5a0f34-7acc-45ac-9323-040dc285c0b0"
         transform="translate(-149.337,-127.89)">
        <g
           transform="translate(155.078,138.252)"
           id="g4058">
          <path
             d="m 1.625,-5.5625 c -0.703125,1 -1.34375,1.859375 -1.34375,3.546875 0,1.703125 0.640625,2.5625 1.34375,3.5625 L 2.03125,1.25 c -0.640625,-0.953125 -1.0625,-1.71875 -1.0625,-3.265625 0,-1.53125 0.421875,-2.296875 1.0625,-3.25 z m 0,0"
             id="id-c4b5d2a5-7015-490c-ad82-7eca1097a28a" />
        </g>
        <g
           transform="translate(157.402,138.252)"
           id="g4061">
          <path
             d="M -0.328125,1.53125 C 0.515625,1.171875 0.9375,0.859375 1.09375,-0.203125 l 0.5,-3.578125 H 0.9375 l -0.5,3.578125 c -0.109375,0.8125 -0.4375,1 -0.953125,1.25 z m 1.75,-6.234375 c 0.28125,0 0.5,-0.203125 0.5,-0.484375 0,-0.234375 -0.171875,-0.40625 -0.421875,-0.40625 -0.28125,0 -0.5,0.203125 -0.5,0.484375 0,0.234375 0.171875,0.40625 0.421875,0.40625 z m 0,0"
             id="id-d8d2df7c-b47e-45e4-9a2d-48ebb5b337aa" />
        </g>
      </g>
      <g
         fill="#000000"
         fill-opacity="1"
         id="id-b4b71fa0-bf0a-4767-b952-6c7ba57141ac"
         transform="translate(-149.337,-127.89)">
        <g
           transform="translate(159.798,138.252)"
           id="g4065">
          <path
             d="M 0.703125,-5.5625 0.28125,-5.265625 c 0.65625,0.953125 1.0625,1.71875 1.0625,3.25 0,1.546875 -0.40625,2.3125 -1.0625,3.265625 l 0.421875,0.296875 c 0.703125,-1 1.328125,-1.859375 1.328125,-3.5625 0,-1.6875 -0.625,-2.546875 -1.328125,-3.546875 z m 0,0"
             id="id-1c98c956-6319-4623-8b03-11f077059a7d" />
        </g>
      </g>
    </g>
    <path
       style="fill:none;stroke:#3e5080;stroke-width:3;stroke-dasharray:none;stroke-opacity:1"
       d="M 24.112065,143.84105 C 35.13831,130.96909 41.379487,114.08961 41.379486,97.140703 41.379485,80.191799 35.138309,63.312319 24.112065,50.440361"
       id="path4097"
       inkscape:path-effect="#path-effect4153"
       inkscape:original-d="M 24.112065,143.84105 C 29.868132,128.27453 35.623949,112.70775 41.379486,97.140703 47.13503,81.573657 29.868132,66.007405 24.112065,50.440361" />
    <g
       transform="matrix(1.41112,0,0,1.41112,13.3953,30.895)"
       ns4:version="1.8.1"
       ns4:texconverter="xelatex"
       ns4:pdfconverter="inkscape"
       ns4:text="$D_{(1)}$"
       ns4:preamble="/home/kirito/.config/textext/beamer_preamble.tex"
       ns4:scale="4.0"
       ns4:alignment="middle center"
       ns4:stroke-to-path="0"
       ns4:jacobian_sqrt="1.41112"
       id="g4149">
      <defs
         id="id-c05a334a-0c79-42ec-9ad6-6e6531642bba">
        <g
           id="id-c94984a0-29bc-497f-8e60-342ed2778c6c">
          <g
             id="id-d5a633fb-e722-462b-b518-1a84613d6c01">
            <path
               d="m 5.4375,-6.4375 v 5.890625 H 1.34375 V -6.4375 Z m 0.546875,-0.546875 h -5.1875 V 0 h 5.1875 z m -2.75,4.953125 c -0.21875,0 -0.40625,0.1875 -0.40625,0.421875 0,0.21875 0.1875,0.40625 0.40625,0.40625 0.25,0 0.421875,-0.1875 0.421875,-0.40625 0,-0.234375 -0.171875,-0.421875 -0.421875,-0.421875 z M 3.4375,-5.453125 c -0.5,0 -0.90625,0.1875 -1.25,0.59375 l 0.390625,0.28125 C 2.828125,-4.875 3.09375,-5 3.40625,-5 3.765625,-5 4,-4.8125 4,-4.484375 4,-3.84375 2.953125,-3.953125 2.953125,-2.9375 v 0.296875 H 3.5 V -2.90625 c 0,-0.796875 1.078125,-0.65625 1.078125,-1.625 0,-0.46875 -0.375,-0.921875 -1.140625,-0.921875 z m 0,0"
               id="id-00889551-4b11-4969-95ad-1fab8ce43640" />
          </g>
          <g
             id="id-d7211dbe-b1ec-4d9b-b13d-02831841c762">
            <path
               d="m 3.125,-6.109375 c 0.96875,0 1.90625,0.21875 1.90625,1.828125 0,1.640625 -0.625,3.53125 -2.625,3.53125 H 1.671875 L 2.40625,-6.109375 Z M 2.984375,-6.875 H 1.578125 L 0.625,0 h 1.640625 c 2.71875,0 3.71875,-2.0625 3.71875,-4.265625 0,-2.140625 -1.4375,-2.609375 -3,-2.609375 z m 0,0"
               id="id-4dc821c7-2f81-4ede-ba11-bede5994f633" />
          </g>
          <g
             id="id-ecd87c51-5550-44ba-981a-7c19ae3fb73b">
            <path
               d="m 3.90625,-4.625 v 4.234375 H 0.96875 V -4.625 Z M 4.296875,-5.015625 H 0.578125 V 0 h 3.71875 z m -1.96875,3.5625 c -0.15625,0 -0.296875,0.125 -0.296875,0.296875 0,0.15625 0.140625,0.296875 0.296875,0.296875 C 2.5,-0.859375 2.625,-1 2.625,-1.15625 2.625,-1.328125 2.5,-1.453125 2.328125,-1.453125 Z m 0.140625,-2.46875 c -0.359375,0 -0.640625,0.140625 -0.890625,0.421875 L 1.84375,-3.296875 C 2.03125,-3.5 2.234375,-3.59375 2.453125,-3.59375 c 0.265625,0 0.4375,0.125 0.4375,0.359375 0,0.46875 -0.765625,0.390625 -0.765625,1.125 v 0.203125 h 0.390625 v -0.1875 c 0,-0.5625 0.78125,-0.46875 0.78125,-1.15625 0,-0.34375 -0.28125,-0.671875 -0.828125,-0.671875 z m 0,0"
               id="id-5810c014-586e-43e3-a401-5896653a24df" />
          </g>
          <g
             id="id-8a901997-27e9-454e-9e93-f0993edbe35e">
            <path
               d="m 1.625,-5.5625 c -0.703125,1 -1.34375,1.859375 -1.34375,3.546875 0,1.703125 0.640625,2.5625 1.34375,3.5625 L 2.03125,1.25 c -0.640625,-0.953125 -1.0625,-1.71875 -1.0625,-3.265625 0,-1.53125 0.421875,-2.296875 1.0625,-3.25 z m 0,0"
               id="id-3612df4d-f31f-4781-8908-2a09c16b299f" />
          </g>
          <g
             id="id-d432b56f-f8e1-4dd3-ad82-08f62e6e7e45">
            <path
               d="m 1.984375,0 h 0.65625 V -4.9375 H 2.0625 l -1.484375,0.921875 0.28125,0.453125 1.125,-0.671875 z m 0,0"
               id="id-608d373b-6a9b-49af-a25b-6459ac388445" />
          </g>
          <g
             id="id-0f4763ef-101b-4ef4-90cf-df3ed1f03cc0">
            <path
               d="M 0.703125,-5.5625 0.28125,-5.265625 c 0.65625,0.953125 1.0625,1.71875 1.0625,3.25 0,1.546875 -0.40625,2.3125 -1.0625,3.265625 l 0.421875,0.296875 c 0.703125,-1 1.328125,-1.859375 1.328125,-3.5625 0,-1.6875 -0.625,-2.546875 -1.328125,-3.546875 z m 0,0"
               id="id-57ed7c8a-2444-4684-aa73-7a45d8be2d37" />
          </g>
        </g>
      </defs>
      <g
         fill="#000000"
         fill-opacity="1"
         id="id-876e354f-e222-416f-9f5e-633332de90c2"
         transform="translate(-149.337,-127.89)">
        <g
           transform="translate(148.712,134.765)"
           id="g4398">
          <path
             d="m 3.125,-6.109375 c 0.96875,0 1.90625,0.21875 1.90625,1.828125 0,1.640625 -0.625,3.53125 -2.625,3.53125 H 1.671875 L 2.40625,-6.109375 Z M 2.984375,-6.875 H 1.578125 L 0.625,0 h 1.640625 c 2.71875,0 3.71875,-2.0625 3.71875,-4.265625 0,-2.140625 -1.4375,-2.609375 -3,-2.609375 z m 0,0"
             id="id-d1e8f185-2ccf-49b9-bc86-f0c2fca956d2" />
        </g>
      </g>
      <g
         fill="#000000"
         fill-opacity="1"
         id="id-c03cbe31-4e23-46f0-9bd6-c33defc5e4f6"
         transform="translate(-149.337,-127.89)">
        <g
           transform="translate(155.078,138.252)"
           id="g4402">
          <path
             d="m 1.625,-5.5625 c -0.703125,1 -1.34375,1.859375 -1.34375,3.546875 0,1.703125 0.640625,2.5625 1.34375,3.5625 L 2.03125,1.25 c -0.640625,-0.953125 -1.0625,-1.71875 -1.0625,-3.265625 0,-1.53125 0.421875,-2.296875 1.0625,-3.25 z m 0,0"
             id="id-8a6f9a62-b00d-4467-8cb4-e59b5005da5a" />
        </g>
        <g
           transform="translate(157.402,138.252)"
           id="g4405">
          <path
             d="m 1.984375,0 h 0.65625 V -4.9375 H 2.0625 l -1.484375,0.921875 0.28125,0.453125 1.125,-0.671875 z m 0,0"
             id="id-a11edfa7-9b3b-492c-9bdd-a0f903dc3f64" />
        </g>
        <g
           transform="translate(161.419,138.252)"
           id="g4408">
          <path
             d="M 0.703125,-5.5625 0.28125,-5.265625 c 0.65625,0.953125 1.0625,1.71875 1.0625,3.25 0,1.546875 -0.40625,2.3125 -1.0625,3.265625 l 0.421875,0.296875 c 0.703125,-1 1.328125,-1.859375 1.328125,-3.5625 0,-1.6875 -0.625,-2.546875 -1.328125,-3.546875 z m 0,0"
             id="id-3b407d56-64fa-44f1-a5b8-9d920766ab8a" />
        </g>
      </g>
    </g>
    <path
       style="fill:none;stroke:#3e5080;stroke-width:3;stroke-dasharray:none;stroke-opacity:1"
       d="M -7.6379358,143.84105 C 3.3883086,130.96909 9.6294849,114.08961 9.6294843,97.140703 9.6294837,80.191799 3.3883076,63.312319 -7.6379358,50.440361"
       id="path4439"
       inkscape:path-effect="#path-effect4493"
       inkscape:original-d="M -7.6379358,143.84105 C -1.8818691,128.27453 3.8739476,112.70775 9.6294843,97.140703 15.385028,81.573657 -1.8818691,66.007405 -7.6379358,50.440361" />
    <g
       transform="matrix(1.41112,0,0,1.41112,-18.3547,30.895)"
       ns4:version="1.8.1"
       ns4:texconverter="xelatex"
       ns4:pdfconverter="inkscape"
       ns4:text="$D_{(0)}$"
       ns4:preamble="/home/kirito/.config/textext/beamer_preamble.tex"
       ns4:scale="4.0"
       ns4:alignment="middle center"
       ns4:stroke-to-path="0"
       ns4:jacobian_sqrt="1.41112"
       id="g4489">
      <defs
         id="id-b1e853cc-0ce4-4bf1-82ad-a1189af82602">
        <g
           id="id-0d6fccc8-6f80-466e-b1b8-d79cec12e777">
          <g
             id="id-f977735e-b2e3-48e3-9b42-e709f259c13b">
            <path
               d="m 5.4375,-6.4375 v 5.890625 H 1.34375 V -6.4375 Z m 0.546875,-0.546875 h -5.1875 V 0 h 5.1875 z m -2.75,4.953125 c -0.21875,0 -0.40625,0.1875 -0.40625,0.421875 0,0.21875 0.1875,0.40625 0.40625,0.40625 0.25,0 0.421875,-0.1875 0.421875,-0.40625 0,-0.234375 -0.171875,-0.421875 -0.421875,-0.421875 z M 3.4375,-5.453125 c -0.5,0 -0.90625,0.1875 -1.25,0.59375 l 0.390625,0.28125 C 2.828125,-4.875 3.09375,-5 3.40625,-5 3.765625,-5 4,-4.8125 4,-4.484375 4,-3.84375 2.953125,-3.953125 2.953125,-2.9375 v 0.296875 H 3.5 V -2.90625 c 0,-0.796875 1.078125,-0.65625 1.078125,-1.625 0,-0.46875 -0.375,-0.921875 -1.140625,-0.921875 z m 0,0"
               id="id-7439abf0-f505-4f04-87c3-1e628f66783c" />
          </g>
          <g
             id="id-2e2e5286-ce07-46c6-b531-d0ca2a505aeb">
            <path
               d="m 3.125,-6.109375 c 0.96875,0 1.90625,0.21875 1.90625,1.828125 0,1.640625 -0.625,3.53125 -2.625,3.53125 H 1.671875 L 2.40625,-6.109375 Z M 2.984375,-6.875 H 1.578125 L 0.625,0 h 1.640625 c 2.71875,0 3.71875,-2.0625 3.71875,-4.265625 0,-2.140625 -1.4375,-2.609375 -3,-2.609375 z m 0,0"
               id="id-b8b34c1c-ea6b-4480-a3aa-fa1395fc0c8d" />
          </g>
          <g
             id="id-81220779-7487-4e1a-b1a7-9a025c24aacb">
            <path
               d="m 3.90625,-4.625 v 4.234375 H 0.96875 V -4.625 Z M 4.296875,-5.015625 H 0.578125 V 0 h 3.71875 z m -1.96875,3.5625 c -0.15625,0 -0.296875,0.125 -0.296875,0.296875 0,0.15625 0.140625,0.296875 0.296875,0.296875 C 2.5,-0.859375 2.625,-1 2.625,-1.15625 2.625,-1.328125 2.5,-1.453125 2.328125,-1.453125 Z m 0.140625,-2.46875 c -0.359375,0 -0.640625,0.140625 -0.890625,0.421875 L 1.84375,-3.296875 C 2.03125,-3.5 2.234375,-3.59375 2.453125,-3.59375 c 0.265625,0 0.4375,0.125 0.4375,0.359375 0,0.46875 -0.765625,0.390625 -0.765625,1.125 v 0.203125 h 0.390625 v -0.1875 c 0,-0.5625 0.78125,-0.46875 0.78125,-1.15625 0,-0.34375 -0.28125,-0.671875 -0.828125,-0.671875 z m 0,0"
               id="id-9626bc75-7925-4bea-a504-24cbccd143b9" />
          </g>
          <g
             id="id-e6e05402-a545-4d22-b3da-f50eff7d336e">
            <path
               d="m 1.625,-5.5625 c -0.703125,1 -1.34375,1.859375 -1.34375,3.546875 0,1.703125 0.640625,2.5625 1.34375,3.5625 L 2.03125,1.25 c -0.640625,-0.953125 -1.0625,-1.71875 -1.0625,-3.265625 0,-1.53125 0.421875,-2.296875 1.0625,-3.25 z m 0,0"
               id="id-7ff7537b-00eb-46d0-911b-e6ea53f3e313" />
          </g>
          <g
             id="id-8c9b5403-e1e2-4e32-a4fa-a687db921501">
            <path
               d="m 2.015625,-4.5 c 0.59375,0 0.90625,0.546875 0.90625,2.03125 0,1.484375 -0.3125,2.03125 -0.90625,2.03125 -0.609375,0 -0.921875,-0.546875 -0.921875,-2.03125 0,-1.484375 0.3125,-2.03125 0.921875,-2.03125 z m 0,-0.53125 c -1.078125,0 -1.609375,0.890625 -1.609375,2.5625 0,1.671875 0.53125,2.5625 1.609375,2.5625 1.0625,0 1.59375,-0.890625 1.59375,-2.5625 0,-1.671875 -0.53125,-2.5625 -1.59375,-2.5625 z m 0,0"
               id="id-74499290-83c0-4f01-85d9-958c69f17381" />
          </g>
          <g
             id="id-4f19e5b7-d58d-492e-b82c-ba022f150801">
            <path
               d="M 0.703125,-5.5625 0.28125,-5.265625 c 0.65625,0.953125 1.0625,1.71875 1.0625,3.25 0,1.546875 -0.40625,2.3125 -1.0625,3.265625 l 0.421875,0.296875 c 0.703125,-1 1.328125,-1.859375 1.328125,-3.5625 0,-1.6875 -0.625,-2.546875 -1.328125,-3.546875 z m 0,0"
               id="id-8a42308c-c1d0-4c4b-b365-5da29c49b544" />
          </g>
        </g>
      </defs>
      <g
         fill="#000000"
         fill-opacity="1"
         id="id-f8fe709e-36b1-42d8-a381-e2b321716e4d"
         transform="translate(-149.337,-127.89)">
        <g
           transform="translate(148.712,134.765)"
           id="g4791">
          <path
             d="m 3.125,-6.109375 c 0.96875,0 1.90625,0.21875 1.90625,1.828125 0,1.640625 -0.625,3.53125 -2.625,3.53125 H 1.671875 L 2.40625,-6.109375 Z M 2.984375,-6.875 H 1.578125 L 0.625,0 h 1.640625 c 2.71875,0 3.71875,-2.0625 3.71875,-4.265625 0,-2.140625 -1.4375,-2.609375 -3,-2.609375 z m 0,0"
             id="id-d3c41245-510e-4205-bf6c-c5115dd39bbc" />
        </g>
      </g>
      <g
         fill="#000000"
         fill-opacity="1"
         id="id-a2112fcc-98df-4d24-8c08-bfe3c5698c65"
         transform="translate(-149.337,-127.89)">
        <g
           transform="translate(155.078,138.252)"
           id="g4795">
          <path
             d="m 1.625,-5.5625 c -0.703125,1 -1.34375,1.859375 -1.34375,3.546875 0,1.703125 0.640625,2.5625 1.34375,3.5625 L 2.03125,1.25 c -0.640625,-0.953125 -1.0625,-1.71875 -1.0625,-3.265625 0,-1.53125 0.421875,-2.296875 1.0625,-3.25 z m 0,0"
             id="id-5d64e14a-a82c-4026-86ff-24b26518a431" />
        </g>
        <g
           transform="translate(157.402,138.252)"
           id="g4798">
          <path
             d="m 2.015625,-4.5 c 0.59375,0 0.90625,0.546875 0.90625,2.03125 0,1.484375 -0.3125,2.03125 -0.90625,2.03125 -0.609375,0 -0.921875,-0.546875 -0.921875,-2.03125 0,-1.484375 0.3125,-2.03125 0.921875,-2.03125 z m 0,-0.53125 c -1.078125,0 -1.609375,0.890625 -1.609375,2.5625 0,1.671875 0.53125,2.5625 1.609375,2.5625 1.0625,0 1.59375,-0.890625 1.59375,-2.5625 0,-1.671875 -0.53125,-2.5625 -1.59375,-2.5625 z m 0,0"
             id="id-529f8796-c387-4821-a1c5-ecb63c6e6bb5" />
        </g>
        <g
           transform="translate(161.419,138.252)"
           id="g4801">
          <path
             d="M 0.703125,-5.5625 0.28125,-5.265625 c 0.65625,0.953125 1.0625,1.71875 1.0625,3.25 0,1.546875 -0.40625,2.3125 -1.0625,3.265625 l 0.421875,0.296875 c 0.703125,-1 1.328125,-1.859375 1.328125,-3.5625 0,-1.6875 -0.625,-2.546875 -1.328125,-3.546875 z m 0,0"
             id="id-55b145e3-a3bd-4e6a-8a31-e057e6fcf20c" />
        </g>
      </g>
    </g>
    <g
       transform="matrix(1.41112,0,0,1.41112,-16.131024,124.24834)"
       ns4:version="1.8.1"
       ns4:texconverter="xelatex"
       ns4:pdfconverter="inkscape"
       ns4:text="$\\epsilon_F$"
       ns4:preamble="/home/kirito/.config/textext/beamer_preamble.tex"
       ns4:scale="4.0"
       ns4:alignment="middle center"
       ns4:stroke-to-path="0"
       ns4:jacobian_sqrt="1.41112"
       id="g4880">
      <defs
         id="id-6630d557-d64f-44f2-9049-ed84e9a0911c">
        <g
           id="id-306552f0-1b7b-40d4-86f4-ba769b45551d">
          <g
             id="id-7aa47fdf-19f6-4d69-b2a4-33ef4e176538">
            <path
               d="m 5.4375,-6.4375 v 5.890625 H 1.34375 V -6.4375 Z m 0.546875,-0.546875 h -5.1875 V 0 h 5.1875 z m -2.75,4.953125 c -0.21875,0 -0.40625,0.1875 -0.40625,0.421875 0,0.21875 0.1875,0.40625 0.40625,0.40625 0.25,0 0.421875,-0.1875 0.421875,-0.40625 0,-0.234375 -0.171875,-0.421875 -0.421875,-0.421875 z M 3.4375,-5.453125 c -0.5,0 -0.90625,0.1875 -1.25,0.59375 l 0.390625,0.28125 C 2.828125,-4.875 3.09375,-5 3.40625,-5 3.765625,-5 4,-4.8125 4,-4.484375 4,-3.84375 2.953125,-3.953125 2.953125,-2.9375 v 0.296875 H 3.5 V -2.90625 c 0,-0.796875 1.078125,-0.65625 1.078125,-1.625 0,-0.46875 -0.375,-0.921875 -1.140625,-0.921875 z m 0,0"
               id="id-098bfab4-d912-4353-b5d7-14719643a44e" />
          </g>
          <g
             id="id-d990a1df-1711-4da4-b58e-754344b15dc4">
            <path
               d="m 3.1875,-4.609375 c 0.40625,0 0.703125,0.109375 1.03125,0.375 l 0.484375,-0.5625 C 4.28125,-5.203125 3.765625,-5.375 3.1875,-5.375 c -1.953125,0 -2.671875,1.96875 -2.671875,3.34375 0,1.359375 0.71875,2.15625 1.96875,2.15625 0.578125,0 1.125,-0.1875 1.640625,-0.546875 L 3.765625,-1.0625 C 3.34375,-0.8125 3,-0.65625 2.546875,-0.65625 c -0.671875,0 -1.078125,-0.375 -1.078125,-1.296875 0,-0.125 0.015625,-0.265625 0.03125,-0.390625 h 2.125 l 0.109375,-0.703125 h -2.125 c 0.1875,-0.828125 0.65625,-1.5625 1.578125,-1.5625 z m 0,0"
               id="id-89bb8aea-d754-489d-ae62-1fbcc780957a" />
          </g>
          <g
             id="id-bba60f79-cee8-43d0-b497-c9c1d4f07692">
            <path
               d="m 3.90625,-4.625 v 4.234375 H 0.96875 V -4.625 Z M 4.296875,-5.015625 H 0.578125 V 0 h 3.71875 z m -1.96875,3.5625 c -0.15625,0 -0.296875,0.125 -0.296875,0.296875 0,0.15625 0.140625,0.296875 0.296875,0.296875 C 2.5,-0.859375 2.625,-1 2.625,-1.15625 2.625,-1.328125 2.5,-1.453125 2.328125,-1.453125 Z m 0.140625,-2.46875 c -0.359375,0 -0.640625,0.140625 -0.890625,0.421875 L 1.84375,-3.296875 C 2.03125,-3.5 2.234375,-3.59375 2.453125,-3.59375 c 0.265625,0 0.4375,0.125 0.4375,0.359375 0,0.46875 -0.765625,0.390625 -0.765625,1.125 v 0.203125 h 0.390625 v -0.1875 c 0,-0.5625 0.78125,-0.46875 0.78125,-1.15625 0,-0.34375 -0.28125,-0.671875 -0.828125,-0.671875 z m 0,0"
               id="id-e154d410-8f7e-4f81-ac78-18c8edc97f5c" />
          </g>
          <g
             id="id-39a68003-8623-4d63-b02f-bc18f8e759b1">
            <path
               d="M 3.734375,-4.9375 H 1.140625 L 0.4375,0 H 1.125 L 1.421875,-2.171875 H 3.03125 L 3.09375,-2.71875 H 1.5 l 0.234375,-1.671875 h 1.84375 z m 0,0"
               id="id-e28c9c23-ec44-4e1e-a7f2-9c9b894b100b" />
          </g>
        </g>
      </defs>
      <g
         fill="#000000"
         fill-opacity="1"
         id="id-6a8bfd3e-efac-4a94-b2a8-8d16bef0c529"
         transform="translate(-149.228,-129.39)">
        <g
           transform="translate(148.712,134.765)"
           id="g5224">
          <path
             d="m 3.1875,-4.609375 c 0.40625,0 0.703125,0.109375 1.03125,0.375 l 0.484375,-0.5625 C 4.28125,-5.203125 3.765625,-5.375 3.1875,-5.375 c -1.953125,0 -2.671875,1.96875 -2.671875,3.34375 0,1.359375 0.71875,2.15625 1.96875,2.15625 0.578125,0 1.125,-0.1875 1.640625,-0.546875 L 3.765625,-1.0625 C 3.34375,-0.8125 3,-0.65625 2.546875,-0.65625 c -0.671875,0 -1.078125,-0.375 -1.078125,-1.296875 0,-0.125 0.015625,-0.265625 0.03125,-0.390625 h 2.125 l 0.109375,-0.703125 h -2.125 c 0.1875,-0.828125 0.65625,-1.5625 1.578125,-1.5625 z m 0,0"
             id="id-9a9f8a2d-6e88-4c2f-9460-87316eda032c" />
        </g>
      </g>
      <g
         fill="#000000"
         fill-opacity="1"
         id="id-28dcadd6-e305-45f7-824c-175ce2efa9d5"
         transform="translate(-149.228,-129.39)">
        <g
           transform="translate(153.455,138.252)"
           id="g5228">
          <path
             d="M 3.734375,-4.9375 H 1.140625 L 0.4375,0 H 1.125 L 1.421875,-2.171875 H 3.03125 L 3.09375,-2.71875 H 1.5 l 0.234375,-1.671875 h 1.84375 z m 0,0"
             id="id-78b8e5b9-4f8a-4e7e-8298-efbede63ea09" />
        </g>
      </g>
    </g>
    <path
       style="fill:none;stroke:#3e5080;stroke-width:2.294;stroke-dasharray:none;stroke-opacity:1;marker-start:url(#RoundedArrow)"
       d="M -1.5354034,152.93907 H 181.81324"
       id="path5305"
       inkscape:path-effect="#path-effect5307"
       inkscape:original-d="m -1.5354034,152.93907 c 61.1165374,2.6e-4 122.2327534,2.6e-4 183.3486434,0" />
    <g
       transform="matrix(1.41111,0,0,1.41111,27.711428,156.91786)"
       ns4:version="1.8.1"
       ns4:texconverter="xelatex"
       ns4:pdfconverter="inkscape"
       ns4:text="URG transformations"
       ns4:preamble="/home/kirito/.config/textext/beamer_preamble.tex"
       ns4:scale="4.0"
       ns4:alignment="middle center"
       ns4:stroke-to-path="0"
       ns4:jacobian_sqrt="1.41111"
       id="g6088">
      <defs
         id="id-0d1654a5-4485-4a63-9bda-4f804c239923">
        <g
           id="id-6a253f26-a615-4231-90af-85fe1be9c78c">
          <g
             id="id-985296bc-fd6e-478a-9baf-86c475a73092">
            <path
               d="M 5.40625,-10.46875 V 3.484375 H 1.21875 V -10.46875 Z M 4.875,-9.953125 H 1.78125 V 2.96875 H 4.875 Z M 3.234375,-4.5 c 0.394531,0 0.675781,0.109375 0.84375,0.328125 0.175781,0.210937 0.265625,0.484375 0.265625,0.828125 0,0.34375 -0.078125,0.617188 -0.234375,0.8125 -0.148437,0.1875 -0.386719,0.308594 -0.71875,0.359375 v 0.453125 c 0,0.074219 -0.027344,0.132812 -0.078125,0.171875 -0.054688,0.042969 -0.109375,0.0625 -0.171875,0.0625 -0.0625,0 -0.121094,-0.019531 -0.171875,-0.0625 C 2.914062,-1.585938 2.890625,-1.644531 2.890625,-1.71875 V -2.5625 c 0.351563,-0.019531 0.59375,-0.082031 0.71875,-0.1875 0.125,-0.113281 0.1875,-0.304688 0.1875,-0.578125 0,-0.21875 -0.046875,-0.382813 -0.140625,-0.5 -0.085938,-0.125 -0.242188,-0.1875 -0.46875,-0.1875 -0.1875,0 -0.359375,0.039063 -0.515625,0.109375 -0.054687,0.023438 -0.09375,0.03125 -0.125,0.03125 -0.074219,0 -0.136719,-0.019531 -0.1875,-0.0625 -0.042969,-0.039062 -0.0625,-0.097656 -0.0625,-0.171875 0,-0.125 0.097656,-0.21875 0.296875,-0.28125 C 2.789062,-4.460938 3.003906,-4.5 3.234375,-4.5 Z m -0.09375,3.296875 c 0.101563,0 0.1875,0.039063 0.25,0.109375 0.0625,0.0625 0.09375,0.148438 0.09375,0.25 0,0.105469 -0.03125,0.195312 -0.09375,0.265625 -0.0625,0.0625 -0.148437,0.09375 -0.25,0.09375 -0.105469,0 -0.1875,-0.03125 -0.25,-0.09375 -0.0625,-0.070313 -0.09375,-0.160156 -0.09375,-0.265625 0,-0.101562 0.03125,-0.1875 0.09375,-0.25 0.0625,-0.070312 0.144531,-0.109375 0.25,-0.109375 z m 0,0"
               id="id-013a42bd-2141-47a5-ac03-022a3f26d5a0" />
          </g>
          <g
             id="id-9fe6c773-b28c-4ef1-901a-7d0eb9ede03e">
            <path
               d="m 5.703125,-2.203125 c 0,0.460937 -0.09375,0.867187 -0.28125,1.21875 -0.1875,0.34375 -0.464844,0.617187 -0.828125,0.8125 C 4.226562,0.0234375 3.796875,0.125 3.296875,0.125 c -0.773437,0 -1.367187,-0.2070312 -1.78125,-0.625 -0.417969,-0.425781 -0.625,-0.992188 -0.625,-1.703125 V -6.875 H 1.84375 v 4.609375 c 0,0.53125 0.117188,0.933594 0.359375,1.203125 0.238281,0.261719 0.601563,0.390625 1.09375,0.390625 0.488281,0 0.851563,-0.128906 1.09375,-0.390625 C 4.628906,-1.332031 4.75,-1.734375 4.75,-2.265625 V -6.875 h 0.953125 z m 0,0"
               id="id-edd6bbf7-b99e-436b-8e8f-ce028aa015bc" />
          </g>
          <g
             id="id-30828231-335e-497c-b36f-e3b417919f9d">
            <path
               d="M 3.015625,-2.90625 H 1.9375 V 0 H 1 v -6.875 h 1.796875 c 0.863281,0 1.515625,0.167969 1.953125,0.5 0.4375,0.324219 0.65625,0.808594 0.65625,1.453125 0,0.480469 -0.125,0.871094 -0.375,1.171875 -0.242188,0.292969 -0.609375,0.515625 -1.109375,0.671875 L 5.78125,0 h -1.125 z M 2.90625,-3.640625 c 0.5,0 0.875,-0.097656 1.125,-0.296875 0.25,-0.207031 0.375,-0.535156 0.375,-0.984375 0,-0.425781 -0.132812,-0.734375 -0.390625,-0.921875 -0.25,-0.1875 -0.65625,-0.28125 -1.21875,-0.28125 H 1.9375 v 2.484375 z m 0,0"
               id="id-8e42423c-7f23-4527-a868-69e070710ea0" />
          </g>
          <g
             id="id-96039355-acd0-4341-8a44-d6402988ba7f">
            <path
               d="m 3.53125,-6.984375 c 0.425781,0 0.796875,0.0625 1.109375,0.1875 0.320313,0.117187 0.640625,0.304687 0.953125,0.5625 L 5.03125,-5.65625 C 4.789062,-5.851562 4.554688,-5.992188 4.328125,-6.078125 c -0.230469,-0.082031 -0.496094,-0.125 -0.796875,-0.125 -0.355469,0 -0.683594,0.09375 -0.984375,0.28125 -0.292969,0.1875 -0.53125,0.492187 -0.71875,0.90625 C 1.648438,-4.597656 1.5625,-4.070312 1.5625,-3.4375 c 0,0.960938 0.15625,1.664062 0.46875,2.109375 0.3125,0.449219 0.773438,0.671875 1.390625,0.671875 0.507813,0 0.945313,-0.101562 1.3125,-0.3125 V -3.046875 H 3.515625 L 3.40625,-3.8125 h 2.265625 v 3.328125 C 4.960938,-0.078125 4.210938,0.125 3.421875,0.125 2.523438,0.125 1.820312,-0.175781 1.3125,-0.78125 0.800781,-1.382812 0.546875,-2.269531 0.546875,-3.4375 c 0,-0.75 0.132813,-1.390625 0.40625,-1.921875 0.269531,-0.53125 0.628906,-0.929687 1.078125,-1.203125 0.457031,-0.28125 0.957031,-0.421875 1.5,-0.421875 z m 0,0"
               id="id-c7830e3b-5f9e-466e-8a24-5aae2f49edfc" />
          </g>
          <g
             id="id-dcaf1349-bd3a-4380-8b8f-0e89696d9a42">
            <path
               d="M 3.59375,-0.234375 C 3.25,0.00390625 2.859375,0.125 2.421875,0.125 1.972656,0.125 1.625,0 1.375,-0.25 1.125,-0.507812 1,-0.882812 1,-1.375 V -4.546875 H 0.09375 V -5.25 H 1 V -6.4375 L 1.921875,-6.546875 V -5.25 h 1.25 l -0.09375,0.703125 h -1.15625 v 3.125 c 0,0.28125 0.046875,0.484375 0.140625,0.609375 0.101562,0.117188 0.265625,0.171875 0.484375,0.171875 0.207031,0 0.441406,-0.066406 0.703125,-0.203125 z m 0,0"
               id="id-b181cb5d-92d1-4c59-badc-cd1eeabdafd1" />
          </g>
          <g
             id="id-3239c62d-5e93-4302-81f0-ab04c6f1a6d5">
            <path
               d="m 3.234375,-5.375 c 0.1875,0 0.359375,0.023438 0.515625,0.0625 L 3.578125,-4.421875 C 3.421875,-4.453125 3.269531,-4.46875 3.125,-4.46875 c -0.335938,0 -0.601562,0.121094 -0.796875,0.359375 C 2.128906,-3.878906 1.972656,-3.507812 1.859375,-3 v 3 h -0.90625 v -5.25 h 0.78125 l 0.09375,1.0625 C 1.960938,-4.582031 2.148438,-4.878906 2.390625,-5.078125 2.628906,-5.273438 2.910156,-5.375 3.234375,-5.375 Z m 0,0"
               id="id-a7e31c2a-4285-41fa-9d8d-01d395d1f355" />
          </g>
          <g
             id="id-85e7e775-344c-4c4e-8f0f-786a80610566">
            <path
               d="m 4.484375,-1.21875 c 0,0.210938 0.035156,0.367188 0.109375,0.46875 0.070312,0.105469 0.179688,0.183594 0.328125,0.234375 L 4.71875,0.125 C 4.445312,0.0820312 4.226562,0.00390625 4.0625,-0.109375 c -0.167969,-0.125 -0.292969,-0.3125 -0.375,-0.5625 C 3.332031,-0.140625 2.8125,0.125 2.125,0.125 c -0.523438,0 -0.933594,-0.1445312 -1.234375,-0.4375 -0.292969,-0.289062 -0.4375,-0.675781 -0.4375,-1.15625 0,-0.550781 0.195313,-0.976562 0.59375,-1.28125 0.40625,-0.300781 0.976563,-0.453125 1.71875,-0.453125 H 3.5625 V -3.59375 c 0,-0.363281 -0.089844,-0.625 -0.265625,-0.78125 -0.179687,-0.164062 -0.453125,-0.25 -0.828125,-0.25 -0.386719,0 -0.855469,0.09375 -1.40625,0.28125 L 0.828125,-5.015625 c 0.644531,-0.238281 1.25,-0.359375 1.8125,-0.359375 0.613281,0 1.070313,0.152344 1.375,0.453125 0.3125,0.304687 0.46875,0.734375 0.46875,1.296875 z m -2.15625,0.65625 c 0.53125,0 0.941406,-0.273438 1.234375,-0.828125 V -2.59375 H 2.875 c -0.96875,0 -1.453125,0.359375 -1.453125,1.078125 0,0.3125 0.078125,0.554687 0.234375,0.71875 0.15625,0.15625 0.378906,0.234375 0.671875,0.234375 z m 0,0"
               id="id-fe1a046e-51fb-44be-92a8-2fc627ed65b3" />
          </g>
          <g
             id="id-94ef92ae-cbf4-4a2d-a7f4-48f2c7ff5a7b">
            <path
               d="m 3.421875,-5.375 c 0.476563,0 0.847656,0.148438 1.109375,0.4375 0.269531,0.28125 0.40625,0.671875 0.40625,1.171875 V 0 H 4.03125 v -3.640625 c 0,-0.375 -0.074219,-0.632813 -0.21875,-0.78125 -0.136719,-0.15625 -0.339844,-0.234375 -0.609375,-0.234375 -0.28125,0 -0.53125,0.085938 -0.75,0.25 -0.210937,0.15625 -0.40625,0.382812 -0.59375,0.671875 V 0 h -0.90625 v -5.25 h 0.78125 L 1.8125,-4.46875 C 2,-4.75 2.226562,-4.96875 2.5,-5.125 c 0.28125,-0.164062 0.585938,-0.25 0.921875,-0.25 z m 0,0"
               id="id-31cbf15d-ba6c-4b6a-9afc-409db21efd15" />
          </g>
          <g
             id="id-1c85df26-cd1c-4f57-9e26-485b9da89bb5">
            <path
               d="m 2.375,-5.375 c 0.351562,0 0.671875,0.054688 0.953125,0.15625 0.289063,0.09375 0.566406,0.242188 0.828125,0.4375 L 3.765625,-4.203125 C 3.523438,-4.347656 3.296875,-4.457031 3.078125,-4.53125 2.867188,-4.601562 2.644531,-4.640625 2.40625,-4.640625 c -0.304688,0 -0.542969,0.0625 -0.71875,0.1875 -0.167969,0.117187 -0.25,0.28125 -0.25,0.5 0,0.210937 0.078125,0.375 0.234375,0.5 0.164063,0.117187 0.460937,0.230469 0.890625,0.34375 0.582031,0.148437 1.019531,0.34375 1.3125,0.59375 0.289062,0.25 0.4375,0.601563 0.4375,1.046875 0,0.511719 -0.203125,0.90625 -0.609375,1.1875 C 3.296875,-0.0078125 2.804688,0.125 2.234375,0.125 1.429688,0.125 0.769531,-0.101562 0.25,-0.5625 L 0.734375,-1.125 c 0.445313,0.335938 0.941406,0.5 1.484375,0.5 0.34375,0 0.613281,-0.066406 0.8125,-0.203125 0.207031,-0.144531 0.3125,-0.34375 0.3125,-0.59375 0,-0.175781 -0.039062,-0.316406 -0.109375,-0.421875 C 3.160156,-1.957031 3.03125,-2.054688 2.84375,-2.140625 2.664062,-2.222656 2.40625,-2.3125 2.0625,-2.40625 1.5,-2.550781 1.09375,-2.742188 0.84375,-2.984375 c -0.242188,-0.25 -0.359375,-0.5625 -0.359375,-0.9375 0,-0.28125 0.078125,-0.53125 0.234375,-0.75 C 0.882812,-4.890625 1.109375,-5.0625 1.390625,-5.1875 1.679688,-5.3125 2.007812,-5.375 2.375,-5.375 Z m 0,0"
               id="id-6ccd188b-560c-4e25-b512-a85e38e66380" />
          </g>
          <g
             id="id-f4de5dd1-9477-494d-83aa-106547518feb">
            <path
               d="m 2.734375,-6.734375 c -0.28125,0 -0.484375,0.0625 -0.609375,0.1875 -0.117188,0.117187 -0.171875,0.304687 -0.171875,0.5625 V -5.25 h 1.28125 L 3.125,-4.546875 H 1.953125 V 0 H 1.03125 V -4.546875 H 0.09375 V -5.25 h 0.9375 v -0.71875 c 0,-0.457031 0.144531,-0.820312 0.4375,-1.09375 0.289062,-0.28125 0.695312,-0.421875 1.21875,-0.421875 0.238281,0 0.453125,0.027344 0.640625,0.078125 0.1875,0.042969 0.390625,0.109375 0.609375,0.203125 l -0.28125,0.65625 c -0.304688,-0.125 -0.609375,-0.1875 -0.921875,-0.1875 z m 0,0"
               id="id-75046d51-475a-4537-a95b-1a6e0bc91d71" />
          </g>
          <g
             id="id-0d86cff4-2a96-433f-a74a-0bee2a3ee955">
            <path
               d="m 2.921875,-5.375 c 0.738281,0 1.3125,0.25 1.71875,0.75 0.40625,0.492188 0.609375,1.15625 0.609375,2 0,0.542969 -0.09375,1.023438 -0.28125,1.4375 -0.1875,0.417969 -0.460938,0.742188 -0.8125,0.96875 C 3.8125,0.0078125 3.394531,0.125 2.90625,0.125 2.164062,0.125 1.585938,-0.117188 1.171875,-0.609375 0.765625,-1.109375 0.5625,-1.78125 0.5625,-2.625 c 0,-0.539062 0.09375,-1.019531 0.28125,-1.4375 0.1875,-0.414062 0.457031,-0.738281 0.8125,-0.96875 C 2.007812,-5.257812 2.429688,-5.375 2.921875,-5.375 Z m 0,0.734375 c -0.90625,0 -1.359375,0.671875 -1.359375,2.015625 0,1.335938 0.445312,2 1.34375,2 0.90625,0 1.359375,-0.664062 1.359375,-2 0,-1.34375 -0.449219,-2.015625 -1.34375,-2.015625 z m 0,0"
               id="id-d21dfa14-fa65-4b5d-b605-6a12098b049c" />
          </g>
          <g
             id="id-46b95d08-50f0-4621-858c-5e3cbb808e53">
            <path
               d="m 6.21875,-5.375 c 0.4375,0 0.78125,0.148438 1.03125,0.4375 0.257812,0.292969 0.390625,0.683594 0.390625,1.171875 V 0 h -0.90625 v -3.640625 c 0,-0.675781 -0.25,-1.015625 -0.75,-1.015625 -0.25,0 -0.46875,0.078125 -0.65625,0.234375 -0.179687,0.148437 -0.371094,0.375 -0.578125,0.6875 V 0 H 3.84375 v -3.640625 c 0,-0.675781 -0.25,-1.015625 -0.75,-1.015625 -0.261719,0 -0.484375,0.078125 -0.671875,0.234375 -0.179687,0.148437 -0.367187,0.375 -0.5625,0.6875 V 0 h -0.90625 v -5.25 h 0.78125 L 1.8125,-4.484375 C 2.207031,-5.078125 2.710938,-5.375 3.328125,-5.375 c 0.320313,0 0.597656,0.085938 0.828125,0.25 0.226562,0.167969 0.394531,0.402344 0.5,0.703125 0.207031,-0.3125 0.4375,-0.546875 0.6875,-0.703125 0.25,-0.164062 0.539062,-0.25 0.875,-0.25 z m 0,0"
               id="id-ded90e31-0697-45c5-8a63-0cd65646283c" />
          </g>
          <g
             id="id-cacb730b-ee70-409a-87c5-8b6be4bf24ac">
            <path
               d="M 1.859375,-5.25 V 0 h -0.90625 v -5.25 z m -0.46875,-2.53125 c 0.195313,0 0.351563,0.0625 0.46875,0.1875 0.125,0.117188 0.1875,0.265625 0.1875,0.453125 0,0.179687 -0.0625,0.324219 -0.1875,0.4375 -0.117187,0.117187 -0.273437,0.171875 -0.46875,0.171875 -0.179687,0 -0.328125,-0.054688 -0.453125,-0.171875 -0.117188,-0.113281 -0.171875,-0.257813 -0.171875,-0.4375 0,-0.1875 0.054687,-0.335937 0.171875,-0.453125 0.125,-0.125 0.273438,-0.1875 0.453125,-0.1875 z m 0,0"
               id="id-28db6bc8-db4f-419e-b1a1-45178824a0d0" />
          </g>
        </g>
      </defs>
      <g
         fill="#000000"
         fill-opacity="1"
         id="id-3c943c9f-495b-4116-a833-d23c443a7641"
         transform="translate(-149.603,-126.984)">
        <g
           transform="translate(148.712,134.765)"
           id="g6030">
          <path
             d="m 5.703125,-2.203125 c 0,0.460937 -0.09375,0.867187 -0.28125,1.21875 -0.1875,0.34375 -0.464844,0.617187 -0.828125,0.8125 C 4.226562,0.0234375 3.796875,0.125 3.296875,0.125 c -0.773437,0 -1.367187,-0.2070312 -1.78125,-0.625 -0.417969,-0.425781 -0.625,-0.992188 -0.625,-1.703125 V -6.875 H 1.84375 v 4.609375 c 0,0.53125 0.117188,0.933594 0.359375,1.203125 0.238281,0.261719 0.601563,0.390625 1.09375,0.390625 0.488281,0 0.851563,-0.128906 1.09375,-0.390625 C 4.628906,-1.332031 4.75,-1.734375 4.75,-2.265625 V -6.875 h 0.953125 z m 0,0"
             id="id-6961f9c9-9ca4-4f08-9803-44d70bdd32bd" />
        </g>
        <g
           transform="translate(155.307,134.765)"
           id="g6033">
          <path
             d="M 3.015625,-2.90625 H 1.9375 V 0 H 1 v -6.875 h 1.796875 c 0.863281,0 1.515625,0.167969 1.953125,0.5 0.4375,0.324219 0.65625,0.808594 0.65625,1.453125 0,0.480469 -0.125,0.871094 -0.375,1.171875 -0.242188,0.292969 -0.609375,0.515625 -1.109375,0.671875 L 5.78125,0 h -1.125 z M 2.90625,-3.640625 c 0.5,0 0.875,-0.097656 1.125,-0.296875 0.25,-0.207031 0.375,-0.535156 0.375,-0.984375 0,-0.425781 -0.132812,-0.734375 -0.390625,-0.921875 -0.25,-0.1875 -0.65625,-0.28125 -1.21875,-0.28125 H 1.9375 v 2.484375 z m 0,0"
             id="id-0e0acb27-2e1e-48c8-b9c3-3f098d854e21" />
        </g>
      </g>
      <g
         fill="#000000"
         fill-opacity="1"
         id="id-3b9f065f-60af-49a6-99bc-b504b5559453"
         transform="translate(-149.603,-126.984)">
        <g
           transform="translate(161.255,134.765)"
           id="g6037">
          <path
             d="m 3.53125,-6.984375 c 0.425781,0 0.796875,0.0625 1.109375,0.1875 0.320313,0.117187 0.640625,0.304687 0.953125,0.5625 L 5.03125,-5.65625 C 4.789062,-5.851562 4.554688,-5.992188 4.328125,-6.078125 c -0.230469,-0.082031 -0.496094,-0.125 -0.796875,-0.125 -0.355469,0 -0.683594,0.09375 -0.984375,0.28125 -0.292969,0.1875 -0.53125,0.492187 -0.71875,0.90625 C 1.648438,-4.597656 1.5625,-4.070312 1.5625,-3.4375 c 0,0.960938 0.15625,1.664062 0.46875,2.109375 0.3125,0.449219 0.773438,0.671875 1.390625,0.671875 0.507813,0 0.945313,-0.101562 1.3125,-0.3125 V -3.046875 H 3.515625 L 3.40625,-3.8125 h 2.265625 v 3.328125 C 4.960938,-0.078125 4.210938,0.125 3.421875,0.125 2.523438,0.125 1.820312,-0.175781 1.3125,-0.78125 0.800781,-1.382812 0.546875,-2.269531 0.546875,-3.4375 c 0,-0.75 0.132813,-1.390625 0.40625,-1.921875 0.269531,-0.53125 0.628906,-0.929687 1.078125,-1.203125 0.457031,-0.28125 0.957031,-0.421875 1.5,-0.421875 z m 0,0"
             id="id-fd228ebf-c55c-45de-b401-beddffd5854b" />
        </g>
      </g>
      <g
         fill="#000000"
         fill-opacity="1"
         id="id-c10512ad-0972-41fe-98c5-694533c6adec"
         transform="translate(-149.603,-126.984)">
        <g
           transform="translate(170.171,134.765)"
           id="g6041">
          <path
             d="M 3.59375,-0.234375 C 3.25,0.00390625 2.859375,0.125 2.421875,0.125 1.972656,0.125 1.625,0 1.375,-0.25 1.125,-0.507812 1,-0.882812 1,-1.375 V -4.546875 H 0.09375 V -5.25 H 1 V -6.4375 L 1.921875,-6.546875 V -5.25 h 1.25 l -0.09375,0.703125 h -1.15625 v 3.125 c 0,0.28125 0.046875,0.484375 0.140625,0.609375 0.101562,0.117188 0.265625,0.171875 0.484375,0.171875 0.207031,0 0.441406,-0.066406 0.703125,-0.203125 z m 0,0"
             id="id-75c7895e-9458-4207-ae00-31d807d870fa" />
        </g>
        <g
           transform="translate(173.768,134.765)"
           id="g6044">
          <path
             d="m 3.234375,-5.375 c 0.1875,0 0.359375,0.023438 0.515625,0.0625 L 3.578125,-4.421875 C 3.421875,-4.453125 3.269531,-4.46875 3.125,-4.46875 c -0.335938,0 -0.601562,0.121094 -0.796875,0.359375 C 2.128906,-3.878906 1.972656,-3.507812 1.859375,-3 v 3 h -0.90625 v -5.25 h 0.78125 l 0.09375,1.0625 C 1.960938,-4.582031 2.148438,-4.878906 2.390625,-5.078125 2.628906,-5.273438 2.910156,-5.375 3.234375,-5.375 Z m 0,0"
             id="id-6141ecab-5a2f-48a9-aebf-430b18c950ce" />
        </g>
      </g>
      <g
         fill="#000000"
         fill-opacity="1"
         id="id-1ecf0f47-d42d-41dd-ac8c-d5a41875dbb7"
         transform="translate(-149.603,-126.984)">
        <g
           transform="translate(177.275,134.765)"
           id="g6048">
          <path
             d="m 4.484375,-1.21875 c 0,0.210938 0.035156,0.367188 0.109375,0.46875 0.070312,0.105469 0.179688,0.183594 0.328125,0.234375 L 4.71875,0.125 C 4.445312,0.0820312 4.226562,0.00390625 4.0625,-0.109375 c -0.167969,-0.125 -0.292969,-0.3125 -0.375,-0.5625 C 3.332031,-0.140625 2.8125,0.125 2.125,0.125 c -0.523438,0 -0.933594,-0.1445312 -1.234375,-0.4375 -0.292969,-0.289062 -0.4375,-0.675781 -0.4375,-1.15625 0,-0.550781 0.195313,-0.976562 0.59375,-1.28125 0.40625,-0.300781 0.976563,-0.453125 1.71875,-0.453125 H 3.5625 V -3.59375 c 0,-0.363281 -0.089844,-0.625 -0.265625,-0.78125 -0.179687,-0.164062 -0.453125,-0.25 -0.828125,-0.25 -0.386719,0 -0.855469,0.09375 -1.40625,0.28125 L 0.828125,-5.015625 c 0.644531,-0.238281 1.25,-0.359375 1.8125,-0.359375 0.613281,0 1.070313,0.152344 1.375,0.453125 0.3125,0.304687 0.46875,0.734375 0.46875,1.296875 z m -2.15625,0.65625 c 0.53125,0 0.941406,-0.273438 1.234375,-0.828125 V -2.59375 H 2.875 c -0.96875,0 -1.453125,0.359375 -1.453125,1.078125 0,0.3125 0.078125,0.554687 0.234375,0.71875 0.15625,0.15625 0.378906,0.234375 0.671875,0.234375 z m 0,0"
             id="id-2f051642-e09d-4344-a290-9bc5d2c9d762" />
        </g>
        <g
           transform="translate(182.694,134.765)"
           id="g6051">
          <path
             d="m 3.421875,-5.375 c 0.476563,0 0.847656,0.148438 1.109375,0.4375 0.269531,0.28125 0.40625,0.671875 0.40625,1.171875 V 0 H 4.03125 v -3.640625 c 0,-0.375 -0.074219,-0.632813 -0.21875,-0.78125 -0.136719,-0.15625 -0.339844,-0.234375 -0.609375,-0.234375 -0.28125,0 -0.53125,0.085938 -0.75,0.25 -0.210937,0.15625 -0.40625,0.382812 -0.59375,0.671875 V 0 h -0.90625 v -5.25 h 0.78125 L 1.8125,-4.46875 C 2,-4.75 2.226562,-4.96875 2.5,-5.125 c 0.28125,-0.164062 0.585938,-0.25 0.921875,-0.25 z m 0,0"
             id="id-838c25f3-f204-4d79-8a68-cbb117d4d6f9" />
        </g>
        <g
           transform="translate(188.533,134.765)"
           id="g6054">
          <path
             d="m 2.375,-5.375 c 0.351562,0 0.671875,0.054688 0.953125,0.15625 0.289063,0.09375 0.566406,0.242188 0.828125,0.4375 L 3.765625,-4.203125 C 3.523438,-4.347656 3.296875,-4.457031 3.078125,-4.53125 2.867188,-4.601562 2.644531,-4.640625 2.40625,-4.640625 c -0.304688,0 -0.542969,0.0625 -0.71875,0.1875 -0.167969,0.117187 -0.25,0.28125 -0.25,0.5 0,0.210937 0.078125,0.375 0.234375,0.5 0.164063,0.117187 0.460937,0.230469 0.890625,0.34375 0.582031,0.148437 1.019531,0.34375 1.3125,0.59375 0.289062,0.25 0.4375,0.601563 0.4375,1.046875 0,0.511719 -0.203125,0.90625 -0.609375,1.1875 C 3.296875,-0.0078125 2.804688,0.125 2.234375,0.125 1.429688,0.125 0.769531,-0.101562 0.25,-0.5625 L 0.734375,-1.125 c 0.445313,0.335938 0.941406,0.5 1.484375,0.5 0.34375,0 0.613281,-0.066406 0.8125,-0.203125 0.207031,-0.144531 0.3125,-0.34375 0.3125,-0.59375 0,-0.175781 -0.039062,-0.316406 -0.109375,-0.421875 C 3.160156,-1.957031 3.03125,-2.054688 2.84375,-2.140625 2.664062,-2.222656 2.40625,-2.3125 2.0625,-2.40625 1.5,-2.550781 1.09375,-2.742188 0.84375,-2.984375 c -0.242188,-0.25 -0.359375,-0.5625 -0.359375,-0.9375 0,-0.28125 0.078125,-0.53125 0.234375,-0.75 C 0.882812,-4.890625 1.109375,-5.0625 1.390625,-5.1875 1.679688,-5.3125 2.007812,-5.375 2.375,-5.375 Z m 0,0"
             id="id-18c08e93-9dba-47a3-923b-ee6ac9500a14" />
        </g>
        <g
           transform="translate(193.185,134.765)"
           id="g6057">
          <path
             d="m 2.734375,-6.734375 c -0.28125,0 -0.484375,0.0625 -0.609375,0.1875 -0.117188,0.117187 -0.171875,0.304687 -0.171875,0.5625 V -5.25 h 1.28125 L 3.125,-4.546875 H 1.953125 V 0 H 1.03125 V -4.546875 H 0.09375 V -5.25 h 0.9375 v -0.71875 c 0,-0.457031 0.144531,-0.820312 0.4375,-1.09375 0.289062,-0.28125 0.695312,-0.421875 1.21875,-0.421875 0.238281,0 0.453125,0.027344 0.640625,0.078125 0.1875,0.042969 0.390625,0.109375 0.609375,0.203125 l -0.28125,0.65625 c -0.304688,-0.125 -0.609375,-0.1875 -0.921875,-0.1875 z m 0,0"
             id="id-e02cf4b5-6eb0-4b2a-af14-320294ec21c2" />
        </g>
      </g>
      <g
         fill="#000000"
         fill-opacity="1"
         id="id-13aa2e42-2696-4226-a600-fce2526c8b54"
         transform="translate(-149.603,-126.984)">
        <g
           transform="translate(196.423,134.765)"
           id="g6061">
          <path
             d="m 2.921875,-5.375 c 0.738281,0 1.3125,0.25 1.71875,0.75 0.40625,0.492188 0.609375,1.15625 0.609375,2 0,0.542969 -0.09375,1.023438 -0.28125,1.4375 -0.1875,0.417969 -0.460938,0.742188 -0.8125,0.96875 C 3.8125,0.0078125 3.394531,0.125 2.90625,0.125 2.164062,0.125 1.585938,-0.117188 1.171875,-0.609375 0.765625,-1.109375 0.5625,-1.78125 0.5625,-2.625 c 0,-0.539062 0.09375,-1.019531 0.28125,-1.4375 0.1875,-0.414062 0.457031,-0.738281 0.8125,-0.96875 C 2.007812,-5.257812 2.429688,-5.375 2.921875,-5.375 Z m 0,0.734375 c -0.90625,0 -1.359375,0.671875 -1.359375,2.015625 0,1.335938 0.445312,2 1.34375,2 0.90625,0 1.359375,-0.664062 1.359375,-2 0,-1.34375 -0.449219,-2.015625 -1.34375,-2.015625 z m 0,0"
             id="id-3c617ac8-5e85-4dd9-89a0-be30e408ff7d" />
        </g>
        <g
           transform="translate(202.241,134.765)"
           id="g6064">
          <path
             d="m 3.234375,-5.375 c 0.1875,0 0.359375,0.023438 0.515625,0.0625 L 3.578125,-4.421875 C 3.421875,-4.453125 3.269531,-4.46875 3.125,-4.46875 c -0.335938,0 -0.601562,0.121094 -0.796875,0.359375 C 2.128906,-3.878906 1.972656,-3.507812 1.859375,-3 v 3 h -0.90625 v -5.25 h 0.78125 l 0.09375,1.0625 C 1.960938,-4.582031 2.148438,-4.878906 2.390625,-5.078125 2.628906,-5.273438 2.910156,-5.375 3.234375,-5.375 Z m 0,0"
             id="id-770d503e-720f-4403-b86e-24ac67f8b069" />
        </g>
        <g
           transform="translate(206.087,134.765)"
           id="g6067">
          <path
             d="m 6.21875,-5.375 c 0.4375,0 0.78125,0.148438 1.03125,0.4375 0.257812,0.292969 0.390625,0.683594 0.390625,1.171875 V 0 h -0.90625 v -3.640625 c 0,-0.675781 -0.25,-1.015625 -0.75,-1.015625 -0.25,0 -0.46875,0.078125 -0.65625,0.234375 -0.179687,0.148437 -0.371094,0.375 -0.578125,0.6875 V 0 H 3.84375 v -3.640625 c 0,-0.675781 -0.25,-1.015625 -0.75,-1.015625 -0.261719,0 -0.484375,0.078125 -0.671875,0.234375 -0.179687,0.148437 -0.367187,0.375 -0.5625,0.6875 V 0 h -0.90625 v -5.25 h 0.78125 L 1.8125,-4.484375 C 2.207031,-5.078125 2.710938,-5.375 3.328125,-5.375 c 0.320313,0 0.597656,0.085938 0.828125,0.25 0.226562,0.167969 0.394531,0.402344 0.5,0.703125 0.207031,-0.3125 0.4375,-0.546875 0.6875,-0.703125 0.25,-0.164062 0.539062,-0.25 0.875,-0.25 z m 0,0"
             id="id-bdcad835-ca6d-49d4-b73a-48a3b5f8a9e5" />
        </g>
        <g
           transform="translate(214.625,134.765)"
           id="g6070">
          <path
             d="m 4.484375,-1.21875 c 0,0.210938 0.035156,0.367188 0.109375,0.46875 0.070312,0.105469 0.179688,0.183594 0.328125,0.234375 L 4.71875,0.125 C 4.445312,0.0820312 4.226562,0.00390625 4.0625,-0.109375 c -0.167969,-0.125 -0.292969,-0.3125 -0.375,-0.5625 C 3.332031,-0.140625 2.8125,0.125 2.125,0.125 c -0.523438,0 -0.933594,-0.1445312 -1.234375,-0.4375 -0.292969,-0.289062 -0.4375,-0.675781 -0.4375,-1.15625 0,-0.550781 0.195313,-0.976562 0.59375,-1.28125 0.40625,-0.300781 0.976563,-0.453125 1.71875,-0.453125 H 3.5625 V -3.59375 c 0,-0.363281 -0.089844,-0.625 -0.265625,-0.78125 -0.179687,-0.164062 -0.453125,-0.25 -0.828125,-0.25 -0.386719,0 -0.855469,0.09375 -1.40625,0.28125 L 0.828125,-5.015625 c 0.644531,-0.238281 1.25,-0.359375 1.8125,-0.359375 0.613281,0 1.070313,0.152344 1.375,0.453125 0.3125,0.304687 0.46875,0.734375 0.46875,1.296875 z m -2.15625,0.65625 c 0.53125,0 0.941406,-0.273438 1.234375,-0.828125 V -2.59375 H 2.875 c -0.96875,0 -1.453125,0.359375 -1.453125,1.078125 0,0.3125 0.078125,0.554687 0.234375,0.71875 0.15625,0.15625 0.378906,0.234375 0.671875,0.234375 z m 0,0"
             id="id-9c988def-a599-44ee-a42a-355c3d239c17" />
        </g>
        <g
           transform="translate(220.044,134.765)"
           id="g6073">
          <path
             d="M 3.59375,-0.234375 C 3.25,0.00390625 2.859375,0.125 2.421875,0.125 1.972656,0.125 1.625,0 1.375,-0.25 1.125,-0.507812 1,-0.882812 1,-1.375 V -4.546875 H 0.09375 V -5.25 H 1 V -6.4375 L 1.921875,-6.546875 V -5.25 h 1.25 l -0.09375,0.703125 h -1.15625 v 3.125 c 0,0.28125 0.046875,0.484375 0.140625,0.609375 0.101562,0.117188 0.265625,0.171875 0.484375,0.171875 0.207031,0 0.441406,-0.066406 0.703125,-0.203125 z m 0,0"
             id="id-4488222a-f1f2-494e-9c19-1f8734d9258a" />
        </g>
        <g
           transform="translate(223.641,134.765)"
           id="g6076">
          <path
             d="M 1.859375,-5.25 V 0 h -0.90625 v -5.25 z m -0.46875,-2.53125 c 0.195313,0 0.351563,0.0625 0.46875,0.1875 0.125,0.117188 0.1875,0.265625 0.1875,0.453125 0,0.179687 -0.0625,0.324219 -0.1875,0.4375 -0.117187,0.117187 -0.273437,0.171875 -0.46875,0.171875 -0.179687,0 -0.328125,-0.054688 -0.453125,-0.171875 -0.117188,-0.113281 -0.171875,-0.257813 -0.171875,-0.4375 0,-0.1875 0.054687,-0.335937 0.171875,-0.453125 0.125,-0.125 0.273438,-0.1875 0.453125,-0.1875 z m 0,0"
             id="id-9c847371-ffa2-4aef-b48f-b9b29ed6aadf" />
        </g>
        <g
           transform="translate(226.45,134.765)"
           id="g6079">
          <path
             d="m 2.921875,-5.375 c 0.738281,0 1.3125,0.25 1.71875,0.75 0.40625,0.492188 0.609375,1.15625 0.609375,2 0,0.542969 -0.09375,1.023438 -0.28125,1.4375 -0.1875,0.417969 -0.460938,0.742188 -0.8125,0.96875 C 3.8125,0.0078125 3.394531,0.125 2.90625,0.125 2.164062,0.125 1.585938,-0.117188 1.171875,-0.609375 0.765625,-1.109375 0.5625,-1.78125 0.5625,-2.625 c 0,-0.539062 0.09375,-1.019531 0.28125,-1.4375 0.1875,-0.414062 0.457031,-0.738281 0.8125,-0.96875 C 2.007812,-5.257812 2.429688,-5.375 2.921875,-5.375 Z m 0,0.734375 c -0.90625,0 -1.359375,0.671875 -1.359375,2.015625 0,1.335938 0.445312,2 1.34375,2 0.90625,0 1.359375,-0.664062 1.359375,-2 0,-1.34375 -0.449219,-2.015625 -1.34375,-2.015625 z m 0,0"
             id="id-206abddf-7ed8-41c0-aac7-592926d71c12" />
        </g>
        <g
           transform="translate(232.268,134.765)"
           id="g6082">
          <path
             d="m 3.421875,-5.375 c 0.476563,0 0.847656,0.148438 1.109375,0.4375 0.269531,0.28125 0.40625,0.671875 0.40625,1.171875 V 0 H 4.03125 v -3.640625 c 0,-0.375 -0.074219,-0.632813 -0.21875,-0.78125 -0.136719,-0.15625 -0.339844,-0.234375 -0.609375,-0.234375 -0.28125,0 -0.53125,0.085938 -0.75,0.25 -0.210937,0.15625 -0.40625,0.382812 -0.59375,0.671875 V 0 h -0.90625 v -5.25 h 0.78125 L 1.8125,-4.46875 C 2,-4.75 2.226562,-4.96875 2.5,-5.125 c 0.28125,-0.164062 0.585938,-0.25 0.921875,-0.25 z m 0,0"
             id="id-e5caedd1-7224-479f-83f6-a9a715cc0c4e" />
        </g>
        <g
           transform="translate(238.106,134.765)"
           id="g6085">
          <path
             d="m 2.375,-5.375 c 0.351562,0 0.671875,0.054688 0.953125,0.15625 0.289063,0.09375 0.566406,0.242188 0.828125,0.4375 L 3.765625,-4.203125 C 3.523438,-4.347656 3.296875,-4.457031 3.078125,-4.53125 2.867188,-4.601562 2.644531,-4.640625 2.40625,-4.640625 c -0.304688,0 -0.542969,0.0625 -0.71875,0.1875 -0.167969,0.117187 -0.25,0.28125 -0.25,0.5 0,0.210937 0.078125,0.375 0.234375,0.5 0.164063,0.117187 0.460937,0.230469 0.890625,0.34375 0.582031,0.148437 1.019531,0.34375 1.3125,0.59375 0.289062,0.25 0.4375,0.601563 0.4375,1.046875 0,0.511719 -0.203125,0.90625 -0.609375,1.1875 C 3.296875,-0.0078125 2.804688,0.125 2.234375,0.125 1.429688,0.125 0.769531,-0.101562 0.25,-0.5625 L 0.734375,-1.125 c 0.445313,0.335938 0.941406,0.5 1.484375,0.5 0.34375,0 0.613281,-0.066406 0.8125,-0.203125 0.207031,-0.144531 0.3125,-0.34375 0.3125,-0.59375 0,-0.175781 -0.039062,-0.316406 -0.109375,-0.421875 C 3.160156,-1.957031 3.03125,-2.054688 2.84375,-2.140625 2.664062,-2.222656 2.40625,-2.3125 2.0625,-2.40625 1.5,-2.550781 1.09375,-2.742188 0.84375,-2.984375 c -0.242188,-0.25 -0.359375,-0.5625 -0.359375,-0.9375 0,-0.28125 0.078125,-0.53125 0.234375,-0.75 C 0.882812,-4.890625 1.109375,-5.0625 1.390625,-5.1875 1.679688,-5.3125 2.007812,-5.375 2.375,-5.375 Z m 0,0"
             id="id-3190186e-32ae-44dd-b547-2415968872b0" />
        </g>
      </g>
    </g>
    <rect
       style="fill:url(#linearGradient6523);fill-opacity:1;stroke:#cc5037;stroke-width:1;stroke-dasharray:none;stroke-opacity:1"
       id="rect6388"
       width="204.56116"
       height="11.364509"
       x="-195.83789"
       y="89.538025"
       transform="scale(-1,1)" />
    <g
       transform="matrix(1.41111,0,0,1.41111,170.26397,77.785568)"
       ns4:version="1.8.1"
       ns4:texconverter="xelatex"
       ns4:pdfconverter="inkscape"
       ns4:text="UV"
       ns4:preamble="/home/kirito/.config/textext/beamer_preamble.tex"
       ns4:scale="4.0"
       ns4:alignment="middle center"
       ns4:stroke-to-path="0"
       ns4:inkscapeversion="1.2.1"
       ns4:jacobian_sqrt="1.41111"
       id="g8788">
      <defs
         id="id-457fccbf-43fd-4a12-bcbb-412a64ac357e">
        <g
           id="id-d4ec6752-a59f-4352-9843-262310b60bee">
          <g
             id="id-0ac9536c-ea79-4a4e-b3f9-f0735e953497">
            <path
               d="M 5.40625,-10.46875 V 3.484375 H 1.21875 V -10.46875 Z M 4.875,-9.953125 H 1.78125 V 2.96875 H 4.875 Z M 3.234375,-4.5 c 0.394531,0 0.675781,0.109375 0.84375,0.328125 0.175781,0.210937 0.265625,0.484375 0.265625,0.828125 0,0.34375 -0.078125,0.617188 -0.234375,0.8125 -0.148437,0.1875 -0.386719,0.308594 -0.71875,0.359375 v 0.453125 c 0,0.074219 -0.027344,0.132812 -0.078125,0.171875 -0.054688,0.042969 -0.109375,0.0625 -0.171875,0.0625 -0.0625,0 -0.121094,-0.019531 -0.171875,-0.0625 C 2.914062,-1.585938 2.890625,-1.644531 2.890625,-1.71875 V -2.5625 c 0.351563,-0.019531 0.59375,-0.082031 0.71875,-0.1875 0.125,-0.113281 0.1875,-0.304688 0.1875,-0.578125 0,-0.21875 -0.046875,-0.382813 -0.140625,-0.5 -0.085938,-0.125 -0.242188,-0.1875 -0.46875,-0.1875 -0.1875,0 -0.359375,0.039063 -0.515625,0.109375 -0.054687,0.023438 -0.09375,0.03125 -0.125,0.03125 -0.074219,0 -0.136719,-0.019531 -0.1875,-0.0625 -0.042969,-0.039062 -0.0625,-0.097656 -0.0625,-0.171875 0,-0.125 0.097656,-0.21875 0.296875,-0.28125 C 2.789062,-4.460938 3.003906,-4.5 3.234375,-4.5 Z m -0.09375,3.296875 c 0.101563,0 0.1875,0.039063 0.25,0.109375 0.0625,0.0625 0.09375,0.148438 0.09375,0.25 0,0.105469 -0.03125,0.195312 -0.09375,0.265625 -0.0625,0.0625 -0.148437,0.09375 -0.25,0.09375 -0.105469,0 -0.1875,-0.03125 -0.25,-0.09375 -0.0625,-0.070313 -0.09375,-0.160156 -0.09375,-0.265625 0,-0.101562 0.03125,-0.1875 0.09375,-0.25 0.0625,-0.070312 0.144531,-0.109375 0.25,-0.109375 z m 0,0"
               id="id-968c53be-c4e4-45e2-8e74-bdeba9c65fda" />
          </g>
          <g
             id="id-b5300c58-541a-4bc9-8859-c96597f5e787">
            <path
               d="m 5.703125,-2.203125 c 0,0.460937 -0.09375,0.867187 -0.28125,1.21875 -0.1875,0.34375 -0.464844,0.617187 -0.828125,0.8125 C 4.226562,0.0234375 3.796875,0.125 3.296875,0.125 c -0.773437,0 -1.367187,-0.2070312 -1.78125,-0.625 -0.417969,-0.425781 -0.625,-0.992188 -0.625,-1.703125 V -6.875 H 1.84375 v 4.609375 c 0,0.53125 0.117188,0.933594 0.359375,1.203125 0.238281,0.261719 0.601563,0.390625 1.09375,0.390625 0.488281,0 0.851563,-0.128906 1.09375,-0.390625 C 4.628906,-1.332031 4.75,-1.734375 4.75,-2.265625 V -6.875 h 0.953125 z m 0,0"
               id="id-1b5b1558-c982-41a4-bb5b-1be1ed94f8c2" />
          </g>
          <g
             id="id-3d92b8e4-e7fc-4d0c-86c6-f5ff34c2babb">
            <path
               d="M 5.484375,-6.875 3.296875,0 H 2.265625 L 0.0625,-6.875 H 1.078125 L 2.796875,-1.03125 4.53125,-6.875 Z m 0,0"
               id="id-1f7bf8e7-da83-4b16-9a3e-f79aa559681b" />
          </g>
        </g>
      </defs>
      <g
         fill="#000000"
         fill-opacity="1"
         id="id-af72ca70-06f7-4630-be3c-be8cb532d2aa"
         transform="translate(-149.603,-127.89)">
        <g
           transform="translate(148.712,134.765)"
           id="g8782">
          <path
             d="m 5.703125,-2.203125 c 0,0.460937 -0.09375,0.867187 -0.28125,1.21875 -0.1875,0.34375 -0.464844,0.617187 -0.828125,0.8125 C 4.226562,0.0234375 3.796875,0.125 3.296875,0.125 c -0.773437,0 -1.367187,-0.2070312 -1.78125,-0.625 -0.417969,-0.425781 -0.625,-0.992188 -0.625,-1.703125 V -6.875 H 1.84375 v 4.609375 c 0,0.53125 0.117188,0.933594 0.359375,1.203125 0.238281,0.261719 0.601563,0.390625 1.09375,0.390625 0.488281,0 0.851563,-0.128906 1.09375,-0.390625 C 4.628906,-1.332031 4.75,-1.734375 4.75,-2.265625 V -6.875 h 0.953125 z m 0,0"
             id="id-27f7681d-8a68-420c-9d58-ed567c9fd997" />
        </g>
        <g
           transform="translate(155.307,134.765)"
           id="g8785">
          <path
             d="M 5.484375,-6.875 3.296875,0 H 2.265625 L 0.0625,-6.875 H 1.078125 L 2.796875,-1.03125 4.53125,-6.875 Z m 0,0"
             id="id-77d11241-f429-41ac-9ae4-782a2e45a1b0" />
        </g>
      </g>
    </g>
    <g
       transform="matrix(1.41111,0,0,1.41111,19.2523,77.8738)"
       ns4:version="1.8.1"
       ns4:texconverter="xelatex"
       ns4:pdfconverter="inkscape"
       ns4:text="IR"
       ns4:preamble="/home/kirito/.config/textext/beamer_preamble.tex"
       ns4:scale="4.0"
       ns4:alignment="middle center"
       ns4:stroke-to-path="0"
       ns4:inkscapeversion="1.2.1"
       ns4:jacobian_sqrt="1.41111"
       id="g9069">
      <defs
         id="id-b7d484e9-1c13-487f-a81e-f8884a760762">
        <g
           id="id-975ef60c-bb6f-43eb-8aae-a5de6378e63c">
          <g
             id="id-acc00db2-33ac-4a03-89db-479813a5e792">
            <path
               d="M 5.40625,-10.46875 V 3.484375 H 1.21875 V -10.46875 Z M 4.875,-9.953125 H 1.78125 V 2.96875 H 4.875 Z M 3.234375,-4.5 c 0.394531,0 0.675781,0.109375 0.84375,0.328125 0.175781,0.210937 0.265625,0.484375 0.265625,0.828125 0,0.34375 -0.078125,0.617188 -0.234375,0.8125 -0.148437,0.1875 -0.386719,0.308594 -0.71875,0.359375 v 0.453125 c 0,0.074219 -0.027344,0.132812 -0.078125,0.171875 -0.054688,0.042969 -0.109375,0.0625 -0.171875,0.0625 -0.0625,0 -0.121094,-0.019531 -0.171875,-0.0625 C 2.914062,-1.585938 2.890625,-1.644531 2.890625,-1.71875 V -2.5625 c 0.351563,-0.019531 0.59375,-0.082031 0.71875,-0.1875 0.125,-0.113281 0.1875,-0.304688 0.1875,-0.578125 0,-0.21875 -0.046875,-0.382813 -0.140625,-0.5 -0.085938,-0.125 -0.242188,-0.1875 -0.46875,-0.1875 -0.1875,0 -0.359375,0.039063 -0.515625,0.109375 -0.054687,0.023438 -0.09375,0.03125 -0.125,0.03125 -0.074219,0 -0.136719,-0.019531 -0.1875,-0.0625 -0.042969,-0.039062 -0.0625,-0.097656 -0.0625,-0.171875 0,-0.125 0.097656,-0.21875 0.296875,-0.28125 C 2.789062,-4.460938 3.003906,-4.5 3.234375,-4.5 Z m -0.09375,3.296875 c 0.101563,0 0.1875,0.039063 0.25,0.109375 0.0625,0.0625 0.09375,0.148438 0.09375,0.25 0,0.105469 -0.03125,0.195312 -0.09375,0.265625 -0.0625,0.0625 -0.148437,0.09375 -0.25,0.09375 -0.105469,0 -0.1875,-0.03125 -0.25,-0.09375 -0.0625,-0.070313 -0.09375,-0.160156 -0.09375,-0.265625 0,-0.101562 0.03125,-0.1875 0.09375,-0.25 0.0625,-0.070312 0.144531,-0.109375 0.25,-0.109375 z m 0,0"
               id="id-07d95b4b-300a-4576-9a50-1b4ad71b1927" />
          </g>
          <g
             id="id-2dab0bee-fac0-4053-a3ca-c4ae76df2d73">
            <path
               d="M 1.9375,-6.875 V 0 H 1 v -6.875 z m 0,0"
               id="id-dcadd550-c37e-4737-8efa-8ff901c59089" />
          </g>
          <g
             id="id-ecf4869c-6851-4262-b057-b07861fb98c6">
            <path
               d="M 3.015625,-2.90625 H 1.9375 V 0 H 1 v -6.875 h 1.796875 c 0.863281,0 1.515625,0.167969 1.953125,0.5 0.4375,0.324219 0.65625,0.808594 0.65625,1.453125 0,0.480469 -0.125,0.871094 -0.375,1.171875 -0.242188,0.292969 -0.609375,0.515625 -1.109375,0.671875 L 5.78125,0 h -1.125 z M 2.90625,-3.640625 c 0.5,0 0.875,-0.097656 1.125,-0.296875 0.25,-0.207031 0.375,-0.535156 0.375,-0.984375 0,-0.425781 -0.132812,-0.734375 -0.390625,-0.921875 -0.25,-0.1875 -0.65625,-0.28125 -1.21875,-0.28125 H 1.9375 v 2.484375 z m 0,0"
               id="id-dded267f-7f0a-45e9-b5a0-9394f4b07268" />
          </g>
        </g>
      </defs>
      <g
         fill="#000000"
         fill-opacity="1"
         id="id-89209b19-08bc-4583-8fb4-e3271397b4f8"
         transform="translate(-149.712,-127.89)">
        <g
           transform="translate(148.712,134.765)"
           id="g9620">
          <path
             d="M 1.9375,-6.875 V 0 H 1 v -6.875 z m 0,0"
             id="id-cc94dfa6-e243-44a6-bd89-dc315ca8111b" />
        </g>
        <g
           transform="translate(151.651,134.765)"
           id="g9623">
          <path
             d="M 3.015625,-2.90625 H 1.9375 V 0 H 1 v -6.875 h 1.796875 c 0.863281,0 1.515625,0.167969 1.953125,0.5 0.4375,0.324219 0.65625,0.808594 0.65625,1.453125 0,0.480469 -0.125,0.871094 -0.375,1.171875 -0.242188,0.292969 -0.609375,0.515625 -1.109375,0.671875 L 5.78125,0 h -1.125 z M 2.90625,-3.640625 c 0.5,0 0.875,-0.097656 1.125,-0.296875 0.25,-0.207031 0.375,-0.535156 0.375,-0.984375 0,-0.425781 -0.132812,-0.734375 -0.390625,-0.921875 -0.25,-0.1875 -0.65625,-0.28125 -1.21875,-0.28125 H 1.9375 v 2.484375 z m 0,0"
             id="id-e95cd93c-3557-4335-aaa2-afb1a64d688a" />
        </g>
      </g>
    </g>
  </g>
</svg>
